<svg width="45" height="45" viewBox="0 0 45 45" fill="none" xmlns="http://www.w3.org/2000/svg">
<path d="M16.2056 20.6255C15.3357 21.7039 15.3357 23.2709 16.2009 24.3531C16.8435 25.1569 17.5168 25.9687 18.2739 26.7258C19.0309 27.4829 19.8427 28.1562 20.6465 28.7988C21.7288 29.6639 23.2958 29.6639 24.3741 28.794C25.1702 28.1518 25.9734 27.4785 26.7262 26.7258C27.4789 25.9731 28.1522 25.1698 28.7944 24.3738C29.6643 23.2954 29.6643 21.7284 28.7991 20.6462C28.1566 19.8424 27.4832 19.0306 26.7262 18.2735C25.9691 17.5164 25.1573 16.8431 24.3535 16.2005C23.2713 15.3354 21.7043 15.3354 20.6259 16.2053C19.8298 16.8475 19.0266 17.5208 18.2739 18.2735C17.5212 19.0262 16.8478 19.8295 16.2056 20.6255Z" stroke="#45556C" stroke-width="3" stroke-linecap="round" stroke-linejoin="round"/>
<path d="M34.2603 30.2515C33.8613 32.4367 34.4439 34.3397 36.0088 35.9604C38.2637 36.347 40.2273 35.7823 41.8997 34.266" stroke="#45556C" stroke-width="3" stroke-linecap="round" stroke-linejoin="round"/>
<path d="M10.7182 14.7578C11.1162 12.5783 10.5349 10.6805 8.9745 9.06432C6.72553 8.67867 4.76721 9.24197 3.09949 10.7542" stroke="#45556C" stroke-width="3" stroke-linecap="round" stroke-linejoin="round"/>
<path d="M27.4638 39.983C25.936 40.2648 24.2884 40.4077 22.5258 40.4077C10.6992 40.4077 4.04675 33.9611 4.04675 22.4998C4.04675 16.7331 5.73089 12.2358 8.91087 9.19043" stroke="#45556C" stroke-width="3" stroke-linecap="round" stroke-linejoin="round"/>
<path d="M17.8073 4.97691C19.2725 4.72154 20.8461 4.5918 22.5238 4.5918C34.3504 4.5918 41.003 11.0387 41.003 22.4999C41.003 28.2738 39.3146 32.7751 36.1269 35.8206" stroke="#45556C" stroke-width="3" stroke-linecap="round" stroke-linejoin="round"/>
</svg>
