<svg width="2010" height="754" viewBox="0 0 2010 754" fill="none" xmlns="http://www.w3.org/2000/svg">
<path d="M1613.39 151.88C1613.39 151.88 1582.32 159.003 1582.78 163.095C1583.23 167.186 1671.29 213.558 1680.83 213.558C1690.38 213.558 1978.79 25.9489 1978.79 25.9489C1978.79 25.9489 1704.48 226.591 1704.48 237.653C1704.48 248.716 1810.56 308.12 1823.75 309.939C1836.93 311.757 1999.4 8.6731 1999.4 8.6731C1999.4 8.6731 1553.23 155.972 1551.86 163.095C1550.5 170.217 1652.04 219.014 1652.04 219.014C1652.04 219.014 1665.07 342.975 1672.95 345.854C1680.83 348.734 1750.69 289.269 1747.52 285.389C1744.35 281.509 1711.67 259.761 1704.48 259.778C1697.28 259.796 1680.83 345.854 1635.82 383.134C1590.81 420.413 1436.22 343.888 1402.88 359.948C1369.54 376.007 1389.66 438.901 1378.03 438.901C1366.4 438.901 1362.12 443.599 1281.79 401.773C1201.47 359.948 1053.4 395.173 908.401 460.173L906.901 461.173C906.901 461.173 784.401 519.673 704.401 572.829C624.401 625.986 537.322 576.713 444.901 616.566C362.787 651.974 356.163 736.266 265.401 747.776C130.239 764.916 4.40137 530.825 4.40137 530.825" stroke="#006DFD" stroke-width="10"/>
</svg>
