<svg width="2001" height="745" viewBox="0 0 2001 745" fill="none" xmlns="http://www.w3.org/2000/svg">
<path d="M1610.99 146.207C1610.99 146.207 1579.92 153.33 1580.38 157.421C1580.83 161.513 1668.88 207.885 1678.43 207.885C1687.98 207.885 1976.39 20.2758 1976.39 20.2758C1976.39 20.2758 1702.07 220.918 1702.07 231.98C1702.07 243.043 1808.16 302.447 1821.35 304.266C1834.53 306.084 1997 3 1997 3C1997 3 1550.82 150.299 1549.46 157.421C1548.1 164.544 1649.64 213.34 1649.64 213.34C1649.64 213.34 1662.67 337.302 1670.55 340.181C1678.43 343.061 1748.29 283.596 1745.12 279.716C1741.95 275.836 1709.27 254.088 1702.07 254.105C1694.88 254.123 1678.43 340.181 1633.42 377.461C1588.41 414.74 1433.82 338.215 1400.48 354.275C1367.14 370.334 1387.25 433.228 1375.63 433.228C1364 433.228 1359.71 437.926 1279.39 396.1C1199.07 354.275 1051 389.5 906 454.5L904.5 455.5C904.5 455.5 782 514 702 567.156C622 620.312 534.92 571.04 442.5 610.893C360.385 646.301 353.762 730.593 263 742.103C127.838 759.243 2 525.152 2 525.152" stroke="#006DFD" stroke-width="3"/>
</svg>
