<svg width="45" height="45" viewBox="0 0 45 45" fill="none" xmlns="http://www.w3.org/2000/svg">
<path fill-rule="evenodd" clip-rule="evenodd" d="M32.0801 1.55007C31.56 1.69353 31.0997 2.07765 30.7298 2.67687C30.5326 2.99628 30.4208 3.26065 29.7201 5.06236C28.845 7.31263 28.1607 8.17456 26.6511 8.92804C26.1523 9.17707 25.8282 9.30798 24.615 9.75069C23.3094 10.2271 22.7701 10.4992 22.3458 10.8955C21.8857 11.3251 21.6908 11.7081 21.657 12.2486C21.6027 13.1196 21.9299 13.7339 22.7285 14.2599C23.1296 14.5242 23.6133 14.7322 25.1325 15.294C27.1889 16.0544 27.9914 16.5862 28.6785 17.6439C29.1304 18.3396 29.2999 18.7183 30.2611 21.1816C30.6927 22.2874 31.1378 22.8839 31.7495 23.1758C32.2981 23.4376 33.0305 23.4087 33.5469 23.1049C34.1322 22.7605 34.5232 22.1488 35.0553 20.7449C35.93 18.4373 36.3708 17.5957 37.0715 16.895C37.7361 16.2305 38.4703 15.8518 40.6031 15.0738C42.1776 14.4994 42.8855 14.0607 43.2414 13.4387C43.6835 12.6659 43.5767 11.7355 42.9673 11.0517C42.5387 10.5709 42.0253 10.2987 40.5 9.74389C38.3396 8.95806 37.4387 8.45212 36.8053 7.66917C36.1926 6.91177 35.934 6.37879 34.9622 3.86986C34.4787 2.62161 34.1204 2.092 33.5222 1.74154C33.1188 1.5052 32.5276 1.42668 32.0801 1.55007ZM32.4054 7.03386C31.9955 8.02656 31.275 9.22225 30.6785 9.89986C29.8667 10.8221 28.7007 11.6106 27.315 12.1744C27.0304 12.2903 26.7802 12.3953 26.7591 12.4079C26.738 12.4206 26.9506 12.5264 27.2316 12.6431C29.2624 13.4867 30.4939 14.4713 31.4834 16.0424C31.8047 16.5525 32.1359 17.1838 32.3569 17.7074C32.4614 17.9549 32.5542 18.1656 32.563 18.1757C32.5719 18.1858 32.6241 18.0845 32.6791 17.9507C33.0053 17.1569 33.6321 16.0246 34.0593 15.4574C34.9887 14.2233 36.2111 13.3373 37.9784 12.6169C38.4202 12.4368 38.4419 12.4222 38.3289 12.3792C36.4937 11.6814 35.1208 10.7546 34.2231 9.60736C33.6811 8.91477 33.1128 7.93251 32.7622 7.08241C32.6817 6.88716 32.6027 6.71341 32.5867 6.69636C32.5706 6.67935 32.489 6.83122 32.4054 7.03386ZM15.2325 10.3536C12.8813 10.4968 10.0868 10.778 9.18833 10.9619C6.55061 11.5017 4.20156 13.2928 2.95988 15.7108C2.57013 16.4698 2.30706 17.2084 2.14214 18.0067C1.85531 19.3955 1.48523 24.3985 1.48523 26.8874C1.48523 29.5718 1.87173 34.5835 2.18489 35.9596C2.70423 38.2416 4.11908 40.2503 6.1425 41.5783C6.61874 41.8909 7.6568 42.3899 8.19 42.5627C9.04595 42.8399 9.54824 42.9261 11.3702 43.1083C16.3819 43.6096 19.2376 43.63 23.94 43.1983C27.0386 42.9138 27.7776 42.7576 29.1375 42.0991C30.0154 41.674 30.7723 41.1372 31.5152 40.4129C32.9862 38.9787 33.8776 37.2199 34.1735 35.1674C34.3737 33.7788 34.656 30.1528 34.6657 28.8449C34.6724 27.9432 34.6699 27.9174 34.56 27.7013C34.2162 27.0257 33.5764 26.6823 32.8471 26.7821C32.4894 26.831 32.1772 27.0031 31.9041 27.3019C31.5616 27.6767 31.5061 27.8806 31.4553 28.95C31.404 30.0283 31.316 31.335 31.2928 31.3605C31.2837 31.3704 31.109 31.2183 30.9044 31.0224C29.5872 29.761 27.9134 28.4469 27.1125 28.0455C26.1598 27.568 24.8559 27.3388 23.7164 27.4486C22.1106 27.6034 21.105 28.0477 18.8838 29.5836C18.5409 29.8208 18.2455 30.0149 18.2275 30.0149C18.2095 30.0149 18.0205 29.8037 17.8076 29.5456C16.5631 28.0374 14.8339 26.2108 13.7303 25.2386C12.3349 24.0092 11.1775 23.5342 9.57924 23.5351C8.105 23.536 6.95345 23.9796 5.21474 25.2166C4.95774 25.3995 4.74224 25.5446 4.73585 25.5391C4.71807 25.5238 4.80825 23.8544 4.88421 22.7924C4.97232 21.56 5.15925 19.5821 5.24142 19.0124C5.40374 17.8869 5.82336 16.9596 6.56825 16.0802C7.50281 14.977 8.7255 14.2875 10.147 14.0623C11.0861 13.9135 14.2408 13.6361 15.9975 13.5479C16.4678 13.5243 16.9234 13.4805 17.01 13.4505C17.4548 13.2967 17.9377 12.8102 18.0519 12.4007C18.0801 12.2999 18.1028 12.0631 18.1025 11.8745C18.1017 11.3387 17.8578 10.8949 17.3855 10.5701C16.9944 10.3009 16.6555 10.2669 15.2325 10.3536ZM9.3042 26.7804C8.76123 26.8375 8.37896 26.9979 7.6275 27.4837C6.80189 28.0174 5.8037 28.7903 5.04464 29.4835L4.80182 29.7053L4.83219 30.2538C4.89546 31.3968 5.13036 33.981 5.24201 34.7624C5.41773 35.9921 5.92466 37.0363 6.78479 37.9401C7.56396 38.7589 8.53479 39.3422 9.54095 39.5963C10.2194 39.7676 12.2755 39.9869 15.1425 40.1937C16.213 40.2709 19.951 40.2709 21.06 40.1936C23.2553 40.0408 25.7931 39.7901 26.385 39.6676C27.1481 39.5097 27.9973 39.1338 28.6017 38.6862C29.0323 38.3674 29.722 37.663 29.9989 37.2591C30.2909 36.8333 30.5653 36.2979 30.7106 35.8707C30.8221 35.5427 30.8224 35.5376 30.7382 35.4207C30.5975 35.2251 28.5472 33.219 27.9675 32.7096C27.2953 32.119 26.2859 31.307 25.9875 31.1168C25.4503 30.7745 24.8101 30.6155 24.1446 30.6592C23.1494 30.7246 22.5463 30.9887 21.0169 32.0286C20.3016 32.515 20.2531 32.5505 20.2514 32.5905C20.2506 32.6087 20.7179 33.2437 21.2897 34.0017C21.8616 34.7596 22.3729 35.4737 22.4259 35.5886C22.5032 35.7556 22.5225 35.8827 22.5225 36.2249C22.5225 36.6006 22.5075 36.683 22.3982 36.9055C22.1747 37.3606 21.7081 37.713 21.2063 37.8058C20.7556 37.889 20.1676 37.7105 19.8514 37.3943C19.7746 37.3176 19.2011 36.5826 18.5769 35.761C15.852 32.1747 14.6361 30.7019 12.9828 28.9847C12.4443 28.4254 11.4514 27.5031 11.1365 27.2697C10.5876 26.8628 10.0036 26.7069 9.3042 26.7804Z" fill="#45556C"/>
</svg>
