<svg width="43" height="107" viewBox="0 0 43 107" fill="none" xmlns="http://www.w3.org/2000/svg">
<path d="M22.5446 0.534204C21.4589 -0.318829 19.8872 -0.130233 19.0342 0.955446C18.1812 2.04113 18.3698 3.61276 19.4554 4.4658L21 2.5L22.5446 0.534204ZM0.555018 98.4784C0.266948 99.8287 1.12808 101.157 2.4784 101.445L24.4832 106.139C25.8336 106.427 27.1618 105.566 27.4498 104.216C27.7379 102.866 26.8768 101.537 25.5264 101.249L5.96658 97.0766L10.1393 77.5168C10.4274 76.1664 9.56629 74.8382 8.21596 74.5502C6.86564 74.2621 5.53745 75.1232 5.24938 76.4736L0.555018 98.4784ZM21 2.5L19.4554 4.4658C32.7644 14.9229 39.2813 30.8039 37.0836 47.6134C34.8847 64.4318 23.9069 82.4655 1.63996 96.9023L3 99L4.36004 101.098C27.5931 86.0345 39.6153 66.8182 42.0414 48.2616C44.4687 29.6961 37.2356 12.0771 22.5446 0.534204L21 2.5Z" fill="#006DFD"/>
</svg>
