<svg width="24" height="24" viewBox="0 0 24 24" fill="none" xmlns="http://www.w3.org/2000/svg">
<path d="M8.32259 4.67742C8.32259 3.39469 7.28273 2.35484 6.00001 2.35484C4.71728 2.35484 3.67742 3.39469 3.67742 4.67742C3.67742 5.96015 4.71728 7 6.00001 7V8.35484C3.96902 8.35484 2.32259 6.7084 2.32259 4.67742C2.32259 2.64644 3.96902 1 6.00001 1C8.03099 1 9.67743 2.64644 9.67743 4.67742C9.67743 6.7084 8.03099 8.35484 6.00001 8.35484V7C7.28273 7 8.32259 5.96015 8.32259 4.67742Z" fill="#006DFD"/>
<path d="M17.2258 5.45183C17.2258 4.16911 16.1859 3.12925 14.9032 3.12925C13.6205 3.12925 12.5806 4.16911 12.5806 5.45183C12.5806 6.73456 13.6205 7.77441 14.9032 7.77441V9.12925C12.8722 9.12925 11.2258 7.48282 11.2258 5.45183C11.2258 3.42085 12.8722 1.77441 14.9032 1.77441C16.9342 1.77441 18.5806 3.42085 18.5806 5.45183C18.5806 7.48282 16.9342 9.12925 14.9032 9.12925V7.77441C16.1859 7.77441 17.2258 6.73456 17.2258 5.45183Z" fill="#006DFD"/>
<path d="M7.16129 9.12891C8.76079 9.12891 10.1782 9.90565 11.0591 11.1018C10.679 11.3556 10.3373 11.662 10.0433 12.0102C9.41644 11.0889 8.35964 10.4837 7.16129 10.4837H4.83871C2.91462 10.4837 1.35484 12.0435 1.35484 13.9676V17.4515H8.90323V18.8063H0V13.9676C0 11.2953 2.16636 9.12891 4.83871 9.12891H7.16129Z" fill="#006DFD"/>
<path d="M22.6452 17.2582C22.6452 15.0135 20.8254 13.1937 18.5806 13.1937C16.3359 13.1937 14.5161 15.0135 14.5161 17.2582C14.5161 19.503 16.3359 21.3227 18.5806 21.3227V22.6776C15.5876 22.6776 13.1613 20.2512 13.1613 17.2582C13.1613 14.2652 15.5876 11.8389 18.5806 11.8389C21.5737 11.8389 24 14.2652 24 17.2582C24 20.2512 21.5737 22.6776 18.5806 22.6776V21.3227C20.8254 21.3227 22.6452 19.503 22.6452 17.2582Z" fill="#006DFD"/>
<path d="M16.0645 10.2905C17.5236 10.2905 18.8306 10.9374 19.7177 11.9587C19.3511 11.8804 18.9707 11.8389 18.5806 11.8389C18.206 11.8389 17.8402 11.8765 17.487 11.9489C17.0526 11.7543 16.5714 11.6454 16.0645 11.6454H13.7419C11.8178 11.6454 10.2581 13.2051 10.2581 15.1292V17.4518H13.1651C13.1815 17.9211 13.2578 18.3751 13.3862 18.8067H8.90323V15.1292C8.90323 12.4569 11.0696 10.2905 13.7419 10.2905H16.0645Z" fill="#006DFD"/>
<path d="M20.4243 15.6178C20.6888 15.3533 21.1176 15.3533 21.3822 15.6178C21.6467 15.8824 21.6467 16.3112 21.3822 16.5758L18.2854 19.6725C18.0209 19.937 17.592 19.937 17.3275 19.6725L15.7791 18.1241C15.5146 17.8596 15.5146 17.4308 15.7791 17.1662C16.0436 16.9017 16.4725 16.9017 16.737 17.1662L17.8065 18.2357L20.4243 15.6178Z" fill="#006DFD"/>
</svg>
