<svg width="273" height="543" viewBox="0 0 273 543" fill="none" xmlns="http://www.w3.org/2000/svg">
<path d="M60.7082 338C81.1082 360.8 83.2082 410.5 81.7082 432.5C81.7082 479 90.708 534.5 140.208 534.5C189.708 534.5 186.708 454 186.708 432.5C186.708 411 191.208 359.5 213.708 338C236.208 316.5 264.208 274 264.208 222.5C264.208 171 215.208 92.5 137.208 92.5C59.208 92.5 11.2082 157.5 8.20821 222.5C5.20821 287.5 35.2082 309.5 60.7082 338Z" fill="white" stroke="#006DFD" stroke-width="16" stroke-linecap="round" stroke-linejoin="round"/>
<path d="M134.209 402.5V296.5M134.209 296.5C130.542 283.833 117.609 260.7 95.2088 269.5C67.2088 280.5 60.2088 263 69.7088 253.5C79.2088 244 138.209 215 150.209 191.5C162.209 168 154.709 143.5 136.209 143.5C117.709 143.5 101.228 170.288 129.209 206.5C146.208 228.5 181.209 234.5 197.709 255.5C214.209 276.5 184.208 277 165.208 269.5C151.398 264.049 139.542 281.5 134.209 296.5Z" stroke="#006DFD" stroke-width="23" stroke-linecap="round" stroke-linejoin="round"/>
<rect x="60.708" y="396.5" width="149" height="52" rx="26" fill="white" stroke="#006DFD" stroke-width="14"/>
<rect x="60.708" y="458.5" width="149" height="52" rx="26" fill="white" stroke="#006DFD" stroke-width="14"/>
<path d="M135.208 11V54" stroke="#006DFD" stroke-width="21" stroke-linecap="round" stroke-linejoin="round"/>
<path d="M218.208 75.0001L239.208 43" stroke="#006DFD" stroke-width="21" stroke-linecap="round" stroke-linejoin="round"/>
<path d="M51.708 75.5L31.208 43.5" stroke="#006DFD" stroke-width="21" stroke-linecap="round" stroke-linejoin="round"/>
</svg>
