<svg width="32" height="32" viewBox="0 0 32 32" fill="none" xmlns="http://www.w3.org/2000/svg">
<path fill-rule="evenodd" clip-rule="evenodd" d="M29.4561 2.98789C29.3857 3.00997 27.925 3.85345 26.21 4.86232L23.0918 6.69659L21.202 6.59438C19.1881 6.48548 18.8327 6.48728 18.1133 6.6098C17.4735 6.7188 16.6617 6.96673 16.0989 7.22504C15.9465 7.29499 15.9512 7.29572 15.6321 7.15185C14.1146 6.46757 11.8925 5.96478 9.75149 5.82126C9.1127 5.77845 7.71539 5.79736 7.40163 5.8531L7.2031 5.88836L4.93763 4.76725C3.69161 4.15067 2.60112 3.62485 2.5143 3.5988C2.29616 3.53333 2.08153 3.53956 1.8471 3.61816C1.04502 3.88715 0.80211 4.86101 1.38061 5.48859C1.50598 5.62462 1.72515 5.74088 3.74345 6.74196C4.96704 7.34885 6.14813 7.92907 6.36813 8.03131C6.86915 8.2642 7.01485 8.2868 7.40928 8.19259C8.3983 7.95633 10.6204 8.10459 12.4321 8.52766C12.9932 8.65867 13.7314 8.87115 13.72 8.89832C13.7157 8.90872 13.1073 9.4866 12.3681 10.1825C11.6289 10.8784 10.9503 11.5395 10.8601 11.6516C9.43795 13.4183 9.60419 15.8612 11.2516 17.4053C12.736 18.7967 15.0316 18.9707 16.7265 17.8205C16.811 17.7631 17.2357 17.4451 17.6703 17.1138C18.1049 16.7825 18.4674 16.5114 18.476 16.5114C18.4846 16.5114 18.6317 16.7166 18.803 16.9674C19.7632 18.3735 20.7196 19.6098 21.6852 20.6935C22.3489 21.4383 23.4162 22.4541 24.058 22.9519L24.2919 23.1333L23.9562 23.3823C22.1952 24.6889 19.2352 25.9307 16.5761 26.4785C15.5538 26.6891 15.1467 26.7334 14.2241 26.7343C13.4733 26.735 13.3594 26.7279 13.0561 26.6616C11.4156 26.3028 9.63149 25.2556 7.56813 23.4406C6.4631 22.4685 5.29584 21.304 3.66985 19.5514C2.79065 18.6038 2.66416 18.5155 2.19293 18.5204C1.90016 18.5234 1.66409 18.6122 1.4495 18.8001C1.02873 19.1685 0.93827 19.8219 1.2455 20.2735C1.52729 20.6876 4.19094 23.4533 5.29869 24.4819C7.88265 26.8814 10.0942 28.2699 12.1761 28.7998C12.9879 29.0064 13.2563 29.0387 14.1601 29.039C15.4856 29.0393 16.6819 28.861 18.3495 28.4145C21.8631 27.4738 25.3422 25.6232 26.6942 23.9759C26.7412 23.9187 26.8513 23.844 26.9406 23.8088C27.0294 23.7738 27.2214 23.6856 27.3671 23.6128C28.6723 22.9609 29.7388 21.9292 30.6199 20.466C30.9452 19.9258 30.9979 19.7072 30.8965 19.3182C30.8363 19.0867 30.7351 18.9266 30.5391 18.7523C30.2951 18.5354 30.146 18.4798 29.8081 18.4796C29.3084 18.4793 29.0377 18.6576 28.6994 19.21C28.2807 19.8935 27.9695 20.2885 27.4976 20.735C27.1719 21.0433 26.6768 21.3932 26.3478 21.5475L26.1516 21.6396L25.9958 21.5342C24.873 20.7735 23.4324 19.3207 22.0942 17.5994C21.6361 17.0102 21.1109 16.286 21.1288 16.2681C21.1379 16.2591 21.3055 16.2307 21.5014 16.205C22.2598 16.1057 23.0287 15.8572 23.7631 15.4741C24.8016 14.9324 25.0804 14.6127 25.0494 13.9992C25.0332 13.679 24.9475 13.4918 24.7039 13.2447C24.4335 12.9703 24.0754 12.8661 23.6585 12.9405C23.5808 12.9543 23.3462 13.0706 23.0985 13.2179C21.7712 14.0077 20.7179 14.1466 19.1684 13.7364C18.8068 13.6407 18.5858 13.649 18.33 13.7681C18.2366 13.8117 17.5481 14.317 16.8001 14.891C16.0521 15.4651 15.3436 15.9857 15.2257 16.048C14.798 16.274 14.3026 16.3397 13.7988 16.2373C12.8743 16.0495 12.1908 15.2407 12.1926 14.3367C12.1936 13.8153 12.3614 13.403 12.7293 13.0179C13.1267 12.602 15.7784 10.1243 16.0514 9.91387C16.1904 9.8067 16.3542 9.69777 16.4154 9.67176C16.4766 9.64577 16.5893 9.58142 16.6659 9.52875C16.9836 9.31009 17.6375 9.05822 18.2243 8.9284C18.887 8.78177 19.1708 8.77844 21.2321 8.89332C23.3581 9.01179 23.5444 9.01573 23.7379 8.94641C23.9401 8.87393 30.4139 5.06101 30.5788 4.91723C30.6653 4.84184 30.7567 4.71598 30.8175 4.58865C31.1197 3.95528 30.8216 3.23723 30.1597 3.00459C29.9604 2.93454 29.6497 2.92715 29.4561 2.98789Z" fill="#006DFD"/>
</svg>
