<svg width="45" height="45" viewBox="0 0 45 45" fill="none" xmlns="http://www.w3.org/2000/svg">
<path fill-rule="evenodd" clip-rule="evenodd" d="M12.498 8.50848C12.0681 8.61072 11.6365 8.97176 11.4381 9.39498C11.3338 9.61755 11.3175 9.71021 11.3175 10.0799C11.3175 10.4534 11.3328 10.5387 11.4392 10.7552C11.6044 11.0916 11.889 11.3697 12.24 11.5375L12.5325 11.6774H17.685H22.8375L23.0983 11.5721C23.3967 11.4517 23.7884 11.0974 23.929 10.8207C24.3457 10.0003 23.9952 9.00155 23.1525 8.60838L22.8825 8.48238L17.775 8.47527C14.8948 8.47127 12.5936 8.48576 12.498 8.50848ZM33.9746 9.91896C33.5509 10.036 33.1588 10.3829 32.9535 10.8224L32.8275 11.0924L32.8138 12.8811L32.8002 14.6699H31.0493C29.0218 14.6699 29.0002 14.6734 28.5498 15.0852C28.2568 15.3529 28.1001 15.6361 28.0414 16.0036C27.9523 16.5616 28.1295 17.0655 28.5498 17.4496C29.0003 17.8614 29.0214 17.8649 31.0517 17.8649H32.805V19.5429C32.805 20.8829 32.8185 21.2727 32.8719 21.4779C33.1367 22.4946 34.307 22.9919 35.2125 22.4725C35.483 22.3173 35.7554 22.0146 35.8964 21.7124L36.0224 21.4424L36.0369 19.6536L36.0514 17.8649H37.8015C39.8754 17.8649 39.8718 17.8656 40.346 17.397C40.6908 17.0564 40.8199 16.7485 40.8199 16.2674C40.8199 15.6495 40.4724 15.0877 39.9235 14.8181L39.6674 14.6924L37.8594 14.6792L36.0513 14.6661L36.0369 12.8792L36.0224 11.0924L35.8954 10.8174C35.5569 10.0849 34.7463 9.7058 33.9746 9.91896ZM6.07495 18.5877C5.61708 18.608 4.79011 18.655 4.2372 18.6923C3.28972 18.7562 3.21601 18.7677 2.9547 18.892C2.61868 19.0519 2.36209 19.2952 2.18506 19.6219C2.01339 19.9388 1.97262 20.4701 2.0911 20.8468C2.24329 21.3307 2.68263 21.7518 3.18906 21.8993C3.42571 21.9682 3.52867 21.9674 4.74745 21.8877C7.64676 21.6981 9.76095 21.8236 12.0375 22.3204C13.4787 22.6349 16.4047 23.4067 16.695 23.549C17.0305 23.7134 17.4902 24.1448 17.6472 24.4426C17.8771 24.8786 17.9189 25.0342 17.9426 25.5449C17.9626 25.9737 17.9519 26.0939 17.8697 26.3643C17.6461 27.1005 16.9764 27.7333 16.1943 27.9472C15.781 28.0604 15.3499 28.0179 13.5048 27.6823C12.5299 27.505 11.6476 27.3599 11.5443 27.3599C11.1004 27.3599 10.6055 27.615 10.3002 28.0012C9.95404 28.4392 9.87615 29.1161 10.1138 29.621C10.3432 30.1083 10.742 30.4278 11.2725 30.549C12.0051 30.7163 23.1097 32.6748 23.3325 32.676C23.5341 32.6769 25.1687 32.3049 29.7899 31.2062C33.1931 30.3971 36.0994 29.7248 36.2484 29.7122C37.2274 29.6293 38.2188 30.378 38.4247 31.3558C38.5824 32.1047 38.3855 32.769 37.8484 33.2999C37.6843 33.462 37.4421 33.646 37.305 33.7126C36.9429 33.8884 27.3021 37.7984 26.64 38.038C24.4272 38.8384 22.1956 39.1922 19.711 39.1365C18.0935 39.1002 17.0432 38.9624 15.5226 38.5868C14.6341 38.3673 14.3771 38.2802 8.748 36.2885C5.92407 35.2893 3.50802 34.4492 3.379 34.4216C2.90961 34.3209 2.2774 34.5311 1.93617 34.9013C1.19538 35.7049 1.42726 36.9677 2.40192 37.4378C2.66787 37.5661 12.5179 41.063 13.4325 41.3538C14.803 41.7896 16.3308 42.1021 17.9775 42.2836C18.858 42.3806 21.2289 42.3944 22.095 42.3075C24.3081 42.0856 26.2508 41.6462 28.0575 40.9587C28.9729 40.6103 38.4985 36.7321 38.7593 36.6015C39.7883 36.0866 40.7202 35.1306 41.1935 34.1046C41.5581 33.3145 41.6887 32.7116 41.6896 31.8149C41.691 30.3286 41.1834 29.1097 40.1231 28.0535C39.2148 27.1487 38.1133 26.6276 36.8599 26.5097C36.4464 26.4707 35.7327 26.5018 35.3699 26.5745C35.2833 26.5919 32.5293 27.2422 29.25 28.0196L23.2875 29.433L21.7578 29.158C20.9164 29.0068 20.2221 28.8771 20.2148 28.8698C20.2075 28.8625 20.3028 28.6898 20.4266 28.4861C20.6645 28.0943 20.922 27.4717 21.032 27.0224C21.3134 25.8729 21.2228 24.5845 20.786 23.5253C20.1843 22.0662 18.8995 20.8495 17.4498 20.3658C17.0108 20.2193 13.171 19.2516 12.3643 19.0841C10.4008 18.6764 8.12722 18.497 6.07495 18.5877Z" fill="#45556C"/>
</svg>
