<svg width="11867" height="3112" viewBox="0 0 11867 3112" fill="none" xmlns="http://www.w3.org/2000/svg">
<path d="M3 3101.5C1805.5 2619.21 6874.24 3335.1 7015.75 2959.59C7157.25 2584.08 6874.24 2131.46 6925.74 2131.46C6977.24 2131.46 6977.24 2186 6952.74 2186C6928.24 2186 6840.24 2116.78 6838.74 2151.39C6837.24 2186 6884.74 2254.18 6977.25 2234.25C7069.75 2214.32 7175.76 1980.41 7202.76 1863.46C7229.76 1746.5 7227.26 1034.81 7278.76 950.893C7330.26 866.978 7104.75 1121.87 7104.75 1121.87C7104.75 1121.87 7157.25 1144.42 7153.75 1167.5C7150.25 1190.57 7034.25 1213.65 7034.25 1236.2C7034.25 1258.75 7230.26 1465.39 7202.76 1544.06C7175.26 1622.73 7090.25 1647.9 7069.75 1684.09C7049.25 1720.28 7106.75 1728.15 7104.75 1775.35C7102.75 1822.55 7069.75 1807.34 7069.75 1863.46C7069.75 1919.58 7096.75 1986.18 7069.75 2045.97C7042.75 2105.76 6876.24 2131.46 6854.74 2105.76C6833.24 2080.06 6997.25 1819.93 7015.25 1684.09C7033.25 1548.26 6983.75 1145.47 7015.25 1190.57C7046.75 1235.68 6988.25 1276.06 6977.25 1258.75C6966.24 1241.45 6920.24 1178.51 6911.74 1190.57C6903.24 1202.64 6963.24 1258.75 6952.74 1276.06C6942.24 1293.37 6597.73 1190.57 6580.22 1121.87C6562.72 1053.16 6760.73 774.148 6773.23 742.68C6785.74 711.213 6819.74 691.283 6819.74 691.283C6819.74 691.283 6839.24 389.192 6854.74 389.192C6870.24 389.192 6876.74 494.609 6876.74 494.609C6876.74 494.609 6913.24 389.192 6925.74 389.192C6938.24 389.192 6925.74 494.609 6925.74 494.609C6925.74 494.609 6968.74 400.206 6982.75 403.353C6996.75 406.499 6952.74 517.686 6952.74 517.686C6952.74 517.686 7005.25 429.576 7015.25 440.589C7025.25 451.603 6943.24 599.502 6952.74 608.942C6962.24 618.383 7034.25 574.328 7034.25 574.328C7086.59 552.319 6990.75 672.927 6977.25 668.731C6963.74 664.535 6925.74 742.68 6911.74 742.68C6897.74 742.68 6869.24 724.324 6838.74 711.213C6808.24 698.101 6778.73 755.268 6792.24 768.379C6805.74 781.491 6848.74 847.573 6876.74 837.084C6904.74 826.595 6925.74 783.589 6911.74 768.379C6897.74 753.17 6716.73 1084.11 6748.73 1065.23C6780.73 1046.34 6793.23 998.094 6819.74 1004.91C6846.24 1011.73 7040.25 959.284 7056.25 970.822C7072.25 982.36 7025.75 1065.23 7034.25 1065.23C7042.75 1065.23 7072.75 981.836 7088.75 988.129C7104.75 994.423 7306.26 988.129 7306.26 970.822C7306.26 953.515 7104.75 930.963 7104.75 950.893C7104.75 970.822 7170.26 860.685 7202.76 797.225C7235.26 733.765 7267.76 561.216 7341.76 517.686C7415.77 474.155 7556.27 516.112 7586.28 554.398C7616.28 592.684 7738.28 1258.75 7738.28 1258.75C7738.28 1258.75 7629.78 1065.23 7602.78 1042.15C7575.77 1019.07 7574.27 797.225 7564.27 768.379C7554.27 739.534 7512.77 628.872 7512.77 628.872C7512.77 628.872 7466.77 742.68 7428.77 742.68C7390.77 742.68 7333.76 757.365 7306.26 797.225C7278.76 837.084 7303.26 907.886 7319.76 939.354C7336.26 970.822 7365.76 1045.82 7409.27 1065.23C7452.77 1084.63 7505.27 988.129 7534.77 988.129C7564.27 988.129 7542.27 1054.74 7564.27 1065.23C7586.28 1075.71 7641.28 1150.19 7651.28 1167.5C7661.28 1184.8 7585.78 1197.91 7594.28 1222.04C7602.78 1246.17 7737.78 1304.91 7708.78 1339C7679.78 1373.09 7488.27 1652.62 7488.27 1652.62L7512.77 1980.41C7512.77 1980.41 7152.75 2085.83 7202.76 2074.29C7252.76 2062.76 7438.77 2116.78 7452.77 2151.39C7466.77 2186 7175.75 2101.57 7175.75 2131.46C7175.75 2161.35 7325.76 2169.22 7336.26 2214.32C7346.76 2259.43 7387.77 2525.86 7374.27 2559.42C7360.76 2592.99 7261.26 2337.57 7243.76 2362.75C7226.26 2387.92 7327.22 2559.42 7311.76 2573.58C7296.3 2587.74 7175.75 2548.93 7175.75 2573.58C7175.75 2598.23 7361.76 2599.81 7374.27 2619.21C7386.77 2638.62 7336.26 2911.34 7311.76 2895.6C7287.26 2879.87 7277.26 2478.13 7336.26 2362.75C7395.27 2247.37 7557.27 2157.68 7651.28 2186C7745.28 2214.32 7717.78 2924.45 7667.78 2924.45C7617.78 2924.45 7368.27 2782.84 7360.76 2810.12C7353.26 2837.39 7399.77 2946.48 7436.77 2959.59C7473.77 2972.7 7651.28 2988.43 7667.78 2959.59C7684.28 2930.74 7692.28 2282.5 7692.28 2282.5C7692.28 2282.5 7795.29 2214.33 7790.29 2151.39C7785.29 2088.45 7708.78 1963.11 7667.78 1704.02C7626.78 1444.94 7738.28 1400.88 7752.28 1358.93C7766.28 1316.97 7564.27 1024.84 7534.77 1065.23C7505.27 1105.61 7386.77 1276.06 7393.27 1236.2C7399.77 1196.34 7319.76 1015.93 7306.26 1004.91C7292.76 993.898 7196.76 1207.88 7227.26 1222.04C7257.76 1236.2 7324.26 1176.94 7336.26 1190.57C7348.26 1204.21 7292.76 1284.45 7306.26 1301.76C7319.76 1319.07 7361.76 1276.58 7374.27 1301.76C7386.77 1326.93 7358.26 1477.98 7374.27 1484.27C7390.27 1490.57 7404.77 1314.87 7428.77 1319.07C7452.77 1323.26 7466.77 1358.93 7466.77 1339C7466.77 1319.07 7452.77 1258.75 7466.77 1236.2C7480.77 1213.65 7550.77 1319.07 7564.27 1276.06C7577.78 1233.05 7550.77 1149.66 7534.77 1139.17C7518.77 1128.69 7512.27 1544.59 7452.77 1607C7393.27 1669.41 7474.27 2186 7488.27 2186C7502.27 2186 7708.78 1430.25 7708.78 1430.25C7708.78 1430.25 7923.29 1795.28 7958.79 1795.28C7994.3 1795.28 8023.3 1826.22 8048.3 1795.28C8073.3 1764.34 8198.81 1211.03 8187.31 1167.5C8175.81 1123.97 8290.81 928.341 8274.31 922.571C8257.81 916.802 8214.31 970.822 8214.31 970.822C8214.31 970.822 8235.81 863.307 8214.31 857.014C8192.81 850.72 8168.31 950.893 8168.31 950.893C8168.31 950.893 8187.31 797.225 8168.31 797.225C8149.31 797.225 8113.8 950.893 8113.8 950.893C8113.8 950.893 8105.3 797.225 8089.3 797.225C8073.3 797.225 8048.3 1004.91 8048.3 1004.91C8027.98 961.051 7980.8 899.495 7969.8 911.033C7958.8 922.571 8048.3 1100.36 8023.8 1167.5C7999.3 1234.63 8105.8 1196.34 8132.8 1236.2C8159.81 1276.06 8132.8 1339 8113.8 1339C8094.8 1339 8023.8 1258.75 8007.8 1258.75C7991.8 1258.75 7969.8 1526.75 7969.8 1526.75C7969.8 1526.75 7901.79 1139.17 7752.28 1139.17C7602.78 1139.17 8113.8 1020.12 7917.79 911.033C7721.78 801.945 7779.29 797.225 7752.28 768.379C7725.28 739.534 7728.28 348.808 7752.28 337.795C7776.29 326.781 7892.29 346.711 7904.29 335.172C7916.29 323.634 7917.79 259.65 7904.29 258.076C7890.79 256.502 7752.28 278.006 7752.28 278.006C7752.28 278.006 7724.78 104.933 7738.28 78.1851C7751.78 51.4375 7836.29 9.48041 7882.79 10.0049C7929.29 10.5293 7931.29 108.604 7917.79 121.191C7904.29 133.779 7859.79 121.191 7860.79 92.3456C7861.79 63.5001 7947.79 63.5001 7958.79 92.3456C7969.8 121.191 7901.26 187.983 7904.29 226.608C7907.32 265.234 7923.29 646.179 7958.79 668.731C7994.3 691.283 8110.8 679.745 8214.31 711.213C8317.81 742.68 8352.82 691.283 8388.32 691.283C8423.82 691.283 8388.32 574.328 8388.32 574.328C8388.32 574.328 8360.82 615.236 8352.82 608.942C8344.82 602.649 8352.82 475.204 8366.32 472.057C8379.82 468.91 8388.32 494.609 8388.32 494.609L8409.82 375.031C8409.82 375.031 8399.07 434.82 8388.32 440.589C8377.57 446.359 8377.16 375.031 8388.32 322.58C8399.48 270.129 8436.82 184.646 8491.82 215.59C8546.83 246.533 8681.33 200.38 8714.83 278.006C8748.34 355.631 8765.34 433.46 8700.83 531.166C8636.33 628.872 8708.48 681.078 8716.83 622.423C8729.84 531.166 8687.9 568.378 8665.83 517.686C8665.83 517.686 8665.83 414.886 8636.33 386.04C8606.83 357.195 8449.32 343.034 8424.32 400.201C8399.32 457.368 8398.82 622.054 8409.82 645.655C8420.82 669.256 8483.82 815.581 8545.83 797.225C8607.83 778.869 8665.83 628.872 8665.83 628.872C8665.83 628.872 8663.83 729.569 8654.83 768.379C8645.83 807.19 8556.83 857.014 8510.82 857.014C8464.82 857.014 8409.82 691.283 8409.82 691.283C8409.82 691.283 8260.31 805.091 8260.31 817.154C8260.31 829.217 8314.81 847.049 8317.81 857.014C8320.81 866.979 8269.31 867.503 8260.31 879.565C8251.31 891.628 8257.31 1251.93 8274.31 1301.76C8291.31 1351.58 8312.81 1790.56 8274.31 1795.28C8235.81 1800 8204.31 1830.94 8214.31 1840.91C8224.31 1850.87 8267.31 1872.9 8260.31 1900.7C8253.31 1928.49 8214.31 1996.15 8168.31 2011.88C8122.3 2027.62 8002.3 1989.85 7994.3 1963.11C7986.3 1936.36 8159.81 1373.09 8159.81 1373.09L8388.32 742.68L8377.16 837.084M8377.16 837.084L8317.81 1339V1940.56C8317.81 1940.56 8301.31 2105.76 8260.31 2131.46C8219.31 2157.16 8023.8 2045.97 8023.8 2045.97L8061.8 2559.42V2924.45C8061.8 2924.45 8201.81 2528.48 8214.31 2465.02C8226.81 2401.56 8143.81 2186 8168.31 2131.46C8192.81 2076.92 8266.81 1886.54 8371.82 1980.41C8476.82 2074.29 8448.32 2259.95 8448.32 2259.95C8448.32 2259.95 8299.31 2835.29 8352.82 2844.73C8406.32 2854.17 8466.32 2273.59 8505.32 2234.25C8544.33 2194.92 8569.33 2183.91 8573.33 2214.32C8577.33 2244.74 8505.32 2323.41 8505.32 2348.06C8505.32 2372.71 8588.83 2365.37 8589.33 2382.68C8589.83 2399.99 8459.32 2360.12 8491.82 2476.56C8524.32 2592.99 8495.32 2895.6 8524.33 2895.6C8553.33 2895.6 8764.84 2709.42 8700.83 2644.91C8636.83 2580.4 8598.83 2431.45 8654.83 2382.68C8710.83 2333.9 8944.35 2225.86 8836.84 2186C8729.34 2146.14 8700.83 2045.97 8700.83 2045.97C8700.83 2045.97 8604.29 1664.69 8614.33 1585.49C8624.36 1506.3 8714.33 1175.89 8757.84 1121.87C8801.34 1067.85 8688.33 1012.25 8706.33 988.129C8724.33 964.004 8750.34 970.822 8757.84 939.354C8765.34 907.886 8661.83 797.225 8700.83 797.225C8739.84 797.225 9070.35 879.565 9082.85 857.014C9095.36 834.462 8971.35 574.328 9023.85 608.942C9076.35 643.557 9172.86 556.496 9178.86 517.686C9184.86 478.875 9178.86 472.057 9152.86 472.057C9126.86 472.057 8960.35 537.615 8990.85 494.609C9021.35 451.603 8909.34 375.032 8909.34 335.172C8909.34 295.313 9023.85 335.172 9023.85 335.172C9023.85 335.172 8909.34 290.593 8909.34 258.076C8909.34 225.559 9087.85 195.14 9112.36 226.608C9136.86 258.076 9293.37 977.116 9293.37 1042.15C9293.37 1107.18 8931.85 1139.17 8909.34 1139.17C8886.84 1139.17 8876.34 1042.15 8909.34 1042.15C8942.35 1042.15 8836.84 1509.97 8836.84 1607C8836.84 1704.02 8925.85 1962.58 8909.34 2074.29C8892.84 2186 8737.34 2197.02 8706.33 2151.39C8675.33 2105.76 8642.83 1963.11 8614.33 1963.11C8585.83 1963.11 8350.32 1900.7 8352.82 1863.46C8355.32 1826.22 8621.33 1963.11 8628.83 1883.91C8636.33 1804.72 8545.83 1384.1 8573.33 1276.06C8600.83 1168.02 8675.33 768.379 8654.83 857.014C8634.33 945.648 8377.16 837.084 8377.16 837.084ZM8388.32 988.129C8436.32 922.571 8510.82 922.571 8510.82 922.571L8545.83 970.822L8589.33 922.571L8525.5 1004.91C8525.5 1004.91 8545.83 1662.59 8545.83 1684.09C8545.83 1705.6 8469.82 1817.83 8442.82 1821.5C8415.82 1825.17 8388.32 1706.64 8388.32 1607C8388.32 1507.35 8466.82 988.129 8491.82 970.822C8516.82 953.515 8836.84 2309.78 8836.84 2309.78C8836.84 2309.78 8873.84 2810.12 8813.34 2924.45C8752.84 3038.78 8706.33 2959.59 8706.33 2895.6C8706.33 2831.62 9357.37 2889.31 9374.37 2924.45C9391.37 2959.59 9360.37 2975.85 9315.37 2987.38C9270.36 2998.92 9109.36 2151.39 9152.86 2105.76C9196.36 2060.13 9250.36 1840.91 9250.36 1840.91L9407.37 857.014C9407.37 857.014 9311.37 905.789 9310.37 922.571C9309.37 939.354 9383.87 953.515 9360.37 970.822C9336.87 988.129 9247.86 981.836 9250.36 1004.91C9252.86 1027.99 9229.36 1750.7 9229.36 1750.7L9192.86 1883.91V1963.11L9096.35 2027.62L9229.36 1121.87C9229.36 1121.87 9250.36 988.129 9208.86 970.822C9167.36 953.515 9131.86 1339 9109.36 1342.67C9086.85 1346.34 9028.85 1198.44 9004.85 1190.57C8980.85 1182.71 8909.34 1276.06 8909.34 1276.06C8909.34 1276.06 8989.35 1190.57 9004.85 1139.17C9020.35 1087.78 9020.85 1042.15 8989.35 1042.15C8957.85 1042.15 8931.85 1065.23 8931.85 1065.23C8931.85 1065.23 8977.35 988.129 8960.35 970.822C8943.35 953.515 8807.34 981.311 8803.84 1042.15C8800.34 1102.99 8989.35 1582.35 9054.35 1622.21C9119.36 1662.07 9224.86 1583.92 9208.86 1622.21C9192.86 1660.49 9226.86 1860.84 9276.37 1900.7C9325.87 1940.56 9414.37 1940.56 9443.87 1918C9473.37 1895.45 9537.88 1290.22 9524.88 1236.2C9511.88 1182.18 9720.39 911.033 9720.39 911.033C9720.39 911.033 9480.38 997.045 9480.38 1019.6C9480.38 1042.15 9521.88 1063.13 9511.88 1085.16C9501.88 1107.18 9448.87 1124.49 9443.87 1139.17C9438.87 1153.86 9425.37 1689.86 9425.37 1726.05C9425.37 1762.24 9336.87 1883.91 9336.87 1883.91C9336.87 1883.91 9293.37 1750.7 9293.37 1726.05C9293.37 1701.4 9365.11 1121.87 9425.37 1065.23C9485.64 1008.58 9405.87 1045.3 9391.37 1065.23C9376.87 1085.16 9425.37 879.565 9425.37 879.565L9360.37 668.731C9360.37 668.731 9329.37 598.978 9336.87 537.615C9344.37 476.253 9474.88 354.577 9542.88 360.871C9610.88 367.165 9589.38 433.771 9610.88 440.589C9632.38 447.408 9650.39 428.002 9673.39 440.589C9696.39 453.177 9736.39 549.153 9704.89 608.942C9673.39 668.731 9642.38 847.049 9657.88 797.225C9673.39 747.401 9626.88 517.686 9610.88 517.686C9594.88 517.686 9542.88 573.279 9511.88 574.328C9480.88 575.376 9423.37 549.678 9407.37 556.496C9391.37 563.314 9360.37 601.6 9360.37 628.872C9360.37 656.144 9448.87 905.614 9480.38 950.893C9511.88 996.171 9553.38 970.822 9574.38 950.893C9595.38 930.963 9667.89 808.763 9686.39 802.994C9704.89 797.225 9704.89 879.565 9704.89 879.565C9704.89 879.565 9968.9 1144.42 9955.9 1167.5C9942.9 1190.57 9859.4 1086.73 9804.39 1167.5C9749.39 1248.26 9816.39 1630.6 9804.39 1641.09C9792.39 1651.58 9736.39 1454.9 9736.39 1454.9L9749.39 1268.72L9686.39 1190.57L9704.89 1167.5C9704.89 1167.5 9634.38 1121.87 9634.38 1107.18C9634.38 1092.5 9736.39 1107.18 9749.39 1085.16C9762.39 1063.13 9767.39 991.276 9736.39 970.822C9705.39 950.368 9553.38 1079.91 9553.38 1093.55C9553.38 1107.18 9626.88 1172.74 9634.38 1190.57C9641.89 1208.4 9502.38 1235.68 9495.88 1301.76C9489.38 1367.84 9615.38 1439.79 9610.88 1454.9C9606.38 1470.02 9610.88 1500.01 9595.38 1506.82C9579.88 1513.64 9553.38 1471.16 9553.38 1454.9C9553.38 1438.64 9720.39 1432.87 9720.39 1432.87C9720.39 1432.87 9770.39 1491.09 9720.39 1526.75C9670.39 1562.42 9581.88 1492.14 9553.38 1526.75C9524.88 1561.37 9655.89 1860.84 9720.39 1900.7C9784.89 1940.56 9882.4 1821.5 9882.4 1821.5L9955.9 1622.21C9955.9 1622.21 9993.4 1228.33 9992.4 1208.4C9991.4 1188.47 9968.9 1172.74 9955.9 1190.57C9942.9 1208.4 9919.9 1949.47 9911.4 2027.62C9902.9 2105.76 9653.88 2186 9542.88 2151.39C9431.87 2116.78 9479.88 1900.7 9464.38 1963.11C9448.87 2025.52 9336.87 1945.8 9336.87 1963.11C9336.87 1980.41 9395.87 2017.65 9391.37 2045.97C9386.87 2074.29 9313.37 2017.65 9310.37 2045.97C9307.37 2074.29 9360.37 2234.25 9360.37 2234.25C9360.37 2234.25 9293.37 2168.7 9293.37 2214.32C9293.37 2259.95 9374.37 2348.06 9374.37 2348.06L9407.37 2924.45C9407.37 2924.45 9381.07 2465.02 9407.37 2382.68C9433.68 2300.34 9635.88 2214.32 9720.39 2214.32C9804.89 2214.32 9828.39 2131.46 9828.39 2131.46C9828.39 2131.46 9751.39 2942.81 9704.89 2959.59C9658.38 2976.37 9589.38 2959.59 9595.38 2924.45C9601.38 2889.31 10143.9 2866.76 10143.9 2895.6C10143.9 2924.45 10119.4 2959.59 10097.4 2959.59C10075.4 2959.59 10154.4 2536.35 10143.9 2519.04C10133.4 2501.73 9990.4 2493.34 9992.4 2519.04C9994.4 2544.74 10116.4 2577.25 10173.9 2559.42C10231.4 2541.59 10293.9 2348.06 10298.4 2309.78C10302.9 2271.49 10335.4 1963.11 10326.9 1918C10318.4 1872.9 10259.9 1485.32 10245.7 1491.09M10245.7 1491.09C10245.7 1491.09 10241.9 1342.67 10217.4 1342.67C10192.9 1342.67 10075.9 1512.59 10079.9 1526.75C10083.9 1540.91 10173.9 1527.8 10173.9 1544.59C10173.9 1561.37 9998.93 1651.05 10044.4 1684.09C10089.9 1717.13 10218.9 1807.87 10265.9 1883.91C10312.9 1959.96 10272.9 2363.8 10236.9 2382.68C10200.9 2401.56 10130.4 2464.49 10097.4 2465.02C10064.4 2465.54 10209.9 2137.23 10217.4 2074.29C10224.9 2011.36 10159.9 1868.18 10173.9 1840.91C10187.9 1813.63 10237 1866.61 10217.4 1918C10197.9 1969.4 10173.9 2074.29 10079.9 2105.76C9985.9 2137.23 9850.39 1706.12 9851.89 1684.09C9853.39 1662.07 10024.9 1641.09 10044.4 1622.21C10063.9 1603.33 10053.4 1576.05 10034.9 1561.37C10016.4 1546.68 9948.94 1604.37 9882.4 1585.49C9815.86 1566.61 9850.39 1508.4 9851.89 1454.9C9853.39 1401.41 9906.18 1415.56 9939.68 1414.51C9973.18 1413.46 10007.9 1454.9 10034.9 1506.82C10061.9 1558.75 10079.9 1840.91 10079.9 1840.91C10079.9 1840.91 10095.9 1471.16 10111.9 1443.89C10127.9 1416.62 10245.7 1491.09 10245.7 1491.09ZM10245.7 1491.09C10256.4 1350.94 10392.9 1588.12 10403.9 1585.49C10414.9 1582.87 10447.9 1348.96 10454.9 1342.67C10461.9 1336.37 10502.9 1342.67 10502.9 1342.67C10489.4 1342.67 10438.9 1062.08 10470.9 1073.62C10502.9 1085.16 10563.4 1167.5 10592.9 1167.5C10622.4 1167.5 10413.9 857.014 10371.4 797.225C10328.9 737.436 10231.4 742.68 10201.4 747.401C10171.4 752.121 10173.9 797.225 10173.9 797.225C10173.9 797.225 10104.9 768.904 10079.9 802.994C10054.9 837.084 10041.4 881.663 10034.9 939.354C10028.4 997.045 10089.9 1373.09 10111.9 1373.09C10133.9 1373.09 10194.5 1324.83 10201.4 1301.76C10208.3 1278.68 10141.4 1208.4 10173.9 1107.18C10206.4 1005.96 10289.9 819.777 10245.7 857.014C10201.4 894.25 10375.4 936.732 10403.9 970.822C10432.4 1004.91 10447.4 1126.59 10432.4 1167.5C10417.4 1208.4 10406.4 1275.54 10371.4 1301.76C10336.4 1327.98 10239.3 1275.49 10217.4 1236.2C10195.5 1196.92 10208.9 1375.18 10245.7 1358.93C10282.4 1342.67 10403.9 1491.09 10403.9 1491.09L10470.9 1236.2C10470.9 1236.2 10696.9 1349.48 10663.4 1373.09C10629.9 1396.69 10563.9 1430.25 10563.9 1430.25C10563.9 1430.25 10762.9 1452.28 10685.9 1506.82C10608.9 1561.37 10608.9 2086.36 10608.9 2086.36C10608.9 2086.36 10492.4 1174.31 10502.9 1167.5C10513.4 1160.68 10671.9 1197.39 10663.4 1208.4C10654.9 1219.42 10673.9 1309.63 10685.9 1301.76C10697.9 1293.89 10673.9 1197.39 10685.9 1190.57C10697.9 1183.75 10946.5 1173.26 10951 1121.87C10955.5 1070.47 10992.5 1224.14 10984 1236.2C10975.5 1248.26 10663.4 775.197 10663.4 747.401C10663.4 719.604 10710.4 711.213 10729.4 711.213C10748.4 711.213 10758.9 732.716 10758.9 742.68C10758.9 752.645 10632.4 725.373 10608.9 711.213C10585.4 697.052 10628.9 639.361 10663.4 628.872C10697.9 618.383 10720.9 613.662 10758.9 628.872C10796.9 644.082 10890.4 819.777 10880.9 837.084C10871.4 854.391 10735.9 859.111 10729.4 879.565C10722.9 900.02 10741.2 939.354 10758.9 939.354C10776.7 939.355 10900.5 828.692 10951 857.014C11001.5 885.335 11152 1052.11 11132 1190.57C11112 1329.03 10758.9 1430.25 10758.9 1430.25C10758.9 1430.25 10713.4 1868.18 10780.9 1999.82C10848.4 2131.46 11019 2291.94 10999 2363.8C10979 2435.65 10871.4 2495.44 10780.9 2519.04C10690.4 2542.64 10608.9 2283.03 10608.9 2234.25C10608.9 2185.48 10607.4 2156.63 10629.9 2151.39C10652.4 2146.15 10696.4 2214.32 10685.9 2259.95C10675.4 2305.58 10576.4 2363.8 10540.9 2382.68C10505.4 2401.56 10326.9 2402.08 10326.9 2348.06C10326.9 2294.04 10477.4 2131.46 10470.9 2086.36C10464.4 2041.25 10454.9 1821.5 10432.4 1821.5C10409.9 1821.5 10403.9 1960.48 10403.9 2045.97C10403.9 2131.46 10502.9 2259.95 10502.9 2259.95L10540.9 2086.36C10540.9 2086.36 10649.9 2382.68 10629.9 2414.15C10609.9 2445.61 10459.4 2414.15 10403.9 2414.15C10348.4 2414.15 10540.9 2559.42 10540.9 2584.6C10540.9 2609.77 10372.9 2534.25 10371.4 2559.42C10369.9 2584.6 10484.4 2593.51 10502.9 2619.21C10521.4 2644.91 10525.9 2895.6 10502.9 2895.6C10479.9 2895.6 10470.9 2800.68 10454.9 2755.05C10438.9 2709.42 10549.4 2630.75 10563.9 2644.91C10578.4 2659.07 10555.9 2862.04 10592.9 2895.6C10629.9 2929.17 10776.9 2881.97 10799.4 2895.6C10821.9 2909.24 10966.5 2584.6 10951 2519.04C10935.5 2453.48 10829.4 2557.85 10821.9 2644.91C10814.4 2731.97 10828.9 2875.67 10851.4 2895.6C10873.9 2915.53 11866.5 2895.6 11866.5 2895.6" stroke="#006DFD" stroke-width="20"/>
</svg>
