<svg width="32" height="32" viewBox="0 0 32 32" fill="none" xmlns="http://www.w3.org/2000/svg">
<path fill-rule="evenodd" clip-rule="evenodd" d="M15.7356 1.08831C15.3988 1.17333 15.1042 1.42255 14.9488 1.75397L14.8637 1.93557V3.07157V4.20757L14.9557 4.40668C15.0637 4.6406 15.3169 4.89663 15.5437 5.00133C15.6664 5.058 15.7543 5.07154 15.9997 5.07154C16.2451 5.07154 16.333 5.058 16.4558 5.00133C16.6825 4.89663 16.9357 4.6406 17.0438 4.40668L17.1357 4.20757V3.07157V1.93557L17.0454 1.74005C16.8668 1.35365 16.4926 1.09621 16.073 1.07103C15.9535 1.06386 15.8017 1.07164 15.7356 1.08831ZM8.54346 4.23509C8.0235 4.38613 7.6715 4.90207 7.72042 5.44149C7.7538 5.80981 7.83898 5.93074 8.61751 6.71519C9.34846 7.45173 9.53882 7.60696 9.79809 7.67784C10.0184 7.7381 10.3484 7.70946 10.5598 7.61173C10.784 7.50812 11.0272 7.26546 11.1331 7.03964C11.2027 6.89116 11.2157 6.81836 11.2157 6.57509C11.2157 6.10335 11.163 6.02303 10.2653 5.12933C9.64874 4.51557 9.48782 4.37253 9.3354 4.30284C9.1138 4.20156 8.76244 4.17148 8.54346 4.23509ZM22.8712 4.22639C22.8049 4.242 22.6897 4.28533 22.6152 4.32271C22.446 4.40751 21.0894 5.74399 20.9455 5.96757C20.806 6.18447 20.7558 6.38524 20.7748 6.651C20.8155 7.21925 21.2703 7.6726 21.8334 7.70604C22.0979 7.72178 22.2989 7.67071 22.5117 7.53378C22.5997 7.47717 22.9913 7.10879 23.3819 6.71519C23.9678 6.12492 24.107 5.96703 24.1771 5.81368C24.5725 4.94917 23.7981 4.00802 22.8712 4.22639ZM15.2957 6.46396C13.7422 6.67666 12.3082 7.56133 11.4604 8.83004C11.074 9.40815 10.7914 10.0631 10.6381 10.7356C10.5631 11.0642 10.5484 11.2119 10.5356 11.7596C10.5227 12.3146 10.5299 12.4538 10.5901 12.8082C10.7547 13.7778 11.1482 14.641 11.7734 15.4042C11.8759 15.5293 12.1564 15.8476 12.3967 16.1116C12.9249 16.6916 13.0136 16.848 13.0415 17.2476C13.095 18.014 13.4727 18.5417 14.1437 18.7874L14.3517 18.8636H16.0157H17.6797L17.8877 18.7874C18.5585 18.5417 18.9353 18.0155 18.9904 17.2476C19.0051 17.0431 19.0326 16.9279 19.1012 16.7836C19.1938 16.5888 19.2422 16.5283 19.9126 15.7699C20.4149 15.2017 20.6613 14.8513 20.9102 14.3516C21.1354 13.8993 21.274 13.5059 21.3835 13.0076C21.4451 12.7273 21.4538 12.5922 21.4538 11.9196C21.4538 11.241 21.4454 11.113 21.3815 10.8201C20.9014 8.62149 19.2442 6.97007 17.0717 6.52556C16.7078 6.45109 15.6561 6.41461 15.2957 6.46396ZM15.6637 8.7357C14.5562 8.85439 13.5545 9.5813 13.0926 10.6015C12.6968 11.4759 12.719 12.4818 13.1534 13.3466C13.3111 13.6606 13.524 13.9411 14.0051 14.4686C14.4818 14.9912 14.7024 15.2664 14.8688 15.5457C15.0241 15.8062 15.187 16.1929 15.2341 16.4127L15.269 16.5756L16.0104 16.5753L16.7517 16.5751L16.8241 16.3152C16.9884 15.7254 17.2531 15.3078 17.972 14.504C18.6303 13.768 18.7984 13.5235 19.0013 13.0073C19.1736 12.5691 19.2361 11.8145 19.1391 11.3436C18.9971 10.6538 18.6765 10.0642 18.1941 9.60604C17.5142 8.96015 16.577 8.63781 15.6637 8.7357ZM6.63095 11.4592C6.25892 11.5211 5.89457 11.8238 5.75892 12.1837C5.66356 12.4366 5.67914 12.8385 5.79332 13.0716C5.89956 13.2884 6.13802 13.5214 6.36017 13.6256L6.54372 13.7116L7.59972 13.722C8.73111 13.7332 8.88436 13.7191 9.13265 13.5803C9.30036 13.4866 9.50622 13.2708 9.59614 13.0946C9.68737 12.9157 9.73047 12.6131 9.6954 12.3976C9.65665 12.1594 9.55002 11.9539 9.37367 11.7776C9.19054 11.5945 8.98359 11.4908 8.72721 11.4537C8.47569 11.4173 6.85684 11.4215 6.63095 11.4592ZM23.243 11.4557C22.6342 11.5448 22.2061 12.1462 22.3068 12.7711C22.3808 13.2307 22.7252 13.5972 23.1756 13.6957C23.2893 13.7206 23.6855 13.7291 24.3997 13.722L25.4557 13.7116L25.6393 13.6256C25.8614 13.5214 26.0999 13.2884 26.2061 13.0716C26.2653 12.9508 26.2876 12.8449 26.2972 12.6396C26.3136 12.2869 26.2381 12.0729 26.0084 11.8217C25.8151 11.6101 25.6168 11.5021 25.3393 11.4571C25.1094 11.4198 23.4956 11.4187 23.243 11.4557ZM15.5357 20.5657C12.5321 20.6446 9.56542 21.5372 7.02721 23.1257C6.4673 23.4761 6.09406 23.766 5.79066 24.0863C3.95703 26.0218 4.62036 28.9679 7.19972 30.3445C7.73927 30.6324 8.4259 30.8373 9.09447 30.9098C9.52519 30.9566 22.4742 30.9566 22.905 30.9098C24.0654 30.7839 25.1235 30.3038 25.9285 29.538C26.8673 28.6448 27.3581 27.4175 27.2324 26.2772C27.1407 25.4457 26.8026 24.7153 26.2263 24.104C25.838 23.6921 25.3683 23.3479 24.5117 22.8477C21.8296 21.2816 18.6878 20.4828 15.5357 20.5657ZM15.2477 22.8663C13.7776 22.9769 12.6756 23.1794 11.49 23.557C10.0512 24.0153 8.05079 25.0535 7.4771 25.6398C7.13415 25.9903 6.97991 26.4591 7.0705 26.8757C7.12353 27.1195 7.2946 27.4702 7.45914 27.6725C7.76967 28.0543 8.34327 28.4052 8.89572 28.5515L9.16772 28.6236H15.9997H22.8317L23.1037 28.5515C24.0404 28.3035 24.7576 27.6446 24.9282 26.8757C25.0202 26.4608 24.8659 25.9909 24.5223 25.6398C24.2065 25.317 23.4243 24.8311 22.4477 24.3509C20.8692 23.5748 19.2973 23.1237 17.4826 22.926C17.0612 22.8801 15.5878 22.8408 15.2477 22.8663Z" fill="#006DFD"/>
</svg>
