<svg width="32" height="32" viewBox="0 0 32 32" fill="none" xmlns="http://www.w3.org/2000/svg">
<path fill-rule="evenodd" clip-rule="evenodd" d="M25.472 1.63613C24.1445 1.7274 23.9428 1.77908 23.6457 2.1041C23.4069 2.36541 23.349 2.51248 23.3462 2.86416C23.3442 3.12816 23.353 3.17108 23.4492 3.36647C23.5153 3.50074 23.6104 3.62954 23.7052 3.71309C24.0306 3.99994 24.2449 4.04644 24.944 3.9818C25.494 3.93095 26.6634 3.86816 26.6836 3.88839C26.691 3.89584 26.6827 3.92029 26.665 3.94272C23.8878 7.46343 20.374 11.0022 17.126 13.5493L16.7639 13.8333L14.758 11.833C12.458 9.53946 12.5952 9.65066 12.064 9.64864C11.7005 9.64727 11.6297 9.6776 11.0497 10.0834C8.34966 11.9722 6.0359 14.0885 3.98691 16.5435C2.97491 17.756 1.75616 19.4276 1.64384 19.7572C1.56854 19.9783 1.59472 20.3818 1.69779 20.5882C2.01581 21.2249 2.7696 21.4377 3.36557 21.059C3.51853 20.9619 3.62797 20.8264 4.14425 20.0955C5.69625 17.8981 7.64317 15.772 9.74403 13.9801C10.3891 13.4299 11.8614 12.2875 11.9253 12.2875C11.9391 12.2875 12.858 13.1925 13.9672 14.2987C15.4725 15.7999 16.0208 16.3273 16.1292 16.3782C16.4297 16.5197 16.6974 16.5333 17.0384 16.4246C17.2628 16.3531 18.5029 15.4152 19.76 14.3661C22.4424 12.1278 25.5015 9.02071 27.7576 6.24308C28.0226 5.91687 28.0819 5.85892 28.0907 5.91808C28.0965 5.95767 28.0781 6.2874 28.0497 6.65079C27.9642 7.74333 27.9749 7.85991 28.1897 8.17216C28.3154 8.35476 28.4553 8.47069 28.672 8.57188C28.8195 8.64068 28.8948 8.65412 29.136 8.65472C29.3864 8.65533 29.4475 8.64391 29.6036 8.56724C29.8217 8.46013 30.0893 8.18573 30.1784 7.97799C30.3486 7.58084 30.4566 5.26669 30.3672 3.93005C30.2778 2.59229 30.224 2.36327 29.9301 2.06938C29.6961 1.8353 29.5183 1.76692 29.0014 1.71197C27.9482 1.60007 26.4615 1.5681 25.472 1.63613ZM28.9271 10.281C28.6222 10.3849 28.3757 10.6021 28.2228 10.9014L28.144 11.0555L28.1246 13.1355C28.1071 15.0028 28.0803 15.7997 27.8621 20.9275C27.7284 24.0691 27.6108 26.7168 27.6008 26.8112C27.5538 27.2539 27.2316 27.6146 26.816 27.6897C26.6497 27.7197 22.0979 27.967 21.704 27.9674L21.568 27.9675L21.5676 23.0635C21.5673 19.064 21.5594 18.1298 21.5244 17.9983C21.3804 17.4578 20.8364 17.0956 20.2742 17.1658C19.884 17.2146 19.5037 17.512 19.3514 17.8875L19.28 18.0635L19.2714 23.06L19.2627 28.0565L18.5674 28.0824C17.6867 28.1153 13.9821 28.1148 13.272 28.0817L12.736 28.0567L12.7358 22.4681C12.7357 19.0485 12.7237 16.8067 12.7049 16.6918C12.6423 16.3092 12.3893 15.9759 12.0396 15.8152C11.888 15.7455 11.8086 15.7306 11.584 15.7297C11.3524 15.7288 11.2836 15.7418 11.12 15.8177C10.8003 15.9661 10.5598 16.2425 10.4757 16.5583C10.4406 16.6902 10.4327 17.7418 10.4324 22.3435L10.432 27.9675H10.2157C9.85584 27.9675 6.30995 27.7853 5.23245 27.7115C4.83203 27.6841 4.76397 27.6705 4.58627 27.583C4.3887 27.4858 4.25347 27.3505 4.14829 27.1448C4.08259 27.0164 4.0487 26.7582 3.98323 25.8875C3.90957 24.9082 3.86019 24.749 3.53814 24.4526C3.29894 24.2325 3.14262 24.1753 2.78403 24.1766C2.51968 24.1776 2.45654 24.1892 2.3 24.2651C1.98966 24.4156 1.7351 24.7422 1.66182 25.0839C1.61145 25.3186 1.76429 27.146 1.8687 27.5575C2.11731 28.5376 2.83443 29.3588 3.78857 29.756C4.20397 29.9289 4.53661 29.9729 6.09603 30.0613C12.5256 30.4256 16.117 30.4845 20.784 30.3024C22.8044 30.2236 26.4244 30.0364 26.944 29.9839C27.3595 29.942 27.6961 29.8504 28.0434 29.6849C28.9729 29.2418 29.6439 28.3805 29.8424 27.3755C29.8719 27.2262 29.9726 25.1243 30.1442 21.0715L30.4018 14.9915L30.3929 13.0235L30.384 11.0555L30.3056 10.8955C30.206 10.6923 29.9506 10.4383 29.744 10.3371C29.619 10.2758 29.5245 10.2569 29.312 10.2506C29.1612 10.2461 28.9897 10.2597 28.9271 10.281Z" fill="#006DFD"/>
</svg>
