<svg width="24" height="24" viewBox="0 0 24 24" fill="none" xmlns="http://www.w3.org/2000/svg">
<path d="M11.7976 23.1808L11.7976 0.8192C11.7976 0.366768 12.1643 -1.6032e-08 12.6168 -3.58084e-08C13.0692 -5.55848e-08 13.436 0.366768 13.436 0.8192L13.436 23.1808C13.4359 23.6332 13.0692 24 12.6168 24C12.1644 24 11.7977 23.6332 11.7976 23.1808Z" fill="#006DFD"/>
<path d="M16.7666 8.48007C16.7665 6.68594 14.8953 4.95139 12.2025 4.95139C9.50976 4.95139 7.63852 6.68594 7.6384 8.48007C7.6384 10.2743 9.50968 12.0092 12.2025 12.0092C15.4561 12.0092 18.405 14.1678 18.405 17.1763C18.405 20.1848 15.4561 22.3438 12.2025 22.3438C8.94894 22.3438 6 20.1848 6 17.1763C6.00004 16.7239 6.36679 16.3571 6.8192 16.3571C7.27161 16.3571 7.63836 16.7239 7.6384 17.1763C7.6384 18.9705 9.50968 20.7054 12.2025 20.7054C14.8954 20.7054 16.7666 18.9705 16.7666 17.1763C16.7666 15.3821 14.8953 13.6476 12.2025 13.6476C8.94894 13.6476 6 11.4886 6 8.48007C6.00011 5.47164 8.94901 3.31299 12.2025 3.31299C15.456 3.31299 18.4049 5.47164 18.405 8.48007C18.405 8.93251 18.0383 9.29927 17.5858 9.29927C17.1334 9.29927 16.7666 8.93251 16.7666 8.48007Z" fill="#006DFD"/>
</svg>
