<svg width="24" height="24" viewBox="0 0 24 24" fill="none" xmlns="http://www.w3.org/2000/svg">
<g clip-path="url(#clip0_3443_36)">
<path d="M11.0769 6.72532C11.0769 6.21552 11.4902 5.80225 12 5.80225C12.5098 5.80225 12.9231 6.21552 12.9231 6.72532V13.5897C12.9231 13.8349 12.8257 14.0702 12.6521 14.2434L9.48731 17.401C9.12641 17.761 8.54157 17.7603 8.1815 17.3994C7.82146 17.0385 7.82216 16.4537 8.18305 16.0936L11.0769 13.2059V6.72532Z" fill="#006DFD"/>
<path d="M22.1538 12C22.1538 6.39219 17.6078 1.84615 12 1.84615C6.39219 1.84615 1.84615 6.39219 1.84615 12C1.84615 17.6078 6.39219 22.1538 12 22.1538C12.5098 22.1538 12.9231 22.5671 12.9231 23.0769C12.9231 23.5867 12.5098 24 12 24C5.37258 24 0 18.6274 0 12C0 5.37258 5.37258 0 12 0C18.6274 0 24 5.37258 24 12C24 12.5098 23.5867 12.9231 23.0769 12.9231C22.5671 12.9231 22.1538 12.5098 22.1538 12Z" fill="#006DFD"/>
<path d="M17.9341 21.4945V13.0549C17.9341 12.5451 18.3473 12.1318 18.8571 12.1318C19.3669 12.1318 19.7802 12.5451 19.7802 13.0549V21.4945C19.7802 22.0043 19.3669 22.4175 18.8571 22.4175C18.3473 22.4175 17.9341 22.0043 17.9341 21.4945Z" fill="#006DFD"/>
<path d="M21.9195 18.1824C22.2921 17.8346 22.8764 17.8546 23.2242 18.2272C23.5721 18.5999 23.552 19.1841 23.1794 19.532L19.2234 23.2243C18.8687 23.5553 18.3181 23.5553 17.9634 23.2243L14.0074 19.532C13.6348 19.1841 13.6147 18.5999 13.9626 18.2272C14.3104 17.8546 14.8947 17.8346 15.2673 18.1824L18.5934 21.2864L21.9195 18.1824Z" fill="#006DFD"/>
</g>
<defs>
<clipPath id="clip0_3443_36">
<rect width="24" height="24" fill="white"/>
</clipPath>
</defs>
</svg>
