<svg width="38" height="38" viewBox="0 0 38 38" fill="none" xmlns="http://www.w3.org/2000/svg">
<path fill-rule="evenodd" clip-rule="evenodd" d="M17.6697 1.27856C15.8015 1.40179 14.6996 1.55961 13.3187 1.90172C12.0137 2.22499 10.9931 2.5869 9.88916 3.11772C5.22269 5.36166 2.33123 9.58384 1.50207 15.3648C1.34915 16.4311 1.28813 17.2397 1.26514 18.506C1.22322 20.8126 1.42572 22.776 1.90365 24.6965C2.90788 28.7321 4.97314 31.7763 8.14257 33.8926C11.4738 36.117 16.2627 37.0988 21.4887 36.6288C25.2419 36.2912 28.4441 35.0932 30.9887 33.0745C31.5223 32.6512 32.6821 31.4888 33.0931 30.9654C34.2598 29.4796 35.0686 27.974 35.6832 26.144C36.7177 23.0635 37.0166 19.1042 36.4946 15.3954C35.7423 10.0498 33.2419 6.06303 29.1348 3.66059C26.8294 2.31197 23.868 1.49444 20.5577 1.29258C19.9978 1.25846 18.1133 1.2493 17.6697 1.27856ZM17.7457 4.01483C14.9533 4.17443 12.6788 4.74135 10.6919 5.77305C7.11414 7.63072 4.89991 11.0196 4.22009 15.6783C4.05441 16.8136 4.01235 17.4737 4.01079 18.962C4.00927 20.416 4.03705 20.9124 4.18282 22.0384C4.29206 22.8821 4.55123 24.1768 4.62487 24.247C4.66412 24.2843 5.24419 24.4554 5.51012 24.5082C6.40137 24.6847 7.54171 24.6011 8.4357 24.2936C9.66876 23.8694 10.8368 22.8963 11.1726 22.0136C11.3741 21.4836 11.3701 21.5393 11.4002 18.867C11.4165 17.4251 11.445 16.2783 11.4674 16.169C11.7329 14.8745 12.2517 13.8905 13.1143 13.0449C13.7268 12.4445 14.404 12.016 15.1724 11.7426C15.8094 11.5159 16.1749 11.4475 17.0047 11.3996C17.9516 11.3448 18.4223 11.1871 18.9908 10.7343C20.0895 9.85888 20.5914 8.21489 20.4788 5.85988C20.4478 5.20905 20.3383 4.06369 20.3037 4.02801C20.282 4.00555 18.1042 3.99434 17.7457 4.01483ZM23.119 4.57259C23.3382 6.76128 23.198 8.55605 22.6967 9.97501C21.9804 12.003 20.4424 13.4593 18.5057 13.9438C18.1574 14.0309 17.7155 14.0874 17.1377 14.1187C16.5786 14.149 16.2524 14.2178 15.9031 14.3792C15.21 14.6994 14.7 15.2083 14.3817 15.8973C14.1294 16.4434 14.1299 16.4379 14.0982 19.209C14.0801 20.7795 14.0539 21.7839 14.028 21.896C13.716 23.2438 13.259 24.0963 12.3811 24.9684C11.382 25.961 10.0811 26.6954 8.6846 27.0555C7.94254 27.2468 7.24155 27.3285 6.45833 27.3149C6.08285 27.3084 5.77562 27.3124 5.77566 27.3239C5.77577 27.3715 6.27487 28.2096 6.4898 28.5232C7.93091 30.6257 9.98063 32.1465 12.5742 33.0375C13.9247 33.5014 15.2596 33.775 16.9857 33.9415C17.675 34.008 20.3244 34.008 21.0137 33.9415C23.5015 33.7015 25.3631 33.2056 27.1623 32.3038L27.6257 32.0714V30.7307C27.6257 29.3059 27.6095 29.1448 27.4317 28.7961C27.3269 28.5907 27.0189 28.2671 26.7859 28.1176C26.5147 27.9435 26.2998 27.8906 25.7073 27.8518C25.0436 27.8083 24.6139 27.7351 24.1494 27.5863C20.5048 26.4188 18.9927 22.1214 21.1081 18.9423C22.2533 17.2211 24.1736 16.3199 27.2251 16.0714C27.9208 16.0148 29.6886 16.0455 30.4567 16.1276C31.4703 16.2359 32.4533 16.4067 33.3333 16.6274C33.6196 16.6993 33.8632 16.758 33.8748 16.758C33.9148 16.758 33.8952 16.4662 33.8172 15.9014C33.3475 12.5018 32.1297 9.8262 30.1516 7.84811C28.4598 6.15635 26.2561 5.01966 23.5271 4.43119L23.0955 4.33813L23.119 4.57259ZM27.695 18.7733C26.5285 18.8347 25.5314 19.0337 24.7325 19.3646C23.7736 19.7618 23.0811 20.6011 22.9123 21.5706C22.8444 21.9604 22.8828 22.6697 22.9902 23.009C23.2283 23.7611 23.7622 24.4019 24.4717 24.7874C24.8744 25.0062 25.173 25.0769 25.9529 25.1383C27.1273 25.2307 27.8155 25.4722 28.5947 26.0655C29.7087 26.9135 30.3617 28.2646 30.3617 29.7211V29.9193L30.4612 29.8271C30.516 29.7765 30.7016 29.564 30.8739 29.355C32.7236 27.1102 33.7539 24.1271 33.9706 20.3894C34.0018 19.8495 34.0001 19.7014 33.9624 19.6775C33.9362 19.6608 33.7351 19.5882 33.5157 19.516C31.8316 18.9621 29.5768 18.6744 27.695 18.7733Z" fill="#324158"/>
</svg>
