<svg width="24" height="24" viewBox="0 0 24 24" fill="none" xmlns="http://www.w3.org/2000/svg">
<path d="M14.5068 0L14.587 0.00397829C14.7718 0.0223542 14.9455 0.103811 15.0776 0.235216L21.3312 6.45725C21.4821 6.60735 21.5665 6.81075 21.5666 7.02217V21.9557C21.5666 22.4971 21.3504 23.0173 20.965 23.4008C20.5795 23.7843 20.0561 24 19.5101 24H4.50087C3.95484 24 3.43148 23.7843 3.04593 23.4008C2.66046 23.0172 2.44389 22.4972 2.44385 21.9557V2.04434L2.44634 1.94289C2.47154 1.43819 2.68455 0.958782 3.04593 0.599229C3.43148 0.215742 3.95484 0 4.50087 0H14.5068ZM21.482 23.4853C21.4208 23.5634 21.3553 23.6386 21.2845 23.7096C21.3553 23.6386 21.4208 23.5634 21.482 23.4853ZM2.50853 23.4599C2.54475 23.5074 2.58272 23.5537 2.62248 23.5987C2.58272 23.5537 2.54475 23.5074 2.50853 23.4599ZM4.50087 1.59977C4.25532 1.59977 4.05612 1.79896 4.05603 2.04434V21.9557C4.05612 22.201 4.25532 22.4002 4.50087 22.4002H19.5101C19.7556 22.4002 19.9548 22.201 19.9549 21.9557V9.51108C19.9548 9.26574 19.7556 9.06708 19.5101 9.06701H13.2559C13.0417 9.06696 12.8366 8.98185 12.6857 8.83179C12.5347 8.68161 12.4498 8.4779 12.4498 8.26638V2.04434C12.4497 1.79901 12.251 1.59985 12.0055 1.59977H4.50087ZM21.9995 22.2018C21.998 22.2168 21.9953 22.2316 21.9935 22.2466C21.9956 22.229 21.9983 22.2115 22 22.1939L21.9995 22.2018ZM15.7578 12.4451C15.9721 12.4451 16.1775 12.5296 16.3285 12.6798C16.4791 12.8299 16.5633 13.0329 16.5634 13.2442C16.5634 13.4557 16.4794 13.6595 16.3285 13.8096L11.3253 18.787C11.1743 18.9372 10.9689 19.0222 10.7545 19.0222C10.5402 19.0222 10.3348 18.9371 10.1838 18.787L7.68244 16.298L7.67697 16.2931L7.62223 16.2349C7.57058 16.1743 7.52841 16.1061 7.49684 16.033C7.4548 15.9356 7.43258 15.8306 7.43166 15.7247C7.43078 15.6189 7.45106 15.5139 7.49137 15.4159C7.53172 15.3177 7.59147 15.2285 7.66701 15.1533C7.74257 15.0781 7.83257 15.0181 7.93173 14.9777C8.03089 14.9374 8.13748 14.9172 8.24471 14.9181C8.35198 14.919 8.45825 14.9411 8.5567 14.9832C8.65509 15.0253 8.74373 15.0868 8.81793 15.1632C8.8197 15.1651 8.8221 15.1664 8.8239 15.1682L10.4411 16.7774C10.6146 16.95 10.8945 16.95 11.068 16.7774L15.187 12.6798C15.338 12.5296 15.5434 12.4451 15.7578 12.4451ZM17.0082 13.2442V13.2447C17.0082 13.2859 17.0063 13.3269 17.0022 13.3675H17.0017C17.0058 13.3268 17.0082 13.2855 17.0082 13.2442ZM16.8609 12.6584C16.8801 12.6942 16.8976 12.7309 16.9132 12.7683L16.954 12.8827C16.9303 12.8051 16.8993 12.7299 16.8609 12.6584ZM14.8203 2.24475C14.693 2.1181 14.5021 2.08037 14.3362 2.14927C14.1703 2.21818 14.0621 2.38006 14.062 2.55953V7.02217C14.062 7.26758 14.2613 7.46673 14.5068 7.46674H18.9921C19.1721 7.46669 19.3344 7.35801 19.4031 7.19174C19.4718 7.02551 19.4335 6.83434 19.3061 6.70739L14.8203 2.24475ZM21.6447 6.14247H21.6452H21.6447ZM2.00746 1.84891C2.00353 1.8986 2.00092 1.94849 2 1.99859C2.00092 1.94849 2.00353 1.8986 2.00746 1.84891ZM2.57073 0.460984C2.56026 0.473614 2.55008 0.48646 2.53988 0.499275C2.54847 0.488483 2.55698 0.477612 2.56576 0.466951L2.57073 0.460984ZM21.5552 23.3873C21.5397 23.4092 21.5241 23.4311 21.5079 23.4525C21.5241 23.4311 21.5397 23.4092 21.5552 23.3873ZM2.01144 22.2018C2.01512 22.2386 2.01958 22.2752 2.02488 22.3117C2.01958 22.2752 2.01512 22.2386 2.01144 22.2018ZM2.02388 1.69326C2.02029 1.71837 2.01726 1.74359 2.01443 1.76884C2.01726 1.74359 2.02029 1.71837 2.02388 1.69326Z" fill="#006DFD"/>
</svg>
