<svg width="45" height="45" viewBox="0 0 45 45" fill="none" xmlns="http://www.w3.org/2000/svg">
<path d="M22.5 26.9772C30.1408 26.9772 34.4388 22.6792 34.4388 15.0384C34.4388 7.39757 30.1408 3.09961 22.5 3.09961C14.8592 3.09961 10.5612 7.39757 10.5612 15.0384C10.5612 22.6792 14.8592 26.9772 22.5 26.9772Z" stroke="#45556C" stroke-width="3" stroke-linecap="round" stroke-linejoin="round"/>
<path d="M26.6352 26.4809C25.3926 26.81 24.0117 26.9783 22.5 26.9783C16.111 26.9783 12.0592 23.9732 10.9031 18.5215C5.86502 19.8557 3.09949 23.8339 3.09949 29.963C3.09949 37.6039 7.39745 41.9018 15.0383 41.9018C22.6791 41.9018 26.977 37.6039 26.977 29.963C26.977 28.7112 26.8617 27.5491 26.6352 26.4809Z" stroke="#45556C" stroke-width="3" stroke-linecap="round" stroke-linejoin="round"/>
<path d="M34.097 18.5215C33.2145 22.6833 30.6443 25.4192 26.6352 26.4809C26.8617 27.5491 26.977 28.7112 26.977 29.963C26.977 34.5693 25.4149 37.9608 22.5 39.928C24.4201 41.224 26.9273 41.9018 29.9617 41.9018C37.6026 41.9018 41.9005 37.6039 41.9005 29.963C41.9005 23.8339 39.1349 19.8557 34.097 18.5215Z" stroke="#45556C" stroke-width="3" stroke-linecap="round" stroke-linejoin="round"/>
</svg>
