<svg width="38" height="38" viewBox="0 0 38 38" fill="none" xmlns="http://www.w3.org/2000/svg">
<path fill-rule="evenodd" clip-rule="evenodd" d="M9.40531 2.07189C8.63201 2.16335 7.84272 2.26481 7.65127 2.29734C6.97274 2.41263 6.31599 2.63983 5.68888 2.97625C3.95665 3.9055 2.70413 5.57818 2.32002 7.47522C2.2015 8.0605 1.89112 10.9443 1.90955 11.2887C1.92004 11.4843 1.95241 11.6331 2.01067 11.7535C2.13895 12.0185 2.40598 12.2935 2.6526 12.4146C2.84819 12.5106 2.90823 12.521 3.26831 12.521C3.61472 12.521 3.68947 12.5092 3.83546 12.4314C4.06434 12.3093 4.39429 11.9714 4.47873 11.7725C4.57745 11.54 4.58216 11.5083 4.77102 9.79619C4.95707 8.10967 4.97835 7.96645 5.0976 7.60001C5.52688 6.28084 6.69101 5.24595 8.02307 4.99933C8.19809 4.96692 9.01677 4.86382 9.84232 4.77019C11.5777 4.57343 11.5521 4.57753 11.7912 4.45813C12.0535 4.32715 12.2447 4.13916 12.3921 3.8672C12.5144 3.64155 12.5212 3.60902 12.5212 3.24901C12.5212 2.88839 12.5145 2.85678 12.391 2.62881C12.2449 2.3592 12.0172 2.13941 11.7505 2.01059C11.4567 1.8687 11.0289 1.87987 9.40531 2.07189ZM26.3874 1.9539C26.0605 2.05623 25.7371 2.34887 25.5664 2.69683C25.4962 2.83987 25.4819 2.93331 25.4819 3.24901C25.4819 3.57376 25.4953 3.65664 25.5742 3.81901C25.7494 4.18001 26.1562 4.50354 26.5243 4.57457C26.5975 4.5887 27.3328 4.67682 28.1583 4.77046C28.9839 4.86405 29.8025 4.96711 29.9776 4.99944C31.2728 5.23877 32.4341 6.24645 32.8734 7.51212C33.0068 7.89641 33.0537 8.20091 33.2306 9.82947C33.4004 11.3926 33.4509 11.6813 33.596 11.9179C33.6958 12.0808 33.9687 12.3265 34.1681 12.4328C34.3108 12.509 34.3877 12.521 34.7323 12.521C35.0924 12.521 35.1524 12.5106 35.348 12.4146C35.5942 12.2937 35.8616 12.0186 35.9894 11.7547C36.1307 11.4628 36.1238 11.1843 35.9322 9.45236C35.8356 8.57969 35.7305 7.72792 35.6986 7.5595C35.3862 5.91296 34.4113 4.40258 33.0206 3.41082C32.6089 3.11723 31.7397 2.6754 31.2933 2.53275C30.6225 2.31843 30.4667 2.29232 28.5383 2.07177C26.9624 1.8915 26.6427 1.87398 26.3874 1.9539ZM18.2023 11.992C17.2557 12.0993 16.7004 12.2146 16.0999 12.4288C15.5956 12.6087 14.9953 12.9183 14.5811 13.2122C14.1816 13.4956 13.4959 14.1813 13.2125 14.5808C12.6271 15.4058 12.2506 16.393 12.0591 17.605C11.9637 18.2084 11.9637 19.7916 12.0591 20.395C12.2047 21.3165 12.4344 22.0458 12.7926 22.724C13.0886 23.2844 13.3705 23.666 13.8323 24.1313C14.8209 25.1274 15.983 25.6849 17.6053 25.9412C17.9313 25.9928 18.2587 26.0085 19.0003 26.0085C19.742 26.0085 20.0693 25.9928 20.3953 25.9412C22.0044 25.687 23.1709 25.1309 24.1511 24.1508C25.1547 23.1471 25.7346 21.8981 25.9603 20.254C25.9894 20.0421 26.0099 19.5243 26.0099 19C26.0099 18.4757 25.9894 17.9579 25.9603 17.746C25.7346 16.1019 25.1547 14.8529 24.1511 13.8493C23.1782 12.8764 22.0015 12.3126 20.4253 12.0639C20.0643 12.007 18.513 11.9568 18.2023 11.992ZM18.0693 14.7489C17.6343 14.8032 17.0666 14.9651 16.6965 15.1405C15.9606 15.4891 15.489 15.9606 15.141 16.6961C14.8387 17.3348 14.7065 18.0356 14.7065 19C14.7065 19.9645 14.8387 20.6653 15.141 21.304C15.4876 22.0363 15.9653 22.5134 16.7005 22.8613C17.335 23.1616 18.0379 23.2938 19.0003 23.2938C20.0128 23.2938 20.6844 23.1598 21.3753 22.8197C22.0589 22.4834 22.4837 22.0586 22.82 21.375C23.1601 20.6841 23.2941 20.0125 23.2941 19C23.2941 17.9875 23.1601 17.3159 22.82 16.625C22.4837 15.9415 22.0589 15.5167 21.3753 15.1803C20.919 14.9557 20.4317 14.8136 19.8933 14.7479C19.4982 14.6997 18.4581 14.7003 18.0693 14.7489ZM2.7821 25.5298C2.53936 25.6163 2.3478 25.7646 2.15621 26.0144C1.98342 26.2397 1.90028 26.4971 1.90039 26.8064C1.9005 27.1539 2.23262 30.0932 2.3212 30.5307C2.70401 32.4214 3.959 34.0958 5.68888 35.0238C6.30854 35.3562 6.96321 35.5841 7.62935 35.6993C8.34097 35.8223 11.0003 36.1065 11.2863 36.0901C11.7714 36.0622 12.1501 35.8158 12.391 35.3712C12.5145 35.1432 12.5212 35.1116 12.5212 34.751C12.5212 34.3904 12.5145 34.3588 12.391 34.1308C12.1925 33.7645 11.8452 33.4967 11.4763 33.4255C11.4032 33.4113 10.6679 33.3232 9.84232 33.2296C7.81612 32.9998 7.62274 32.9603 7.00619 32.649C6.50432 32.3957 5.88355 31.8429 5.56948 31.3698C5.29372 30.9543 5.06408 30.4024 4.97945 29.9518C4.95867 29.8412 4.86488 29.0546 4.77102 28.2038C4.58216 26.4918 4.57745 26.46 4.47873 26.2275C4.39353 26.0269 4.06206 25.6887 3.83546 25.5711C3.59937 25.4487 3.06828 25.4279 2.7821 25.5298ZM34.3098 25.5103C33.8816 25.6701 33.5346 26.0545 33.4291 26.486C33.4163 26.5383 33.3274 27.2973 33.2314 28.1728C33.1355 29.0483 33.033 29.8776 33.0036 30.0158C32.7287 31.3073 31.7959 32.3772 30.5291 32.854C30.1857 32.9833 29.8201 33.0412 28.1583 33.2296C27.3328 33.3232 26.5975 33.4113 26.5243 33.4255C26.1562 33.4965 25.7494 33.82 25.5742 34.181C25.4953 34.3434 25.4819 34.4263 25.4819 34.751C25.4819 35.2088 25.5588 35.4035 25.8578 35.7025C26.1089 35.9535 26.357 36.0685 26.6953 36.0904C27.1092 36.1172 30.1902 35.7612 30.7613 35.6206C31.4998 35.4387 32.4157 35.0205 33.0206 34.5892C34.4113 33.5974 35.3862 32.0871 35.6986 30.4405C35.805 29.8795 36.1088 26.9779 36.0911 26.691C36.0712 26.3678 35.9741 26.1472 35.7345 25.8807C35.4808 25.5985 35.2191 25.4846 34.7914 25.4705C34.5691 25.4631 34.3987 25.4772 34.3098 25.5103Z" fill="#324158"/>
</svg>
