<svg width="24" height="24" viewBox="0 0 24 24" fill="none" xmlns="http://www.w3.org/2000/svg">
<g clip-path="url(#clip0_3443_66)">
<path d="M3.5398 22.3697H5.89416V17.4795H3.5398V22.3697ZM7.43396 22.5617C7.43396 23.3561 6.82575 24.0001 6.07547 24.0001H3.35849C2.63165 24.0001 2.03813 23.3957 2.00177 22.6356L2 22.5617V17.2875C2 16.4931 2.60822 15.8491 3.35849 15.8491H6.07547C6.82575 15.8491 7.43396 16.4931 7.43396 17.2875V22.5617Z" fill="#006DFD"/>
<path d="M10.7851 22.3418H13.1394V12.979H10.7851V22.3418ZM14.6792 22.5371L14.6775 22.6123C14.6411 23.3853 14.0476 24 13.3208 24H10.6038C9.87694 24 9.28342 23.3853 9.24705 22.6123L9.24529 22.5371V12.7838C9.24529 11.9758 9.8535 11.3208 10.6038 11.3208H13.3208C14.071 11.3208 14.6792 11.9758 14.6792 12.7838V22.5371Z" fill="#006DFD"/>
<path d="M18.0304 22.3698H20.3847V9.32862H18.0304V22.3698ZM21.9245 22.5617L21.9228 22.6357C21.8864 23.3957 21.2929 24.0001 20.566 24.0001H17.8491C17.1222 24.0001 16.5287 23.3957 16.4923 22.6357L16.4906 22.5617V9.13664C16.4906 8.34224 17.0988 7.69824 17.8491 7.69824H20.566C21.3163 7.69824 21.9245 8.34224 21.9245 9.13664V22.5617Z" fill="#006DFD"/>
<path d="M21.9245 5.36798C21.9245 5.81796 21.5581 6.18284 21.1063 6.18284C20.6544 6.18284 20.288 5.81796 20.288 5.36798V2.81481L14.8399 8.37001C14.686 8.52686 14.475 8.61522 14.2547 8.61526C14.0344 8.61526 13.8231 8.52695 13.6691 8.37001L10.751 5.39466L3.40313 12.8866C3.0874 13.2085 2.56973 13.2146 2.24648 12.9002C1.92324 12.5858 1.91713 12.0702 2.23285 11.7483L10.1663 3.65962L10.2265 3.60393C10.373 3.48184 10.5587 3.41392 10.7514 3.4139C10.9717 3.4139 11.1826 3.50271 11.3366 3.65962L14.2543 6.63404L19.1638 1.62972H16.5342C16.0823 1.62972 15.7159 1.26485 15.7159 0.814862C15.7159 0.364878 16.0823 0 16.5342 0H21.1063C21.5581 0 21.9245 0.364878 21.9245 0.814862V5.36798Z" fill="#006DFD"/>
</g>
<defs>
<clipPath id="clip0_3443_66">
<rect width="24" height="24" fill="white"/>
</clipPath>
</defs>
</svg>
