<svg width="24" height="24" viewBox="0 0 24 24" fill="none" xmlns="http://www.w3.org/2000/svg">
<path d="M4.54489 13.9442C5.43103 13.7155 6.96782 13.4962 8.49957 13.6378C9.91534 13.7686 11.4608 14.2223 12.4066 15.4125H15.5132C15.54 15.4125 15.5669 15.4147 15.5934 15.4185C15.8562 15.4561 16.2348 15.5739 16.5623 15.8228C16.8567 16.0465 17.1201 16.3887 17.1907 16.8586L19.71 16.0841L19.721 16.0809C20.149 15.9587 20.8346 15.8432 21.5475 15.8821C22.2405 15.92 23.0512 16.1099 23.6435 16.6844C23.8724 16.8738 24.0959 17.2404 23.9572 17.7039C23.8289 18.1326 23.4325 18.4685 22.8763 18.7467C21.8345 19.2675 17.69 21.2316 15.7547 22.1455C15.7343 22.1551 15.7135 22.1637 15.6922 22.1708C14.8123 22.4641 12.5792 22.8684 10.4864 22.1708L4.66893 20.2316C4.37264 20.1328 4.21256 19.8124 4.31133 19.5161C4.41012 19.2198 4.73051 19.0598 5.02684 19.1585L10.8443 21.0977C12.6074 21.6853 14.5487 21.3509 15.3059 21.1062C17.2626 20.1821 21.3497 18.2452 22.3706 17.7348C22.597 17.6216 22.7303 17.5249 22.8049 17.4551C22.8061 17.4541 22.807 17.4527 22.8081 17.4517C22.4958 17.1795 22.0274 17.0413 21.4856 17.0117C20.9195 16.9808 20.3634 17.0743 20.0366 17.167L16.8196 18.1564C16.4434 18.5861 15.901 18.7566 15.5931 18.8006C15.5666 18.8044 15.5399 18.8063 15.5132 18.8063H9.53417C9.22183 18.8063 8.96862 18.5531 8.96858 18.2407C8.96858 17.9284 9.2218 17.6751 9.53417 17.6751H15.463C15.5383 17.6609 15.6442 17.6302 15.7487 17.5763C15.8676 17.5151 15.9564 17.4397 16.0097 17.3586C16.0492 17.2983 16.0788 17.221 16.0788 17.1095C16.0788 16.9351 16.0049 16.82 15.8781 16.7235C15.747 16.6239 15.58 16.5656 15.4649 16.5436H12.1197C11.9306 16.5436 11.754 16.4494 11.6491 16.2921C11.0173 15.3444 9.79517 14.8933 8.39542 14.7639C7.01581 14.6363 5.61139 14.8372 4.82768 15.0394C4.52523 15.1175 4.21674 14.9357 4.13869 14.6332C4.06064 14.3308 4.24247 14.0223 4.54489 13.9442Z" fill="#006DFD"/>
<path d="M1.13117 20.1796H4.0399V14.3621H1.13117V20.1796ZM5.17107 20.6643C5.17107 21.0213 4.88168 21.3107 4.52469 21.3107H0.646384C0.289396 21.3107 0 21.0213 0 20.6643V13.8773C0 13.5203 0.289396 13.2309 0.646384 13.2309H4.52469C4.88168 13.2309 5.17107 13.5203 5.17107 13.8773V20.6643Z" fill="#006DFD"/>
<path d="M12.6853 13.2309V2.56559C12.6853 2.25322 12.9385 2 13.2509 2C13.5632 2 13.8165 2.25322 13.8165 2.56559V13.2309C13.8165 13.5433 13.5632 13.7965 13.2509 13.7965C12.9385 13.7965 12.6853 13.5433 12.6853 13.2309Z" fill="#006DFD"/>
<path d="M14.9476 6.1207C14.9476 5.47335 14.2399 4.74713 13.0893 4.74713C11.9386 4.74713 11.2309 5.47335 11.2309 6.1207C11.2309 6.76805 11.9386 7.49427 13.0893 7.49427C14.6161 7.49427 16.0788 8.50444 16.0788 9.999C16.0788 11.4936 14.6161 12.5037 13.0893 12.5037C11.5625 12.5037 10.0998 11.4936 10.0998 9.999C10.0998 9.68664 10.353 9.43342 10.6653 9.43342C10.9777 9.43342 11.2309 9.68664 11.2309 9.999C11.2309 10.6464 11.9386 11.3726 13.0893 11.3726C14.2399 11.3726 14.9476 10.6464 14.9476 9.999C14.9476 9.35166 14.2399 8.62544 13.0893 8.62544C11.5625 8.62544 10.0998 7.61526 10.0998 6.1207C10.0998 4.62613 11.5625 3.61596 13.0893 3.61596C14.6161 3.61596 16.0788 4.62613 16.0788 6.1207C16.0788 6.43306 15.8256 6.68629 15.5132 6.68629C15.2009 6.68629 14.9476 6.43306 14.9476 6.1207Z" fill="#006DFD"/>
</svg>
