<svg width="45" height="45" viewBox="0 0 45 45" fill="none" xmlns="http://www.w3.org/2000/svg">
<path fill-rule="evenodd" clip-rule="evenodd" d="M39.105 1.53322C31.9072 1.81411 27.6596 3.09787 24.8235 5.84939C22.3899 8.21041 21.1391 11.5431 20.6347 17.01C20.5209 18.2438 20.4352 19.8589 20.3814 21.78C20.3534 22.7824 20.3228 23.6106 20.3134 23.6206C20.304 23.6305 20.1188 23.4689 19.9019 23.2615C18.7307 22.1415 17.8842 21.0595 17.2994 19.935C17.0052 19.3693 16.6197 19.0597 16.0597 18.9397C14.9552 18.7028 13.9209 19.8468 14.2414 20.9507C14.4019 21.5034 15.2094 22.8052 16.026 23.8277C16.5466 24.4796 17.7188 25.6813 18.3375 26.1973C19.1528 26.8774 19.9691 27.4392 20.8634 27.9358C21.7785 28.4439 22.1389 28.4311 23.1612 27.8543C25.6212 26.4665 27.8712 24.2172 29.2651 21.7525C29.6356 21.0973 29.7154 20.8467 29.6873 20.426C29.658 19.9882 29.5064 19.6588 29.2038 19.3757C28.6806 18.8864 28.0289 18.7809 27.3886 19.0818C27.0615 19.2356 26.8568 19.4493 26.6175 19.887C25.9356 21.1341 24.9724 22.3642 23.9463 23.2983L23.5655 23.645L23.5968 22.2288C23.7407 15.7328 24.3744 12.207 25.8481 9.70292C27.1529 7.48586 29.485 6.10895 33.165 5.38297C35.1762 4.98616 38.249 4.72673 40.953 4.72543C41.4867 4.7252 42.0436 4.70297 42.1905 4.67606C42.7124 4.58053 43.1391 4.24343 43.3718 3.74285C43.4708 3.52996 43.4906 3.4238 43.4906 3.10498C43.4906 2.78156 43.4712 2.68076 43.3655 2.45248C43.2031 2.10166 42.8971 1.79386 42.5524 1.63456L42.2775 1.50748L41.175 1.50145C40.5686 1.49816 39.6371 1.51243 39.105 1.53322ZM18.5175 3.06182C15.7595 3.22117 11.8484 3.598 10.8225 3.8032C8.74848 4.21801 6.80439 5.2679 5.27115 6.80114C3.73769 8.33456 2.69841 10.2574 2.27834 12.3383C2.0753 13.3441 1.74738 16.9197 1.56725 20.0925C1.49435 21.3763 1.49457 25.1176 1.56756 26.415C1.71966 29.1173 2.06459 33.0292 2.23019 33.93C2.77973 36.9194 4.56929 39.5623 7.15499 41.2032C8.6984 42.1827 10.1028 42.6566 12.1275 42.8812C17.2522 43.4496 21.3116 43.6229 24.885 43.4257C27.6659 43.2723 31.6633 42.8986 32.6475 42.7001C34.7885 42.2683 36.7047 41.233 38.267 39.6641C39.841 38.0833 40.9074 36.0332 41.2848 33.8625C41.4213 33.0774 41.7262 29.7966 41.8702 27.5625C42.1364 23.4347 42.0386 19.9068 41.511 14.596C41.3475 12.9505 41.2532 12.3228 41.0643 11.6225C40.7216 10.3519 39.9121 8.7172 39.3861 8.23367C38.9496 7.83232 38.3049 7.70969 37.741 7.92065C37.4045 8.04656 37.0317 8.38865 36.8682 8.72143C36.756 8.94989 36.7425 9.02594 36.7425 9.42748C36.7425 9.92234 36.7241 9.87329 37.2492 10.7818C37.6279 11.4372 37.9431 12.3078 38.0907 13.1063C38.2307 13.8633 38.5627 17.5785 38.7091 20.025C38.7946 21.4539 38.7814 25.3189 38.6859 26.8425C38.5464 29.0666 38.2737 32.1559 38.1338 33.0958C37.735 35.7748 35.9886 38.0178 33.4718 39.0833C32.5692 39.4654 31.938 39.5894 29.8125 39.8016C24.7026 40.312 21.4483 40.3937 17.3475 40.1147C15.7172 40.0038 12.5769 39.7077 11.88 39.5993C10.5502 39.3923 9.25194 38.8344 8.23499 38.0329C7.91499 37.7807 7.25889 37.1304 6.99681 36.8057C6.23663 35.8639 5.64429 34.5954 5.42636 33.4425C5.30522 32.8019 5.02793 29.9049 4.88505 27.7875C4.6223 23.894 4.68953 20.3308 5.10951 15.885C5.35809 13.2533 5.40467 12.9434 5.67714 12.105C6.13673 10.691 7.0653 9.38396 8.29547 8.41966C9.18624 7.72135 10.4278 7.15795 11.52 6.9563C12.5422 6.76757 16.183 6.43097 18.8325 6.28027C20.0332 6.21191 20.1929 6.18046 20.5352 5.94497C21.1576 5.5168 21.3881 4.61585 21.0527 3.92222C20.9134 3.63409 20.5692 3.30253 20.2645 3.16303C19.9615 3.02434 19.5643 3.0013 18.5175 3.06182Z" fill="#45556C"/>
</svg>
