<svg width="38" height="38" viewBox="0 0 38 38" fill="none" xmlns="http://www.w3.org/2000/svg">
<path fill-rule="evenodd" clip-rule="evenodd" d="M10.6014 1.29631C7.48643 1.5715 5.45465 3.53941 5.09357 6.63097C5.04212 7.07139 5.04212 8.24255 5.09357 8.68297C5.25587 10.0728 5.74957 11.2393 6.55825 12.1436L6.79844 12.4123L6.61943 12.499C5.97183 12.8127 5.17144 13.4037 4.53573 14.0377C3.63042 14.9405 3.16222 15.6785 2.59317 17.1C2.00417 18.5713 1.41631 20.6284 1.28278 21.6856C1.20822 22.2759 1.31785 22.9905 1.56744 23.541C2.10472 24.7261 3.19517 25.5599 4.49158 25.7769L4.76841 25.8233L4.85334 26.5061C5.19215 29.2297 5.67889 32.0864 5.93767 32.87C6.20747 33.6868 6.66008 34.4064 7.31209 35.0552C8.35108 36.0891 9.65164 36.6577 11.1511 36.7335C13.7515 36.8651 16.1292 35.2853 16.9292 32.8943C17.2008 32.0827 17.6956 29.1989 18.0219 26.525L18.1075 25.8231L18.391 25.7756C18.786 25.7095 19.1162 25.603 19.4925 25.4206C19.9268 25.21 20.2152 24.9974 20.5685 24.6275C21.0515 24.1218 21.3456 23.5983 21.5149 22.9429C21.5788 22.6953 21.5964 22.5126 21.5978 22.078C21.5996 21.5621 21.5895 21.4828 21.4397 20.8345C21.1349 19.5152 20.7315 18.2175 20.255 17.024C19.7187 15.6805 19.1609 14.8248 18.2341 13.9244C17.6823 13.3882 16.8433 12.7837 16.2563 12.4994L16.0781 12.4131L16.318 12.1441C17.3418 10.9959 17.8225 9.56226 17.8225 7.65697C17.8225 6.39317 17.6337 5.43033 17.2079 4.52368C16.6293 3.2915 15.5975 2.30076 14.3634 1.79224C13.2985 1.35346 11.9568 1.17657 10.6014 1.29631ZM27.0364 1.2968C24.6203 1.52689 22.8863 2.98712 22.3592 5.23561C22.2479 5.71035 22.1928 6.26044 22.1929 6.89697C22.1929 8.13574 22.4068 9.08311 22.8835 9.95597C23.0387 10.2401 23.4039 10.7618 23.4809 10.8094C23.5582 10.8572 23.5198 10.8961 23.2204 11.0729C22.83 11.3035 22.2214 11.7591 21.9903 11.9939C21.8901 12.0957 21.7619 12.273 21.7053 12.388C21.6141 12.5732 21.6024 12.6402 21.6028 12.977C21.6032 13.3145 21.6145 13.3782 21.7039 13.547C21.8662 13.853 22.0572 14.0452 22.3347 14.1819C22.5651 14.2953 22.6207 14.307 22.9316 14.307C23.3412 14.307 23.5343 14.2276 23.9584 13.8844C24.7205 13.2679 25.5316 12.8827 26.4815 12.6861C26.9581 12.5874 28.2007 12.5475 28.7024 12.6148C31.3765 12.9731 33.246 14.8283 33.873 17.746C33.9067 17.9027 33.9383 18.1244 33.9433 18.2386L33.9524 18.4462L33.4394 18.5123C31.3724 18.7786 28.7621 18.9075 26.6458 18.8479C25.3887 18.8124 25.2337 18.8313 24.9024 19.0594C24.4461 19.3737 24.2446 19.8397 24.3237 20.398C24.3854 20.8336 24.6527 21.1961 25.0603 21.3967C25.2812 21.5055 25.3505 21.5192 25.8277 21.5483C26.6867 21.6006 29.1526 21.5885 30.2474 21.5265C32.1877 21.4167 34.56 21.1607 35.0354 21.0099C36.0222 20.6968 36.7417 19.7358 36.7448 18.7264C36.7456 18.4564 36.6527 17.7346 36.5526 17.233C36.2467 15.7005 35.5597 14.1809 34.6629 13.053C34.0381 12.2672 33.0588 11.4189 32.2732 10.9829L32.114 10.8946L32.3241 10.6261C32.9667 9.80473 33.3235 8.85447 33.4377 7.65986C33.745 4.44662 32.2346 2.08564 29.4494 1.42547C28.8341 1.27962 27.7974 1.22433 27.0364 1.2968ZM10.5444 4.04599C9.94328 4.14182 9.42466 4.32612 9.05796 4.57419C8.4397 4.99241 8.00813 5.73322 7.83797 6.66837C7.7519 7.1415 7.75327 8.17963 7.84059 8.66071C8.04332 9.77734 8.54975 10.511 9.40441 10.9261C9.98919 11.2102 10.562 11.3216 11.4374 11.3216C12.3128 11.3216 12.8856 11.2102 13.4704 10.9261C14.3064 10.52 14.7843 9.85102 15.016 8.76277C15.1257 8.24765 15.1346 7.14652 15.0333 6.63097C14.8874 5.888 14.6077 5.31127 14.1945 4.90114C13.8457 4.55496 13.5341 4.36982 13.0152 4.20042C12.4072 4.00194 11.2673 3.93069 10.5444 4.04599ZM27.0174 4.04393C26.1401 4.19897 25.5489 4.6028 25.2275 5.26658C24.9644 5.81002 24.8483 6.62098 24.9255 7.37505C25.084 8.92249 25.8197 9.65076 27.3848 9.80945C27.8569 9.85733 28.5269 9.81271 28.9364 9.70612C29.6066 9.53174 30.1604 9.10797 30.4179 8.57255C30.6649 8.05898 30.7148 7.79073 30.7188 6.95397C30.723 6.0935 30.6732 5.80128 30.4355 5.29007C30.1508 4.67785 29.5951 4.25689 28.8414 4.08239C28.4666 3.99564 27.4161 3.97344 27.0174 4.04393ZM10.6016 14.1014C8.32296 14.3206 6.27864 15.6084 5.45545 17.3431C5.12891 18.0312 4.68488 19.2473 4.40676 20.2152C4.19305 20.9589 3.98941 21.8819 3.98941 22.1069C3.98941 22.4865 4.28337 22.8717 4.68887 23.0234C4.87412 23.0927 4.98618 23.104 5.48995 23.104C6.35088 23.104 6.61372 23.1781 6.9504 23.5159C7.27299 23.8396 7.30354 23.9501 7.46671 25.384C7.737 27.7588 8.23629 30.9526 8.47656 31.844C8.69799 32.6655 9.25438 33.3248 10.0474 33.7055C10.4798 33.913 10.7405 33.9746 11.2882 33.9986C12.2699 34.0417 13.0517 33.7443 13.6984 33.0817C14.1576 32.6113 14.3316 32.2361 14.5193 31.312C14.7989 29.9355 15.1802 27.407 15.4075 25.422C15.4613 24.9517 15.5232 24.4558 15.545 24.32C15.6171 23.8701 15.7895 23.5841 16.1296 23.3499C16.4137 23.1542 16.6618 23.1053 17.3735 23.1046C17.8879 23.1041 18.0004 23.0928 18.1859 23.0234C18.5965 22.8698 18.8854 22.487 18.8854 22.0969C18.8854 21.7147 18.4775 20.1302 18.1078 19.076C17.4881 17.3092 17.1449 16.6808 16.3923 15.9351C15.0173 14.5727 12.8468 13.8854 10.6016 14.1014Z" fill="#006DFD"/>
</svg>
