<svg width="24" height="24" viewBox="0 0 24 24" fill="none" xmlns="http://www.w3.org/2000/svg">
<g clip-path="url(#clip0_3443_109)">
<path d="M10.125 17.8125V11.8125C10.125 10.777 10.9645 9.9375 12 9.9375C13.0355 9.9375 13.875 10.777 13.875 11.8125V17.8125C13.875 18.848 13.0355 19.6875 12 19.6875C10.9645 19.6875 10.125 18.848 10.125 17.8125Z" fill="white"/>
<path d="M13.875 7.125C13.875 8.16053 13.0355 9 12 9C10.9645 9 10.125 8.16053 10.125 7.125C10.125 6.08947 10.9645 5.25 12 5.25C13.0355 5.25 13.875 6.08947 13.875 7.125Z" fill="white"/>
<path d="M21 12C21 7.02944 16.9706 3 12 3C7.02944 3 3 7.02944 3 12C3 16.9706 7.02944 21 12 21V24C5.37258 24 0 18.6274 0 12C0 5.37258 5.37258 0 12 0C18.6274 0 24 5.37258 24 12C24 18.6274 18.6274 24 12 24V21C16.9706 21 21 16.9706 21 12Z" fill="white"/>
</g>
<defs>
<clipPath id="clip0_3443_109">
<rect width="24" height="24" fill="white"/>
</clipPath>
</defs>
</svg>
