<svg width="28" height="28" viewBox="0 0 28 28" fill="none" xmlns="http://www.w3.org/2000/svg">
<path fill-rule="evenodd" clip-rule="evenodd" d="M4.70421 1.41935C4.65031 1.42501 4.47061 1.45491 4.30485 1.48577C2.82566 1.7612 1.7821 2.80305 1.48236 4.30366C1.36773 4.87757 1.37664 5.82453 1.50191 6.38406C1.8262 7.83241 2.83479 8.8181 4.29272 9.11148C4.69032 9.19148 5.26161 9.22116 5.7112 9.18515C6.76728 9.10056 7.51681 8.7822 8.14958 8.14943C8.78236 7.51666 9.10072 6.76713 9.1853 5.71105C9.25304 4.86525 9.12275 4.04093 8.81884 3.3924C8.30386 2.29348 7.30258 1.60695 5.9552 1.42898C5.75194 1.40213 4.92788 1.39577 4.70421 1.41935ZM4.91421 3.41704C4.08606 3.51022 3.62243 3.91384 3.45194 4.69006C3.39118 4.96661 3.39334 5.62979 3.45594 5.92206C3.59415 6.56737 3.94785 6.94381 4.57821 7.11657C4.87843 7.19883 5.6724 7.20687 5.97743 7.13071C6.59959 6.97542 6.97557 6.59943 7.13086 5.97727C7.20699 5.6723 7.19898 4.87833 7.11675 4.57806C7.03129 4.26605 6.93615 4.08478 6.75538 3.88954C6.5694 3.68864 6.25992 3.52683 5.93621 3.46117C5.66187 3.40556 5.19542 3.3854 4.91421 3.41704ZM4.76405 10.6144C3.39037 10.7673 2.20289 11.7286 1.76514 13.0422C1.57023 13.6269 1.58221 13.2637 1.58221 18.5921C1.58221 23.0198 1.58596 23.4139 1.63046 23.6487C1.92255 25.1905 3.13646 26.3579 4.67249 26.5744C5.03324 26.6253 5.66195 26.5929 6.00621 26.5058C6.68756 26.3333 7.26341 26.002 7.73717 25.5097C8.18761 25.0418 8.4715 24.5229 8.65742 23.8281L8.72109 23.5901L8.72963 18.7321C8.73898 13.3967 8.74523 13.6177 8.57068 13.0836C8.16476 11.8415 7.14153 10.9216 5.88615 10.6702C5.55211 10.6034 5.07614 10.5797 4.76405 10.6144ZM18.1442 10.6004C17.6841 10.6397 17.3589 10.6816 17.0654 10.7394C14.8146 11.1828 12.8854 12.5474 11.7011 14.5338C11.2512 15.2884 10.9155 16.1722 10.7396 17.0653C10.6023 17.7622 10.5982 17.8684 10.5982 20.7481V23.4501L10.6615 23.736C10.9589 25.0789 11.9047 26.0985 13.2003 26.4725C13.7146 26.6209 14.485 26.6401 14.9802 26.5168C16.363 26.1726 17.355 25.1658 17.6848 23.7721C17.7299 23.5817 17.736 23.321 17.7504 20.9861L17.7662 18.4101L17.8308 18.2673C17.9118 18.0885 18.0887 17.913 18.2677 17.8341C18.4247 17.7649 18.6821 17.7512 18.8582 17.8027C19.0268 17.852 19.2327 18.0249 19.3314 18.2001L19.4182 18.3541L19.4338 20.8881C19.4511 23.6915 19.4467 23.6211 19.6387 24.1857C20.0149 25.2919 20.9256 26.1527 22.0579 26.4724C22.4342 26.5787 22.7216 26.6093 23.1805 26.5921C24.0801 26.5583 24.8602 26.2264 25.5099 25.601C25.9988 25.1305 26.3233 24.5686 26.5098 23.8701L26.5846 23.5901L26.5943 20.9021C26.601 19.0431 26.5942 18.1061 26.5722 17.8641C26.3212 15.1049 24.6727 12.6923 22.1826 11.4396C21.3608 11.0262 20.5483 10.7781 19.6142 10.6554C19.2861 10.6123 18.3954 10.579 18.1442 10.6004ZM4.77827 12.6444C4.2134 12.7812 3.70764 13.3173 3.61428 13.8783C3.5911 14.0178 3.58455 15.3378 3.59029 18.7181L3.59821 23.3661L3.67306 23.5587C4.0977 24.6516 5.45374 24.9525 6.27118 24.135C6.4611 23.9451 6.59393 23.7284 6.68241 23.4641C6.73152 23.3174 6.73435 23.092 6.74174 18.7202C6.75031 13.6579 6.75647 13.8537 6.5768 13.4818C6.44111 13.201 6.1316 12.8927 5.85221 12.76C5.51635 12.6005 5.1309 12.559 4.77827 12.6444ZM17.9512 12.6321C17.4111 12.6885 16.765 12.8602 16.2307 13.0892C14.2317 13.946 12.8489 15.8317 12.6296 18C12.5885 18.406 12.5897 23.1586 12.6309 23.3577C12.7366 23.8682 13.1577 24.3408 13.6658 24.519C13.9285 24.6112 14.338 24.6224 14.6022 24.5446C15.1188 24.3925 15.5245 23.9921 15.6972 23.4641C15.7437 23.3219 15.7489 23.1096 15.7647 20.7061C15.7836 17.8125 15.7717 17.9914 15.9795 17.5001C16.3267 16.6792 17.0479 16.063 17.9342 15.8301C18.2174 15.7556 18.9691 15.7564 19.2642 15.8315C19.7887 15.9648 20.1996 16.1971 20.5818 16.5761C20.9871 16.9779 21.2273 17.3909 21.3719 17.9341C21.43 18.1527 21.4319 18.2205 21.4472 20.7481L21.4629 23.3381L21.5258 23.5243C21.7061 24.0576 22.1922 24.4751 22.7495 24.5752C23.5436 24.7178 24.3042 24.2416 24.5467 23.4501C24.5951 23.2921 24.5982 23.1267 24.5982 20.6921C24.5982 17.8341 24.5978 17.8264 24.4152 17.1183C23.6683 14.2214 20.9297 12.3207 17.9512 12.6321Z" fill="white"/>
</svg>
