<svg width="24" height="24" viewBox="0 0 24 24" fill="none" xmlns="http://www.w3.org/2000/svg">
<g clip-path="url(#clip0_3018_23)">
<path fill-rule="evenodd" clip-rule="evenodd" d="M17.7793 0.0173027C16.0496 0.204608 14.4918 1.19392 13.5934 2.67564C13.1998 3.32474 12.94 4.06941 12.8431 4.82596C12.7897 5.24289 12.7885 6.02096 12.8406 6.41141C12.9942 7.56339 13.3751 8.44276 14.1146 9.35342C14.929 10.3563 15.7771 11.1194 17.011 11.9591C17.5789 12.3456 17.8908 12.4579 18.3965 12.4579C18.7817 12.4579 19.1192 12.375 19.4092 12.2089C19.7333 12.0234 20.6639 11.3472 21.1224 10.9641C21.8313 10.3719 22.6797 9.44073 23.1225 8.76916C23.3157 8.47618 23.5753 7.94612 23.691 7.60869C23.793 7.31091 23.9209 6.74935 23.9683 6.39089C24.0166 6.02484 24.0082 5.10593 23.9532 4.74538C23.5817 2.31119 21.7164 0.433899 19.2884 0.0505985C18.9843 0.00259602 18.096 -0.0169958 17.7793 0.0173027ZM17.7793 1.87675C15.799 2.2013 14.4691 3.9523 14.6533 5.99237C14.7167 6.694 14.9057 7.27005 15.2396 7.77929C15.5631 8.27265 16.2961 9.06885 16.8663 9.54635C17.4356 10.0231 18.2892 10.6332 18.3868 10.6332C18.4574 10.6332 18.5448 10.5846 18.8373 10.3825C19.6668 9.80925 20.3041 9.26718 20.8248 8.69203C21.6356 7.79659 21.9064 7.32075 22.0906 6.46802C22.1694 6.10326 22.1771 5.22104 22.1046 4.86432C21.9479 4.09353 21.612 3.46808 21.0601 2.91982C20.5285 2.39174 19.9356 2.07113 19.1808 1.90359C18.9219 1.84613 18.0661 1.82973 17.7793 1.87675ZM6.56682 2.60088C5.06913 2.68495 3.45169 2.86596 2.93167 3.00768C2.68582 3.07468 2.32741 3.22501 2.09287 3.35945C1.08897 3.93494 0.378862 4.91065 0.15127 6.02728C-0.0272285 6.90298 -0.0519421 10.4169 0.099503 13.3843C0.207873 15.5075 0.42811 17.9425 0.718039 20.2234C0.871567 21.4313 1.12994 23.1924 1.17757 23.3559C1.24513 23.5877 1.44317 23.8064 1.69043 23.9223L1.83496 23.9901L8.68843 23.9969C15.5141 24.0037 15.5426 24.0035 15.7145 23.9515C15.8515 23.91 15.9189 23.8698 16.0414 23.7564C16.29 23.5263 16.3074 23.473 16.4544 22.4983C16.8052 20.1702 17.0905 17.6784 17.2542 15.5117C17.3031 14.8649 17.268 14.6906 17.0347 14.4202C16.821 14.1727 16.3756 14.0621 16.0652 14.1796C15.7918 14.283 15.5827 14.492 15.4955 14.7489C15.4716 14.8193 15.4339 15.1393 15.4016 15.5459C15.2536 17.4091 15.0406 19.3376 14.7665 21.2969L14.6469 22.1518L13.3328 22.1517L12.0187 22.1516L12.0163 21.1811C12.0136 20.0827 11.9533 18.949 11.8781 18.5817C11.7651 18.0302 11.4431 17.5117 10.9903 17.1517C10.6508 16.8819 10.3042 16.7377 9.78738 16.6513C9.25937 16.5631 8.78425 16.535 8.38572 16.5684C7.3404 16.6562 6.83805 16.8289 6.37348 17.2604C5.92297 17.6789 5.66205 18.1705 5.57871 18.7579C5.52385 19.1444 5.46723 20.3864 5.46465 21.2583L5.46203 22.1518H4.15689H2.85174L2.8386 22.0939C2.81402 21.9856 2.59643 20.393 2.50578 19.6578C2.02637 15.7697 1.82318 12.442 1.85664 9.02627C1.8731 7.34536 1.90069 6.64052 1.96084 6.36518C2.0617 5.90356 2.32851 5.46961 2.69441 5.17213C3.08304 4.8562 3.32925 4.77109 4.1564 4.66686C5.66198 4.47714 6.78448 4.41165 8.77844 4.39731C9.61295 4.39129 10.3304 4.37895 10.3729 4.36987C10.6211 4.31678 10.9061 4.05939 11.0033 3.80042C11.0811 3.5934 11.0681 3.30071 10.972 3.09422C10.8876 2.9128 10.714 2.74028 10.5199 2.645L10.3729 2.5728L8.77844 2.56951C7.72301 2.56735 6.97538 2.57794 6.56682 2.60088ZM18.0236 3.80667C17.2776 3.95608 16.7977 4.62297 16.8489 5.43907C16.876 5.87055 17.0019 6.16533 17.2778 6.44336C17.5749 6.74277 17.9407 6.8849 18.4093 6.88297C18.863 6.88112 19.1903 6.75797 19.4886 6.47697C19.8107 6.17358 19.9526 5.82537 19.9519 5.34026C19.9512 4.8411 19.83 4.52028 19.5271 4.21586C19.1522 3.83909 18.6051 3.6902 18.0236 3.80667ZM4.6061 7.80764C4.42627 7.87732 4.21722 8.07252 4.12271 8.25903C4.05425 8.39409 4.04659 8.43379 4.04659 8.65346C4.04659 8.86445 4.05595 8.91767 4.11525 9.04417C4.20284 9.23101 4.38186 9.40998 4.56874 9.49755L4.71522 9.5662H6.16821H7.6212L7.74978 9.50311C7.8205 9.46842 7.93448 9.38766 8.00309 9.32364C8.4639 8.89365 8.3488 8.13682 7.77668 7.8349L7.64691 7.76643L6.19392 7.76093C4.78774 7.75558 4.73659 7.75707 4.6061 7.80764ZM4.81667 12.5608C4.52379 12.605 4.25865 12.7988 4.12191 13.0685C4.05436 13.2019 4.04659 13.2423 4.04659 13.4614C4.04659 13.6724 4.05595 13.7256 4.11525 13.8521C4.20284 14.039 4.38186 14.2179 4.56874 14.3055L4.71522 14.3742H7.06829H9.42136L9.56974 14.3046C9.74539 14.2223 9.93667 14.0345 10.0244 13.8581C10.1174 13.6712 10.1288 13.3502 10.0501 13.1413C9.97041 12.9299 9.73672 12.6937 9.52422 12.6097L9.36992 12.5487L7.1583 12.5449C5.9419 12.5429 4.88816 12.55 4.81667 12.5608ZM8.39269 18.4134C7.73666 18.5094 7.65702 18.5369 7.53108 18.7107C7.42073 18.863 7.40579 18.9392 7.36298 19.5678C7.3191 20.2116 7.28282 21.912 7.30985 22.0561L7.32779 22.1518H8.75388H10.18V21.369C10.18 20.6225 10.1538 19.8956 10.1034 19.2422C10.0774 18.9045 10.0161 18.7422 9.8677 18.6173C9.76015 18.5268 9.69961 18.5047 9.43422 18.459C9.21665 18.4215 8.53972 18.3919 8.39269 18.4134Z" fill="currentColor"/>
</g>
<defs>
<clipPath id="clip0_3018_23">
<rect width="24" height="24" fill="white"/>
</clipPath>
</defs>
</svg>
