<svg width="45" height="45" viewBox="0 0 45 45" fill="none" xmlns="http://www.w3.org/2000/svg">
<path fill-rule="evenodd" clip-rule="evenodd" d="M15.795 1.53335C13.1332 1.58847 8.68825 1.75002 7.80751 1.82364C4.86473 2.06957 2.3936 4.20757 1.68773 7.11835C1.47938 7.97766 1.47889 8.00606 1.49698 18.3823C1.51552 29.0188 1.49747 28.2444 1.7497 29.2299C2.21014 31.0289 3.46267 32.7214 5.06251 33.7063C5.74669 34.1275 6.47308 34.4337 7.23677 34.6226C8.18704 34.8577 8.02112 34.8523 14.31 34.8523H20.1825L20.43 34.7519C20.7766 34.6114 21.115 34.3009 21.2788 33.9732C21.6595 33.2113 21.4084 32.3306 20.6792 31.8694C20.2994 31.6292 20.4807 31.636 14.3947 31.6354C9.55877 31.6349 8.6855 31.625 8.35241 31.5669C6.68966 31.277 5.3929 30.1195 4.87427 28.4623L4.74751 28.0573L4.73531 21.0486L4.72307 14.0398H20.5641H36.405V15.8079C36.405 17.2275 36.4182 17.6266 36.4719 17.8328C36.7367 18.8496 37.907 19.3469 38.8125 18.8274C39.083 18.6722 39.3554 18.3695 39.4965 18.0673L39.6225 17.7973L39.6362 13.2973C39.6525 7.92236 39.636 7.61123 39.2775 6.54734C38.9231 5.49546 38.4002 4.65491 37.5975 3.84653C36.5992 2.84123 35.4411 2.20938 34.1028 1.93983C33.5558 1.82963 33.3443 1.81271 31.5225 1.73355C26.293 1.5063 20.5997 1.43385 15.795 1.53335ZM16.245 4.75935L15.8175 4.77501L14.5029 7.7087C13.7799 9.32218 13.1753 10.6778 13.1594 10.7211C13.132 10.7955 13.2687 10.7997 15.6439 10.7984L18.1575 10.797L19.44 7.93793C20.1454 6.3654 20.7571 4.99916 20.7994 4.90182L20.8763 4.72484L18.7744 4.73424C17.6184 4.73942 16.4801 4.75072 16.245 4.75935ZM24.0846 5.47143C23.9065 5.86518 23.2968 7.22009 22.7296 8.48234L21.6982 10.7773L24.2227 10.7889C25.6112 10.7954 26.7625 10.7853 26.7811 10.7664C26.7997 10.7477 27.4213 9.41609 28.1624 7.80734L29.5099 4.88234L28.7612 4.85403C28.3494 4.83846 27.2016 4.80993 26.2104 4.79063L24.4082 4.75553L24.0846 5.47143ZM9.70871 4.9538C8.26466 5.02053 7.84409 5.05446 7.52621 5.12988C6.48226 5.37752 5.59202 6.0972 5.10481 7.08734C4.76951 7.76873 4.75633 7.8522 4.73608 9.41609L4.71812 10.7998H7.14601H9.57389L10.8918 7.86359C11.6166 6.24867 12.2176 4.91213 12.2275 4.89359C12.2522 4.84683 11.7766 4.85817 9.70871 4.9538ZM32.9241 5.18609C32.8421 5.37914 30.4228 10.6194 30.3687 10.7211C30.329 10.7957 30.4856 10.7998 33.3659 10.7998H36.405L36.4046 9.59609C36.4045 8.934 36.3833 8.26274 36.3576 8.10429C36.1885 7.06236 35.5117 6.07884 34.5825 5.52485C34.2256 5.31204 34.0251 5.23149 33.5925 5.12723C33.0753 5.00258 32.9992 5.00928 32.9241 5.18609ZM36.8219 22.3184C35.6441 22.4525 34.6334 22.9054 33.8373 23.656C33.6586 23.8245 31.6483 26.0785 29.37 28.6648C27.0916 31.2512 25.1278 33.4787 25.0059 33.6148C24.884 33.751 24.7367 33.9639 24.6786 34.0881C24.5467 34.3703 23.3561 39.9253 23.3238 40.4098C23.21 42.1181 24.8867 43.6479 26.5842 43.3846C26.9362 43.3299 32.3672 41.6412 32.7375 41.4712C32.8613 41.4143 33.0469 41.289 33.1501 41.1926C33.42 40.9405 41.9668 31.9291 42.2159 31.6341C42.9814 30.7273 43.3662 29.7204 43.4128 28.5023C43.4507 27.5077 43.2824 26.6867 42.8582 25.7982C42.1027 24.2156 40.6858 23.014 38.9992 22.5255C38.3105 22.326 37.4635 22.2455 36.8219 22.3184ZM10.415 24.6131C9.94114 24.6856 9.55549 24.9413 9.29246 25.3573C9.09815 25.6647 9.0284 25.947 9.055 26.3184C9.09622 26.8949 9.46139 27.4232 9.98992 27.6712L10.2375 27.7873H12.915H15.5925L15.8401 27.6712C16.1565 27.5227 16.4979 27.1814 16.6464 26.8649C16.7457 26.6532 16.7625 26.5555 16.7625 26.1898C16.7625 25.8054 16.7491 25.7359 16.6293 25.4995C16.4609 25.167 16.0994 24.8331 15.7611 24.6975C15.5032 24.5941 15.4958 24.5938 13.0725 24.5861C11.736 24.5818 10.5401 24.594 10.415 24.6131ZM36.8213 25.5844C36.491 25.6733 36.274 25.7925 36.0317 26.0181C35.9169 26.1249 33.9746 28.3122 31.7153 30.8787L27.6075 35.5452L27.1397 37.7535C26.8825 38.9681 26.6829 39.9727 26.6962 39.986C26.7094 39.9993 27.7198 39.6965 28.9414 39.313L31.1625 38.6158L31.4325 38.3254C31.581 38.1656 33.525 36.1178 35.7525 33.7747C37.98 31.4316 39.8548 29.4367 39.9187 29.3417C40.0948 29.0796 40.2011 28.6891 40.2008 28.3048C40.2004 27.8758 40.1262 27.5595 39.9262 27.1348C39.7265 26.7109 39.1462 26.1095 38.6955 25.8594C38.135 25.5485 37.371 25.4364 36.8213 25.5844Z" fill="#45556C"/>
</svg>
