<svg width="250" height="250" viewBox="0 0 250 250" fill="none" xmlns="http://www.w3.org/2000/svg">
<path d="M211.041 97.6387C209.965 97.6387 209.069 96.7651 209.069 95.686C209.069 94.6064 209.923 93.7329 211.002 93.7329H211.041C212.12 93.7329 212.994 94.6064 212.994 95.686C212.994 95.9425 212.943 96.1966 212.845 96.4335C212.747 96.6705 212.603 96.8859 212.422 97.0672C212.24 97.2486 212.025 97.3924 211.788 97.4904C211.551 97.5885 211.297 97.6389 211.041 97.6387ZM177.728 105.45C176.648 105.45 175.774 104.577 175.774 103.497V94.2783C175.774 87.9697 179.817 85.9253 183.956 84.377C186.431 83.4502 189.643 82.2217 192.538 80.8984C193.514 80.4404 194.678 80.8794 195.124 81.8594C195.231 82.0922 195.291 82.3439 195.301 82.6C195.31 82.8561 195.269 83.1116 195.18 83.3518C195.091 83.5921 194.955 83.8123 194.78 83.9999C194.606 84.1876 194.396 84.3389 194.163 84.4453C191.157 85.8262 187.858 87.0884 185.325 88.0347C180.839 89.7129 179.68 90.9981 179.68 94.2783V103.497C179.68 103.754 179.63 104.008 179.532 104.245C179.434 104.482 179.29 104.697 179.109 104.878C178.927 105.06 178.712 105.204 178.475 105.302C178.238 105.4 177.984 105.45 177.728 105.45ZM244.125 105.45C243.868 105.45 243.614 105.4 243.377 105.302C243.141 105.204 242.925 105.06 242.744 104.878C242.562 104.697 242.419 104.482 242.321 104.245C242.223 104.008 242.172 103.754 242.172 103.497V94.2783C242.172 90.9981 241.009 89.7124 236.524 88.0308C235.211 87.5464 231.207 86.0547 227.705 84.4453C227.472 84.3384 227.262 84.1866 227.087 83.9986C226.913 83.8106 226.777 83.59 226.688 83.3496C226.599 83.1091 226.558 82.8533 226.567 82.597C226.577 82.3406 226.637 82.0886 226.744 81.8555C227.198 80.8789 228.357 80.4404 229.333 80.8984C232.705 82.4468 236.607 83.8965 237.889 84.3731C242.035 85.9253 246.078 87.9697 246.078 94.2783V103.497C246.078 103.754 246.028 104.008 245.93 104.245C245.832 104.482 245.688 104.697 245.506 104.879C245.325 105.06 245.11 105.204 244.873 105.302C244.636 105.4 244.382 105.45 244.125 105.45ZM186.027 58.4175C185.691 58.4175 185.352 58.3296 185.051 58.1582C184.754 57.9859 184.508 57.7388 184.337 57.4417C184.165 57.1446 184.075 56.8078 184.074 56.4648C184.07 43.0693 190.432 36.6006 194.075 33.9951L192.999 32.9995C192.755 32.774 192.573 32.4899 192.469 32.1741C192.366 31.8584 192.345 31.5215 192.408 31.1953C192.472 30.8694 192.617 30.5651 192.83 30.3108C193.044 30.0566 193.318 29.8609 193.628 29.7422C193.968 29.6123 201.981 26.5913 210.674 26.5913C217.864 26.5913 223.406 28.6396 227.155 32.6748C231.301 37.145 233.067 43.938 232.399 52.8672C232.371 53.258 232.226 53.6313 231.983 53.9382C231.739 54.2451 231.408 54.4714 231.034 54.5874C230.271 54.8164 229.439 54.5762 228.933 53.9468L223.577 47.3101C206.909 46.6958 187.197 58.043 187.007 58.1538C186.702 58.3296 186.367 58.4175 186.027 58.4175ZM198.107 32.4043L198.641 32.8965C198.88 33.1178 199.059 33.3952 199.163 33.7036C199.267 34.012 199.292 34.3415 199.236 34.6621C199.181 34.9828 199.047 35.2848 198.846 35.5406C198.645 35.7964 198.383 35.9979 198.084 36.127C197.71 36.291 189.384 40.1318 188.137 53.1113C194.694 49.7588 210.507 42.6108 224.662 43.4502C224.934 43.4653 225.199 43.5376 225.441 43.6625C225.683 43.7874 225.896 43.962 226.065 44.1748L228.579 47.2871C228.293 42.1035 226.859 38.0947 224.292 35.3335C221.313 32.126 216.732 30.4971 210.675 30.4971C205.8 30.4971 201.066 31.5654 198.107 32.4043Z" fill="#006DFD"/>
<path d="M210.926 85.9214C201.94 85.9214 189.445 72.2627 189.445 58.8179C189.445 57.7383 190.318 56.8647 191.398 56.8647C192.478 56.8647 193.351 57.7383 193.351 58.8179C193.351 70.5542 204.469 82.0156 210.926 82.0156C217.38 82.0156 228.502 70.5537 228.502 58.8179C228.502 57.7383 229.375 56.8647 230.455 56.8647C231.535 56.8647 232.408 57.7383 232.408 58.8179C232.408 72.2627 219.909 85.9214 210.926 85.9214ZM177.728 249.961C176.648 249.961 175.774 249.087 175.774 248.008V111.309C175.774 110.229 176.648 109.355 177.728 109.355C177.984 109.355 178.238 109.406 178.475 109.504C178.712 109.602 178.927 109.746 179.109 109.927C179.29 110.109 179.434 110.324 179.532 110.561C179.63 110.798 179.68 111.052 179.68 111.309V248.008C179.68 249.087 178.807 249.961 177.728 249.961ZM244.125 249.961C243.868 249.961 243.614 249.911 243.378 249.813C243.141 249.714 242.925 249.571 242.744 249.389C242.562 249.208 242.419 248.992 242.321 248.755C242.223 248.518 242.172 248.264 242.172 248.008V111.309C242.172 110.229 243.046 109.355 244.125 109.355C245.205 109.355 246.078 110.229 246.078 111.309V248.008C246.078 249.087 245.205 249.961 244.125 249.961Z" fill="#006DFD"/>
<path d="M191.397 60.7705C190.318 60.7705 189.444 59.897 189.444 58.8179V53.6992C189.444 52.6201 190.318 51.7466 191.397 51.7466C192.477 51.7466 193.35 52.6201 193.35 53.6992V58.8179C193.35 59.0743 193.3 59.3283 193.202 59.5653C193.104 59.8022 192.96 60.0175 192.778 60.1989C192.597 60.3802 192.382 60.5241 192.145 60.6221C191.908 60.7202 191.654 60.7706 191.397 60.7705ZM230.455 60.7705C230.199 60.7706 229.945 60.7202 229.708 60.6221C229.471 60.5241 229.255 60.3802 229.074 60.1989C228.893 60.0175 228.749 59.8022 228.651 59.5653C228.553 59.3283 228.502 59.0743 228.502 58.8179V52.7227C228.502 51.6436 229.375 50.7695 230.455 50.7695C231.535 50.7695 232.408 51.6431 232.408 52.7227V58.8179C232.408 59.0743 232.357 59.3283 232.259 59.5653C232.161 59.8022 232.017 60.0175 231.836 60.1989C231.655 60.3802 231.439 60.5241 231.202 60.6221C230.966 60.7202 230.712 60.7706 230.455 60.7705ZM205.068 93.7329C204.811 93.7332 204.557 93.6828 204.32 93.5847C204.083 93.4865 203.868 93.3426 203.687 93.1611L195.875 85.3496C195.689 85.1694 195.54 84.9539 195.438 84.7156C195.335 84.4773 195.282 84.2211 195.279 83.9617C195.277 83.7024 195.326 83.4452 195.425 83.2052C195.523 82.9651 195.668 82.7471 195.851 82.5637C196.035 82.3803 196.253 82.2353 196.493 82.1371C196.733 82.0389 196.99 81.9894 197.249 81.9917C197.509 81.9939 197.765 82.0478 198.003 82.1502C198.242 82.2526 198.457 82.4013 198.637 82.5879L206.449 90.3994C206.722 90.6726 206.907 91.0205 206.983 91.3993C207.058 91.778 207.019 92.1705 206.871 92.5272C206.724 92.884 206.473 93.1889 206.152 93.4035C205.831 93.6181 205.454 93.7327 205.068 93.7329Z" fill="#006DFD"/>
<path d="M205.068 93.733C204.747 93.7335 204.43 93.6543 204.146 93.5026C203.863 93.3508 203.621 93.1312 203.443 92.8633C203.301 92.6501 203.202 92.4108 203.152 92.1592C203.102 91.9075 203.102 91.6485 203.152 91.397C203.202 91.1454 203.302 90.9063 203.445 90.6932C203.588 90.4801 203.771 90.2974 203.985 90.1553L209.844 86.2496C210.275 85.9742 210.796 85.8788 211.297 85.9839C211.797 86.089 212.237 86.3863 212.52 86.8119C212.804 87.2374 212.91 87.7573 212.814 88.2597C212.719 88.7622 212.43 89.2072 212.01 89.4991L206.152 93.4048C205.831 93.6184 205.454 93.7325 205.068 93.733ZM216.786 93.733C216.399 93.7328 216.022 93.6182 215.701 93.4036C215.38 93.189 215.13 92.884 214.982 92.5273C214.834 92.1706 214.796 91.778 214.871 91.3993C214.946 91.0206 215.132 90.6726 215.405 90.3995L223.216 82.588C223.585 82.2349 224.078 82.0404 224.588 82.046C225.099 82.0516 225.587 82.257 225.948 82.6181C226.309 82.9792 226.514 83.4673 226.52 83.9778C226.525 84.4884 226.331 84.9808 225.977 85.3497L218.166 93.1612C217.985 93.3426 217.77 93.4865 217.533 93.5847C217.296 93.6828 217.042 93.7332 216.786 93.733Z" fill="#006DFD"/>
<path d="M216.782 93.7327C216.397 93.7323 216.022 93.6181 215.702 93.4046L209.844 89.4988C209.63 89.3569 209.447 89.1741 209.304 88.961C209.161 88.748 209.061 88.5088 209.011 88.2572C208.961 88.0057 208.96 87.7466 209.01 87.495C209.06 87.2434 209.16 87.0041 209.302 86.7908C209.444 86.5773 209.627 86.394 209.84 86.2512C210.053 86.1084 210.293 86.0091 210.544 85.9588C210.796 85.9085 211.054 85.9083 211.306 85.9581C211.558 86.008 211.797 86.1069 212.01 86.2493L217.869 90.1551C218.217 90.3879 218.482 90.7267 218.623 91.1215C218.765 91.5163 218.775 91.9461 218.653 92.3474C218.531 92.7486 218.284 93.0999 217.946 93.3494C217.609 93.5989 217.201 93.7333 216.782 93.7327ZM244.126 113.262H177.728C176.648 113.262 175.775 112.388 175.775 111.308C175.775 110.229 176.648 109.355 177.728 109.355H244.125C245.205 109.355 246.078 110.229 246.078 111.308C246.078 112.388 245.205 113.262 244.126 113.262ZM99.6133 249.961C98.5337 249.961 97.6602 249.087 97.6602 248.008V154.27C97.6602 153.19 98.5337 152.317 99.6133 152.317C99.8698 152.317 100.124 152.367 100.361 152.465C100.598 152.563 100.813 152.707 100.994 152.889C101.176 153.07 101.32 153.285 101.418 153.522C101.516 153.759 101.566 154.013 101.566 154.27V248.008C101.566 249.087 100.692 249.961 99.6133 249.961ZM166.01 249.961C165.754 249.961 165.5 249.91 165.263 249.812C165.026 249.714 164.81 249.57 164.629 249.389C164.448 249.208 164.304 248.992 164.206 248.755C164.108 248.518 164.057 248.264 164.058 248.008V154.27C164.058 153.19 164.931 152.317 166.01 152.317C167.09 152.317 167.963 153.19 167.963 154.27V248.008C167.963 249.087 167.09 249.961 166.01 249.961Z" fill="#006DFD"/>
<path d="M166.01 156.223H99.6128C98.5332 156.223 97.6597 155.35 97.6597 154.27C97.6597 153.19 98.5332 152.317 99.6128 152.317H166.01C167.089 152.317 167.963 153.19 167.963 154.27C167.963 155.35 167.089 156.223 166.01 156.223ZM21.498 249.961C20.4185 249.961 19.5449 249.087 19.5449 248.008V201.139C19.5448 200.883 19.5952 200.629 19.6933 200.392C19.7915 200.155 19.9353 199.939 20.1167 199.758C20.2981 199.577 20.5135 199.433 20.7505 199.335C20.9875 199.237 21.2415 199.186 21.498 199.187C21.7545 199.186 22.0085 199.237 22.2454 199.335C22.4824 199.433 22.6977 199.577 22.8791 199.758C23.0604 199.939 23.2042 200.155 23.3023 200.392C23.4004 200.629 23.4508 200.883 23.4507 201.139V248.008C23.4507 249.087 22.5771 249.961 21.498 249.961ZM87.8955 249.961C86.8159 249.961 85.9424 249.087 85.9424 248.008V201.139C85.9423 200.883 85.9927 200.629 86.0908 200.392C86.1889 200.155 86.3328 199.939 86.5142 199.758C86.6956 199.577 86.9109 199.433 87.148 199.335C87.385 199.237 87.639 199.186 87.8955 199.187C88.152 199.186 88.4059 199.237 88.6429 199.335C88.8799 199.433 89.0952 199.577 89.2765 199.758C89.4579 199.939 89.6017 200.155 89.6998 200.392C89.7979 200.629 89.8483 200.883 89.8482 201.139V248.008C89.8482 249.087 88.9751 249.961 87.8955 249.961Z" fill="#006DFD"/>
<path d="M123.045 97.6386C122.545 97.638 122.063 97.4451 121.701 97.0998C121.338 96.7544 121.122 96.283 121.098 95.783C121.073 95.2829 121.241 94.7925 121.568 94.413C121.894 94.0335 122.354 93.794 122.852 93.744L161.91 89.8383C163.013 89.7352 163.939 90.5135 164.046 91.5853C164.097 92.1001 163.942 92.6142 163.615 93.0147C163.287 93.4152 162.814 93.6693 162.299 93.7211L123.242 97.6268C123.175 97.6346 123.11 97.6386 123.045 97.6386ZM13.6883 175.751C13.3335 175.752 12.9853 175.655 12.6812 175.472C12.3771 175.289 12.1285 175.027 11.9622 174.714C11.8416 174.487 11.7669 174.24 11.7422 173.984C11.7176 173.729 11.7436 173.472 11.8187 173.226C11.8938 172.981 12.0166 172.753 12.18 172.556C12.3434 172.358 12.5441 172.194 12.7708 172.075L137.754 105.679C138.701 105.163 139.887 105.537 140.394 106.487C140.514 106.713 140.589 106.961 140.614 107.217C140.638 107.472 140.612 107.729 140.537 107.975C140.462 108.22 140.339 108.448 140.176 108.645C140.013 108.843 139.812 109.006 139.585 109.126L14.6019 175.523C14.3209 175.673 14.007 175.752 13.6883 175.751ZM5.87678 160.128C5.50146 160.129 5.13389 160.022 4.81824 159.819C4.50259 159.616 4.25231 159.326 4.09748 158.984C3.99116 158.75 3.93189 158.498 3.92304 158.242C3.91419 157.986 3.95594 157.73 4.04591 157.49C4.13588 157.25 4.2723 157.03 4.44737 156.842C4.62245 156.655 4.83274 156.504 5.06623 156.398L133.955 97.8138C134.943 97.3715 136.099 97.8026 136.541 98.7826C136.756 99.254 136.774 99.7911 136.592 100.276C136.411 100.761 136.044 101.154 135.573 101.369L6.68342 159.953C6.42994 160.068 6.15502 160.128 5.87678 160.128Z" fill="#006DFD"/>
<path d="M13.6864 175.751C13.4763 175.752 13.2675 175.718 13.0682 175.652C12.5772 175.487 12.1716 175.134 11.9403 174.671C11.709 174.208 11.6709 173.672 11.8343 173.18L15.7401 161.463C15.821 161.22 15.9491 160.995 16.1171 160.801C16.285 160.607 16.4895 160.448 16.7189 160.333C16.9482 160.219 17.1979 160.15 17.4538 160.132C17.7096 160.114 17.9665 160.146 18.2098 160.227C18.7008 160.392 19.1064 160.745 19.3377 161.208C19.569 161.671 19.6071 162.207 19.4437 162.699L15.5379 174.416C15.4084 174.804 15.1599 175.142 14.8276 175.382C14.4953 175.622 14.0961 175.751 13.6864 175.751Z" fill="#006DFD"/>
<path d="M17.5919 164.034C17.3819 164.034 17.1731 164.001 16.9738 163.935L5.25649 160.029C4.76546 159.864 4.35981 159.512 4.12857 159.048C3.89732 158.585 3.85939 158.049 4.0231 157.557C4.10298 157.313 4.23047 157.087 4.39817 156.893C4.56588 156.698 4.77048 156.539 5.00015 156.424C5.22982 156.309 5.47999 156.241 5.7362 156.223C5.99241 156.206 6.24958 156.239 6.49282 156.321L18.2101 160.227C18.7011 160.392 19.1067 160.745 19.338 161.208C19.5693 161.671 19.6074 162.207 19.444 162.699C19.3141 163.087 19.0655 163.425 18.7331 163.665C18.4008 163.904 18.0016 164.033 17.5919 164.034ZM37.1208 249.961C36.0412 249.961 35.1676 249.087 35.1676 248.007V232.384C35.1675 232.128 35.2179 231.874 35.316 231.637C35.4142 231.4 35.558 231.185 35.7394 231.003C35.9208 230.822 36.1362 230.678 36.3732 230.58C36.6102 230.482 36.8643 230.432 37.1208 230.432C37.3772 230.432 37.6312 230.482 37.8681 230.58C38.1051 230.678 38.3204 230.822 38.5018 231.003C38.6831 231.185 38.8269 231.4 38.925 231.637C39.0231 231.874 39.0735 232.128 39.0734 232.384V248.007C39.0734 249.087 38.1999 249.961 37.1208 249.961ZM72.2721 226.526C72.0157 226.526 71.7617 226.476 71.5247 226.378C71.2878 226.28 71.0725 226.136 70.8911 225.954C70.7098 225.773 70.5659 225.558 70.4679 225.321C70.3698 225.084 70.3194 224.83 70.3195 224.573V201.146C70.3194 200.89 70.3698 200.636 70.4679 200.399C70.5659 200.162 70.7098 199.946 70.8911 199.765C71.0725 199.584 71.2878 199.44 71.5247 199.342C71.7617 199.244 72.0157 199.193 72.2721 199.193C73.3517 199.193 74.2253 200.067 74.2253 201.146V224.573C74.2254 224.83 74.1749 225.084 74.0768 225.321C73.9787 225.558 73.8348 225.773 73.6535 225.955C73.4721 226.136 73.2567 226.28 73.0197 226.378C72.7826 226.476 72.5286 226.526 72.2721 226.526Z" fill="#006DFD"/>
<path d="M119.141 191.375C118.885 191.375 118.631 191.325 118.394 191.227C118.157 191.128 117.941 190.985 117.76 190.803C117.579 190.622 117.435 190.406 117.337 190.169C117.239 189.932 117.188 189.678 117.188 189.422V154.274C117.188 153.195 118.062 152.321 119.141 152.321C120.221 152.321 121.094 153.195 121.094 154.274V189.422C121.094 190.501 120.221 191.375 119.141 191.375Z" fill="#006DFD"/>
<path d="M150.387 249.961C149.307 249.961 148.434 249.087 148.434 248.008V205.045C148.434 203.965 149.307 203.092 150.387 203.092C150.643 203.092 150.897 203.142 151.134 203.24C151.371 203.338 151.587 203.482 151.768 203.664C151.949 203.845 152.093 204.06 152.191 204.297C152.289 204.534 152.34 204.788 152.339 205.045V248.008C152.339 249.087 151.466 249.961 150.387 249.961Z" fill="#006DFD"/>
<path d="M197.255 249.961C196.999 249.961 196.745 249.911 196.508 249.813C196.271 249.714 196.056 249.571 195.874 249.389C195.693 249.208 195.549 248.992 195.451 248.755C195.353 248.518 195.303 248.264 195.303 248.008V177.705C195.303 176.625 196.176 175.752 197.255 175.752C198.335 175.752 199.209 176.625 199.209 177.705V248.008C199.209 249.087 198.335 249.961 197.255 249.961Z" fill="#006DFD"/>
<path d="M228.521 164.034C227.442 164.034 226.568 163.161 226.568 162.082V111.309C226.568 110.229 227.442 109.355 228.521 109.355C228.778 109.355 229.032 109.406 229.269 109.504C229.506 109.602 229.721 109.746 229.903 109.927C230.084 110.109 230.228 110.324 230.326 110.561C230.424 110.798 230.474 111.052 230.474 111.309V162.082C230.474 162.338 230.424 162.592 230.326 162.829C230.228 163.066 230.084 163.281 229.902 163.463C229.721 163.644 229.506 163.788 229.269 163.886C229.032 163.984 228.778 164.034 228.521 164.034Z" fill="#006DFD"/>
</svg>
