<svg width="38" height="38" viewBox="0 0 38 38" fill="none" xmlns="http://www.w3.org/2000/svg">
<path fill-rule="evenodd" clip-rule="evenodd" d="M17.8974 1.29418C14.6195 1.5367 12.1307 2.86096 10.5816 5.18683C9.9394 6.15115 9.49316 7.26265 9.23336 8.545C9.17252 8.84543 9.11556 9.09839 9.10678 9.10717C9.098 9.11595 8.84503 9.17291 8.54461 9.23375C5.3865 9.87356 3.09981 11.7482 1.9974 14.6012C1.21855 16.6168 1.03653 19.3682 1.52289 21.7738C1.93663 23.8201 2.96833 25.6312 4.40701 26.8368C5.5575 27.8008 6.92261 28.4373 8.54461 28.7659C8.84503 28.8267 9.098 28.8837 9.10678 28.8925C9.11556 28.9013 9.17252 29.1542 9.23336 29.4547C9.9986 33.2319 12.5452 35.7596 16.3261 36.4945C17.2501 36.6741 17.8296 36.7238 18.9994 36.7238C20.1693 36.7238 20.7487 36.6741 21.6727 36.4945C23.7846 36.084 25.6064 35.0601 26.8364 33.5922C27.7988 32.4437 28.4375 31.0739 28.7655 29.4547C28.8263 29.1542 28.8833 28.9013 28.8921 28.8925C28.9009 28.8837 29.1538 28.8267 29.4543 28.7659C33.2305 28.0009 35.7594 25.4529 36.4941 21.6731C36.6737 20.7491 36.7234 20.1697 36.7234 18.9998C36.7234 17.83 36.6737 17.2505 36.4941 16.3265C36.0836 14.2146 35.059 12.3917 33.5919 11.1631C32.4365 10.1956 31.0801 9.56314 29.4543 9.23375C29.1538 9.17291 28.9009 9.11595 28.8921 9.10717C28.8833 9.09839 28.8263 8.84543 28.7655 8.545C27.8184 3.87005 24.2227 1.21343 18.9044 1.25938C18.57 1.26226 18.1169 1.27792 17.8974 1.29418ZM18.0304 4.01221C17.9677 4.0208 17.754 4.04626 17.5554 4.06887C15.4169 4.31214 13.784 5.2455 12.7935 6.79081C12.6008 7.09142 12.3291 7.66378 12.184 8.07483C12.1037 8.30222 11.9314 8.89711 11.9314 8.94693C11.9314 8.9671 12.1203 8.99028 12.7294 9.04497C14.3064 9.18644 15.8011 9.64252 17.0044 10.3493C17.6388 10.7219 18.3682 11.2924 18.7825 11.7398L18.9994 11.9742L19.2164 11.7398C19.6307 11.2924 20.36 10.7219 20.9944 10.3493C22.1978 9.64252 23.6924 9.18644 25.2694 9.04497C25.8785 8.99028 26.0674 8.9671 26.0674 8.94693C26.0674 8.89711 25.8951 8.30222 25.8149 8.07483C25.4743 7.11008 25.001 6.36904 24.3051 5.71058C23.3902 4.84502 22.2112 4.3292 20.5764 4.07924C20.2155 4.02407 18.3109 3.97394 18.0304 4.01221ZM11.7197 12.088C11.8348 13.7812 12.2805 15.1325 13.0686 16.1778C13.3766 16.5863 13.9349 17.1143 14.3564 17.3956L14.7104 17.6318H16.1709H17.6314V16.1713V14.7108L17.3952 14.3568C17.1139 13.9353 16.5859 13.377 16.1774 13.069C15.1321 12.2809 13.7809 11.8352 12.0877 11.7201L11.6929 11.6933L11.7197 12.088ZM25.7634 11.7287C24.0392 11.894 22.8385 12.3022 21.8214 13.069C21.413 13.377 20.885 13.9353 20.6037 14.3568L20.3674 14.7108V16.1713V17.6318H21.8279H23.2885L23.6424 17.3956C24.0639 17.1143 24.6223 16.5863 24.9302 16.1778C25.716 15.1356 26.1643 13.7777 26.2788 12.0933L26.3052 11.7038L26.1008 11.7099C25.9884 11.7133 25.8366 11.7217 25.7634 11.7287ZM8.68243 11.9943C7.34901 12.3768 6.4939 12.8658 5.71019 13.6942C4.82121 14.6338 4.2815 15.9023 4.05897 17.5748C3.99126 18.0841 3.99126 19.9156 4.05897 20.4248C4.2815 22.0974 4.82121 23.3658 5.71019 24.3055C6.36865 25.0014 7.10969 25.4746 8.07443 25.8153C8.30182 25.8955 8.89671 26.0678 8.94653 26.0678C8.96671 26.0678 8.98989 25.8789 9.04457 25.2698C9.18605 23.6928 9.64212 22.1982 10.3489 20.9948C10.7215 20.3604 11.292 19.6311 11.7394 19.2168L11.9738 18.9998L11.7394 18.7829C11.292 18.3686 10.7215 17.6392 10.3489 17.0048C9.64212 15.8015 9.18605 14.3068 9.04457 12.7298C8.98035 12.0145 8.96709 11.9314 8.91761 11.9358C8.89276 11.9379 8.78693 11.9643 8.68243 11.9943ZM29.0165 12.0933C29.0057 12.1821 28.9777 12.4686 28.9543 12.7298C28.8128 14.3068 28.3567 15.8015 27.6499 17.0048C27.2773 17.6392 26.7069 18.3686 26.2594 18.7829L26.0251 18.9998L26.2594 19.2168C27.0023 19.9046 27.7838 21.0679 28.2 22.1055C28.6705 23.2786 28.8668 24.192 29.0087 25.8702C29.0163 25.9601 29.0308 26.0419 29.0409 26.052C29.0643 26.0753 29.5766 25.9381 29.9244 25.8153C32.2489 24.9946 33.5674 23.2246 33.9399 20.4248C34.0076 19.9156 34.0076 18.0841 33.9399 17.5748C33.7174 15.9023 33.1777 14.6338 32.2887 13.6942C31.6302 12.9982 30.8892 12.525 29.9244 12.1844C29.697 12.1041 29.1021 11.9318 29.0523 11.9318C29.0434 11.9318 29.0273 12.0045 29.0165 12.0933ZM14.3564 20.6041C13.9349 20.8854 13.3766 21.4134 13.0686 21.8218C12.2805 22.8672 11.8348 24.2184 11.7197 25.9116L11.6929 26.3064L12.0877 26.2795C13.7779 26.1647 15.1339 25.7174 16.1774 24.9306C16.5859 24.6227 17.1139 24.0643 17.3952 23.6428L17.6314 23.2888V21.8283V20.3678H16.1709H14.7104L14.3564 20.6041ZM20.3674 21.8283V23.2888L20.6037 23.6428C20.885 24.0643 21.413 24.6227 21.8214 24.9306C22.8668 25.7188 24.218 26.1644 25.9112 26.2795L26.306 26.3064L26.2791 25.9116C26.164 24.2184 25.7184 22.8672 24.9302 21.8218C24.6223 21.4134 24.0639 20.8854 23.6424 20.6041L23.2885 20.3678H21.8279H20.3674V21.8283ZM18.7739 26.2637C18.3869 26.6926 17.6448 27.2742 17.0044 27.6503C15.8011 28.3571 14.3064 28.8132 12.7294 28.9547C12.1203 29.0094 11.9314 29.0325 11.9314 29.0527C11.9314 29.1025 12.1037 29.6974 12.184 29.9248C12.9186 32.0055 14.4646 33.3189 16.7384 33.7944C17.527 33.9592 17.8903 33.9908 18.9994 33.9908C20.1086 33.9908 20.4718 33.9592 21.2604 33.7944C23.0118 33.4282 24.3413 32.5568 25.2054 31.2088C25.3981 30.9082 25.6698 30.3359 25.8149 29.9248C25.8951 29.6974 26.0674 29.1025 26.0674 29.0527C26.0674 29.0325 25.8785 29.0094 25.2694 28.9547C23.6924 28.8132 22.1978 28.3571 20.9944 27.6503C20.3612 27.2784 19.6307 26.7073 19.2184 26.262C19.1002 26.1343 18.9983 26.0309 18.9919 26.0323C18.9856 26.0336 18.8875 26.1377 18.7739 26.2637Z" fill="#006DFD"/>
</svg>
