<svg width="38" height="38" viewBox="0 0 38 38" fill="none" xmlns="http://www.w3.org/2000/svg">
<path d="M14.1729 3.61734C16.1845 3.61736 18.1662 3.80113 20.1357 4.01773V4.01871C21.2119 4.14275 22.2141 4.62633 22.9785 5.39078C23.7428 6.1551 24.2243 7.15492 24.3457 8.22672C24.5552 10.1775 24.7275 12.1474 24.7275 14.1437C24.7275 16.1398 24.5551 18.1092 24.3457 20.0578C24.2244 21.1299 23.743 22.1302 22.9785 22.8947C22.2617 23.6115 21.3358 24.0813 20.3359 24.2394L20.1357 24.2668C18.1698 24.4868 16.1854 24.6701 14.1729 24.6701C12.1602 24.6701 10.1771 24.4869 8.20898 24.2668H8.20996C7.1338 24.1428 6.13171 23.6591 5.36719 22.8947C4.6027 22.1302 4.12035 21.1299 3.99902 20.0578C3.7896 18.1092 3.6172 16.1416 3.61719 14.1437C3.61719 12.1438 3.78933 10.1713 3.99902 8.22281C4.12153 7.15308 4.6042 6.15574 5.36719 5.39273C6.13156 4.62843 7.13302 4.14376 8.20898 4.01968C10.1751 3.79957 12.1601 3.61734 14.1729 3.61734Z" stroke="#324158" stroke-width="2" stroke-linecap="round" stroke-linejoin="round"/>
<mask id="path-2-inside-1_4032_277" fill="white">
<path d="M12.832 30.7814C13.0973 31.7336 13.6046 32.6074 14.3115 33.3144C15.2359 34.2386 16.4469 34.8234 17.7472 34.9731C19.7254 35.1944 21.7536 35.3827 23.8243 35.3827C25.8951 35.3827 27.9252 35.1944 29.9014 34.9731C31.2017 34.8234 32.4128 34.2386 33.3372 33.3144C34.2615 32.3899 34.8447 31.1804 34.9914 29.8831C35.2023 27.9228 35.3798 25.9089 35.3798 23.8563C35.3798 21.8037 35.2023 19.7899 34.9914 17.8276C34.8447 16.5303 34.2615 15.3208 33.3372 14.3965C32.5909 13.6501 31.6576 13.1252 30.6414 12.8719"/>
</mask>
<path d="M14.7587 30.2447C14.4623 29.1807 13.3594 28.5584 12.2953 28.8548C11.2313 29.1512 10.609 30.254 10.9054 31.3181L12.832 30.7814L14.7587 30.2447ZM14.3115 33.3144L12.8973 34.7286L12.8974 34.7287L14.3115 33.3144ZM17.7472 34.9731L17.5184 36.96L17.5248 36.9607L17.7472 34.9731ZM29.9014 34.9731L30.124 36.9607L30.1302 36.96L29.9014 34.9731ZM33.3372 33.3144L34.7513 34.7288L34.7516 34.7284L33.3372 33.3144ZM34.9914 29.8831L36.9788 30.1079L36.9799 30.0971L34.9914 29.8831ZM34.9914 17.8276L36.98 17.6138L36.9787 17.6029L34.9914 17.8276ZM33.3372 14.3965L34.7515 12.9824L34.7515 12.9823L33.3372 14.3965ZM31.1252 10.9313C30.0534 10.6641 28.968 11.3164 28.7008 12.3881C28.4336 13.4599 29.0859 14.5453 30.1577 14.8125L30.6414 12.8719L31.1252 10.9313ZM12.832 30.7814L10.9054 31.3181C11.2626 32.6006 11.9458 33.777 12.8973 34.7286L14.3115 33.3144L15.7258 31.9002C15.2634 31.4378 14.9319 30.8667 14.7587 30.2447L12.832 30.7814ZM14.3115 33.3144L12.8974 34.7287C14.1413 35.9725 15.7703 36.7587 17.5184 36.96L17.7472 34.9731L17.9759 32.9862C17.1235 32.8881 16.3304 32.5048 15.7257 31.9001L14.3115 33.3144ZM17.7472 34.9731L17.5248 36.9607C19.5217 37.1841 21.6392 37.3827 23.8243 37.3827V35.3827V33.3827C21.8681 33.3827 19.9292 33.2047 17.9695 32.9855L17.7472 34.9731ZM23.8243 35.3827V37.3827C26.0095 37.3827 28.1288 37.1841 30.124 36.9607L29.9014 34.9731L29.6789 32.9855C27.7215 33.2047 25.7807 33.3827 23.8243 33.3827V35.3827ZM29.9014 34.9731L30.1302 36.96C31.8783 36.7587 33.5073 35.9725 34.7513 34.7288L33.3372 33.3144L31.9232 31.9C31.3183 32.5048 30.5251 32.8881 29.6727 32.9862L29.9014 34.9731ZM33.3372 33.3144L34.7516 34.7284C35.9954 33.4844 36.7811 31.8558 36.9787 30.1078L34.9914 29.8831L33.004 29.6584C32.9083 30.505 32.5276 31.2955 31.9228 31.9004L33.3372 33.3144ZM34.9914 29.8831L36.9799 30.0971C37.193 28.1168 37.3798 26.018 37.3798 23.8563H35.3798H33.3798C33.3798 25.7998 33.2117 27.7288 33.0029 29.6691L34.9914 29.8831ZM35.3798 23.8563H37.3798C37.3798 21.6947 37.193 19.5959 36.9799 17.6139L34.9914 17.8276L33.0028 18.0414C33.2117 19.9838 33.3798 21.9128 33.3798 23.8563H35.3798ZM34.9914 17.8276L36.9787 17.6029C36.7811 15.8549 35.9953 14.2263 34.7515 12.9824L33.3372 14.3965L31.9229 15.8106C32.5276 16.4154 32.9083 17.2057 33.004 18.0523L34.9914 17.8276ZM33.3372 14.3965L34.7515 12.9823C33.747 11.9778 32.4915 11.2719 31.1252 10.9313L30.6414 12.8719L30.1577 14.8125C30.8238 14.9786 31.4349 15.3225 31.923 15.8106L33.3372 14.3965Z" fill="#324158" mask="url(#path-2-inside-1_4032_277)"/>
<mask id="path-4-inside-2_4032_277" fill="white">
<path d="M7.95117 14.1438V14.6846V14.1438Z"/>
</mask>
<path d="M9.95117 14.1438C9.95117 13.0392 9.05574 12.1438 7.95117 12.1438C6.8466 12.1438 5.95117 13.0392 5.95117 14.1438H7.95117H9.95117ZM5.95117 14.6846C5.95117 15.7892 6.8466 16.6846 7.95117 16.6846C9.05574 16.6846 9.95117 15.7892 9.95117 14.6846H7.95117H5.95117ZM7.95117 14.1438H5.95117V14.6846H7.95117H9.95117V14.1438H7.95117Z" fill="#324158" mask="url(#path-4-inside-2_4032_277)"/>
<mask id="path-6-inside-3_4032_277" fill="white">
<path d="M16.0195 14.1438V14.6846V14.1438Z"/>
</mask>
<path d="M18.0195 14.1438C18.0195 13.0392 17.1241 12.1438 16.0195 12.1438C14.915 12.1438 14.0195 13.0392 14.0195 14.1438H16.0195H18.0195ZM14.0195 14.6846C14.0195 15.7892 14.915 16.6846 16.0195 16.6846C17.1241 16.6846 18.0195 15.7892 18.0195 14.6846H16.0195H14.0195ZM16.0195 14.1438H14.0195V14.6846H16.0195H18.0195V14.1438H16.0195Z" fill="#324158" mask="url(#path-6-inside-3_4032_277)"/>
<mask id="path-8-inside-4_4032_277" fill="white">
<path d="M12.3271 8.75406V9.29494V8.75406Z"/>
</mask>
<path d="M14.3271 8.75406C14.3271 7.64949 13.4317 6.75406 12.3271 6.75406C11.2226 6.75406 10.3271 7.64949 10.3271 8.75406H12.3271H14.3271ZM10.3271 9.29494C10.3271 10.3995 11.2226 11.2949 12.3271 11.2949C13.4317 11.2949 14.3271 10.3995 14.3271 9.29494H12.3271H10.3271ZM12.3271 8.75406H10.3271V9.29494H12.3271H14.3271V8.75406H12.3271Z" fill="#324158" mask="url(#path-8-inside-4_4032_277)"/>
<mask id="path-10-inside-5_4032_277" fill="white">
<path d="M20.3955 8.75406V9.29494V8.75406Z"/>
</mask>
<path d="M22.3955 8.75406C22.3955 7.64949 21.5001 6.75406 20.3955 6.75406C19.2909 6.75406 18.3955 7.64949 18.3955 8.75406H20.3955H22.3955ZM18.3955 9.29494C18.3955 10.3995 19.2909 11.2949 20.3955 11.2949C21.5001 11.2949 22.3955 10.3995 22.3955 9.29494H20.3955H18.3955ZM20.3955 8.75406H18.3955V9.29494H20.3955H22.3955V8.75406H20.3955Z" fill="#324158" mask="url(#path-10-inside-5_4032_277)"/>
<mask id="path-12-inside-6_4032_277" fill="white">
<path d="M12.3271 18.992V19.5329V18.992Z"/>
</mask>
<path d="M14.3271 18.992C14.3271 17.8874 13.4317 16.992 12.3271 16.992C11.2226 16.992 10.3271 17.8874 10.3271 18.992H12.3271H14.3271ZM10.3271 19.5329C10.3271 20.6375 11.2226 21.5329 12.3271 21.5329C13.4317 21.5329 14.3271 20.6375 14.3271 19.5329H12.3271H10.3271ZM12.3271 18.992H10.3271V19.5329H12.3271H14.3271V18.992H12.3271Z" fill="#324158" mask="url(#path-12-inside-6_4032_277)"/>
<mask id="path-14-inside-7_4032_277" fill="white">
<path d="M20.3955 18.992V19.5329V18.992Z"/>
</mask>
<path d="M22.3955 18.992C22.3955 17.8874 21.5001 16.992 20.3955 16.992C19.2909 16.992 18.3955 17.8874 18.3955 18.992H20.3955H22.3955ZM18.3955 19.5329C18.3955 20.6375 19.2909 21.5329 20.3955 21.5329C21.5001 21.5329 22.3955 20.6375 22.3955 19.5329H20.3955H18.3955ZM20.3955 18.992H18.3955V19.5329H20.3955H22.3955V18.992H20.3955Z" fill="#324158" mask="url(#path-14-inside-7_4032_277)"/>
</svg>
