<svg width="24" height="24" viewBox="0 0 24 24" fill="none" xmlns="http://www.w3.org/2000/svg">
<g clip-path="url(#clip0_3018_30)">
<path fill-rule="evenodd" clip-rule="evenodd" d="M6.20457 0.0123488C6.98936 0.106479 7.70671 0.393908 8.29406 0.849599C8.84923 1.28031 11.277 3.48766 11.5439 3.80432C12.0066 4.35344 12.2323 4.97953 12.2324 5.71468C12.2326 6.51548 11.971 7.14026 11.3174 7.90001C11.2199 8.01334 11.1257 8.12434 11.1081 8.14662C11.0812 8.18081 11.1206 8.2526 11.3603 8.60547C12.5222 10.3164 13.6841 11.4798 15.3753 12.6255L15.7804 12.8999L16.0951 12.6349C16.4856 12.3061 16.6671 12.1821 16.9696 12.0373C17.6171 11.7274 18.3123 11.663 19.0318 11.8463C19.3028 11.9153 19.7549 12.1376 20.0117 12.328C20.3658 12.5905 22.4013 14.7849 23.1003 15.6576C23.7628 16.4847 24.0744 17.4654 23.985 18.4408C23.9193 19.1562 23.7408 19.6777 23.3704 20.2363C23.1094 20.6299 22.7361 20.9873 22.1114 21.4418C21.8259 21.6495 21.3747 21.9889 21.1089 22.1959C20.2638 22.8542 19.6605 23.2124 18.9129 23.4997C16.8643 24.2871 14.5723 24.1397 12.631 23.0956C12.0834 22.8011 11.6375 22.4681 10.3046 21.3581C7.64676 19.1447 5.979 17.5382 4.0571 15.3401C2.81685 13.9216 1.58654 12.4209 1.25288 11.9195C-0.165538 9.78809 -0.394938 7.07189 0.64314 4.69984C0.915158 4.0783 1.21006 3.60467 1.78777 2.86147C1.9856 2.607 2.30433 2.1848 2.49607 1.92325C2.93725 1.32143 3.09987 1.12903 3.33927 0.925505C3.92847 0.424651 4.58073 0.133906 5.34285 0.0324241C5.5904 -0.000529215 6.01468 -0.0104255 6.20457 0.0123488ZM6.26377 1.88367C6.75117 1.99471 6.99682 2.14287 7.6698 2.73177C8.4511 3.41543 10.0004 4.84337 10.1441 5.01215C10.3465 5.25002 10.4222 5.52002 10.3803 5.85411C10.3367 6.20135 10.2441 6.34041 9.52128 7.14448C9.08338 7.63155 9.03824 7.71211 9.02395 8.03216C9.01143 8.31203 9.03747 8.38184 9.33211 8.85902C10.7542 11.1621 12.2197 12.7102 14.3335 14.1428C14.8513 14.4937 15.4019 14.8365 15.5537 14.9024C15.7848 15.0027 16.075 14.9914 16.3124 14.8729C16.375 14.8416 16.5903 14.6662 16.7908 14.483C17.292 14.025 17.5854 13.7838 17.7283 13.7122C18.1184 13.5168 18.6346 13.5671 18.9396 13.8302C19.2188 14.0709 20.9973 16.0099 21.5749 16.7033C22.0203 17.238 22.1787 17.6707 22.1479 18.2695C22.1162 18.8865 21.8605 19.3384 21.3176 19.7365C20.9971 19.9716 20.0415 20.689 19.6757 20.9692C19.3446 21.2228 19.0775 21.3917 18.7433 21.5586C17.0088 22.4253 14.9038 22.3396 13.2737 21.336C12.9163 21.116 12.7721 21.005 11.7827 20.1882C8.54163 17.5127 6.74583 15.7292 4.14543 12.6035C3.19745 11.464 2.91911 11.1094 2.7013 10.7637C1.75543 9.26243 1.58423 7.36551 2.24081 5.66142C2.47141 5.06292 2.6812 4.72197 3.36251 3.83825C3.52602 3.62618 3.81207 3.24396 3.99821 2.98884C4.50027 2.3008 4.7646 2.07643 5.25345 1.92341C5.48825 1.84992 6.02321 1.82887 6.26377 1.88367Z" fill="#006DFD"/>
</g>
<defs>
<clipPath id="clip0_3018_30">
<rect width="24" height="24" fill="white" transform="matrix(-1 0 0 1 24 0)"/>
</clipPath>
</defs>
</svg>
