<svg width="38" height="38" viewBox="0 0 38 38" fill="none" xmlns="http://www.w3.org/2000/svg">
<path fill-rule="evenodd" clip-rule="evenodd" d="M15.1616 3.78688C14.0662 3.89187 13.2538 4.10893 12.4466 4.51237C10.9359 5.2674 9.75068 6.49795 9.05194 8.03699C8.59963 9.03323 8.43623 9.85726 8.43585 11.1435L8.43562 11.932L7.57112 11.9323C6.61994 11.9326 6.17773 11.9696 5.71945 12.0872C4.58888 12.3773 3.68661 13.1276 3.18748 14.1927C2.77438 15.0742 1.9714 18.5885 1.63761 20.976C1.34372 23.0779 1.18598 25.8091 1.28976 26.999C1.48895 29.2831 2.49333 30.9908 4.35655 32.2135C6.10816 33.363 8.64925 34 12.1216 34.1601C14.5029 34.2699 18.452 34.2429 20.1494 34.1052C23.0475 33.8702 25.1679 33.2845 26.7766 32.2746C27.4177 31.8721 27.6306 31.5462 27.6335 30.9628C27.6347 30.7161 27.6173 30.6332 27.5221 30.4308C27.2488 29.8501 26.6636 29.5357 26.0539 29.6419C25.8525 29.6769 25.7131 29.7401 25.3381 29.966C24.0472 30.7438 22.3513 31.1942 19.9876 31.3872C18.1035 31.541 13.3098 31.5409 11.3616 31.387C7.95226 31.1177 5.80982 30.3235 4.76144 28.9403C4.40701 28.4726 4.12304 27.7367 4.02967 27.0438C3.97252 26.6196 3.98084 25.2465 4.04673 24.225C4.21492 21.6181 4.58854 19.3538 5.32285 16.492C5.61682 15.3463 5.741 15.0658 6.03618 14.8812C6.36526 14.6755 5.96862 14.6884 12.5776 14.668L18.7146 14.649L18.9468 14.5417C19.2379 14.4072 19.4962 14.1472 19.6334 13.851C19.7227 13.6582 19.739 13.5731 19.739 13.3C19.739 13.0308 19.7223 12.9411 19.6387 12.7613C19.4986 12.4601 19.265 12.2212 18.9671 12.0745L18.7163 11.951L14.925 11.9404L11.1336 11.9299L11.1337 11.4654C11.1337 10.4004 11.2649 9.72278 11.6064 9.02301C12.941 6.28827 16.5085 5.64835 18.7077 7.74925C19.2119 8.23083 19.5102 8.69538 19.8882 9.58754C20.1004 10.0884 20.5259 10.3829 21.0706 10.4058C21.3102 10.4158 21.4201 10.4015 21.5894 10.3379C22.0134 10.1788 22.3082 9.86118 22.4353 9.42657C22.522 9.12994 22.5104 8.92835 22.3851 8.55432C21.6147 6.25498 19.4839 4.39921 17.0616 3.91805C16.4859 3.80367 15.6143 3.74352 15.1616 3.78688ZM24.8954 11.6496C24.3365 11.7105 24.0859 11.7781 23.7334 11.9627C23.1524 12.2668 22.7754 12.7537 22.239 13.8922C21.6597 15.1216 21.324 16.7329 21.3649 18.088C21.3864 18.8025 21.4496 18.9907 22.0281 20.064C23.1785 22.1981 23.7258 23.0694 24.8447 24.548C25.7969 25.8062 26.4334 26.5742 26.6812 26.7635C27.4403 27.3434 28.4405 27.4735 29.3146 27.1059C29.6737 26.9549 31.2887 26.1399 31.7106 25.8968C32.5044 25.4393 33.2512 24.8913 34.2896 24.0043C35.0628 23.344 35.2364 23.1714 35.455 22.8462C35.7204 22.4514 35.8392 22.0607 35.8622 21.507C35.8856 20.9437 35.8324 20.7264 35.5135 20.083C35.2459 19.543 34.3926 17.9993 34.0117 17.366C33.4403 16.416 32.637 15.293 31.5245 13.889C30.6915 12.8377 30.4583 12.644 29.6289 12.3145C28.0558 11.6895 26.5147 11.4731 24.8954 11.6496ZM25.1858 14.3515C25.0474 14.3681 25.0409 14.3765 24.8158 14.8317C24.342 15.7896 24.0928 16.8137 24.0919 17.8063L24.0916 18.1516L24.4382 18.7943C25.6028 20.9536 26.1368 21.7842 27.4191 23.4308C28.2536 24.5022 28.2877 24.5436 28.338 24.5459C28.4149 24.5493 30.2729 23.5953 30.6641 23.3515C31.2375 22.9942 32.263 22.1872 32.9173 21.5785L33.136 21.375L32.6775 20.539C31.4664 18.3307 30.9185 17.5056 29.3721 15.561L28.8885 14.953L28.5326 14.813C27.6464 14.4646 27.0925 14.3586 26.0866 14.3449C25.6686 14.3392 25.2632 14.3422 25.1858 14.3515Z" fill="#324158"/>
</svg>
