<svg width="373" height="404" viewBox="0 0 373 404" fill="none" xmlns="http://www.w3.org/2000/svg">
<path d="M196.278 103.675C277.093 41.1822 311.588 41.3153 323.085 42.1753C334.583 43.0352 366.121 74.2888 349.038 74.2888C331.955 74.2888 201.896 143.685 196.278 196.845C244.57 148.543 308.742 162.243 336.226 188.98C394.822 245.984 377.101 318.955 327.111 357.004C320.764 361.835 260.093 390.978 187.162 351.983C114.232 312.988 115.462 166.167 196.278 103.675Z" fill="#F1F5F9"/>
<path d="M76.3945 75.9004C175.078 -0.564239 217.102 -0.327177 230.979 0.712891C232.644 0.837694 234.717 1.51997 237.05 2.65527C239.376 3.78698 241.928 5.35237 244.543 7.20898C249.774 10.9226 255.229 15.7804 259.595 20.6025C263.979 25.445 267.201 30.1816 268.065 33.6553C268.495 35.383 268.316 36.6824 267.555 37.5537C266.78 38.4397 265.28 39.0293 262.725 39.0293C261.352 39.0293 259.456 39.3761 257.132 40.0176C254.799 40.6615 252.002 41.6121 248.814 42.8408C242.439 45.2985 234.478 48.8786 225.499 53.374C207.54 62.3654 185.487 75.0295 163.872 89.7295C142.259 104.428 121.07 121.173 104.848 138.325C88.6405 155.462 77.3256 173.075 75.5918 189.515L75.4434 190.922L76.4424 189.921C135.226 131.005 213.316 147.732 246.723 180.297C282.415 215.09 294.836 254.721 290.756 291.437C286.674 328.166 266.073 362.027 235.631 385.244C233.752 386.677 227.722 389.996 218.307 393.42C208.907 396.839 196.167 400.351 180.89 402.191C150.339 405.872 109.637 402.868 65.1875 379.054C20.8733 355.311 -0.998583 298.674 0.579102 238.3C2.15634 177.945 27.1724 114.04 76.3945 75.9004Z" fill="var(--color-n-50)" stroke="#CAD5E2"/>
</svg>
