<svg width="38" height="38" viewBox="0 0 38 38" fill="none" xmlns="http://www.w3.org/2000/svg">
<path fill-rule="evenodd" clip-rule="evenodd" d="M14.459 1.94218C11.3501 2.02213 6.9581 2.23995 6.44104 2.33985C5.05791 2.60703 4.14588 4.00642 4.48415 5.34242C4.57805 5.71338 4.70634 5.96448 5.11373 6.5748C6.32183 8.38462 7.99698 9.87369 10.0049 10.9227C10.6049 11.2361 11.15 11.4719 11.951 11.7645L12.597 12.0004L12.6068 14.0914L12.6167 16.1825L12.4168 16.2043C12.3069 16.2164 11.9178 16.253 11.552 16.2857C11.1863 16.3184 10.7109 16.3789 10.4957 16.4203C8.78514 16.7488 7.25781 17.7861 6.35675 19.2313C6.16029 19.5464 5.6832 20.4978 5.22431 21.4896C4.23897 23.6192 2.92748 26.9277 2.698 27.8626C1.84433 31.341 4.13976 34.8348 7.73448 35.5285C8.19774 35.6179 10.3347 35.7965 12.293 35.9095C16.7037 36.1638 21.2964 36.1638 25.707 35.9095C27.6653 35.7965 29.8023 35.6179 30.2656 35.5285C32.2579 35.144 33.981 33.8368 34.8466 32.053C35.4665 30.7754 35.6417 29.3124 35.3334 27.987C34.983 26.4811 32.5206 20.6383 31.6433 19.2313C30.7427 17.7868 29.2165 16.7491 27.5109 16.4215C27.2921 16.3795 26.8138 16.3184 26.448 16.2857C26.0823 16.253 25.6931 16.2164 25.5832 16.2043L25.3834 16.1825L25.3932 14.0914L25.403 12.0004L26.049 11.764C27.7661 11.1357 28.9625 10.474 30.2973 9.4142C31.6188 8.36498 33.183 6.43085 33.4796 5.47941C33.9063 4.11027 32.9954 2.62185 31.5584 2.34053C31.0176 2.23463 26.7219 2.0257 23.289 1.93834C21.5715 1.8946 16.2179 1.89696 14.459 1.94218ZM17.176 4.62251C15.6909 4.6371 13.0206 4.70588 11.419 4.77086C9.96645 4.82976 7.36675 4.97059 7.34585 4.99149C7.32704 5.01034 7.6231 5.42081 7.93801 5.81256C8.88584 6.9917 10.1368 7.96153 11.64 8.68266C13.7155 9.67826 16.067 10.1457 19 10.1457C24.1898 10.1457 27.9808 8.57888 30.337 5.46007C30.6103 5.09816 30.6856 4.97804 30.6389 4.97792C30.6224 4.97789 30.0191 4.9441 29.298 4.90287C25.7331 4.69885 20.8677 4.58633 17.176 4.62251ZM15.314 14.3045V16.0014L16.1025 15.9712C16.5362 15.9546 17.8401 15.941 19 15.941C20.16 15.941 21.4638 15.9546 21.8975 15.9712L22.686 16.0014V14.3045V12.6075L22.5625 12.6297C21.8844 12.7515 20.0427 12.8818 19 12.8818C17.9574 12.8818 16.1156 12.7515 15.4375 12.6297L15.314 12.6075V14.3045ZM17.594 18.6426C15.4624 18.7099 12.4455 18.9035 11.381 19.0414C10.2509 19.1878 9.28902 19.7425 8.7427 20.5631C8.26857 21.2752 6.91687 24.2921 5.9869 26.714C5.29541 28.5149 5.21922 28.8029 5.25487 29.4831C5.30351 30.4119 5.6726 31.2138 6.35139 31.8655C6.69947 32.1996 6.90285 32.339 7.34627 32.5471C7.98608 32.8474 8.21621 32.8872 10.203 33.0402C13.2152 33.2723 15.812 33.3695 19 33.3695C22.1881 33.3695 24.7849 33.2723 27.797 33.0402C29.7839 32.8872 30.014 32.8474 30.6538 32.5471C31.0901 32.3423 31.2885 32.2063 31.6463 31.8663C32.3233 31.2232 32.6965 30.414 32.7452 29.4831C32.7802 28.8156 32.7022 28.5131 32.0661 26.8492C31.131 24.4027 29.7381 21.2855 29.2573 20.5631C28.7117 19.7432 27.7403 19.1827 26.619 19.0406C25.8768 18.9466 23.4425 18.7698 21.888 18.697C21.0211 18.6564 18.2636 18.6215 17.594 18.6426ZM17.917 20.7857C15.6838 21.0226 14.1572 21.9298 13.4127 23.4625C13.072 24.164 12.9309 24.9842 13.0006 25.8572C13.1619 27.875 14.5283 29.3545 16.7213 29.8855C17.5065 30.0756 17.8807 30.1129 19 30.1129C20.1194 30.1129 20.4936 30.0756 21.2788 29.8855C23.4663 29.3558 24.8415 27.8697 24.9988 25.8654C25.1683 23.7052 24.0617 21.979 22.0227 21.2232C21.1248 20.8903 20.4627 20.7835 19.19 20.7664C18.6571 20.7592 18.0842 20.7679 17.917 20.7857ZM18.373 23.4854C16.7497 23.5952 15.878 24.1462 15.7208 25.1619C15.6356 25.7122 15.7984 26.2735 16.1454 26.626C16.6528 27.1414 17.6083 27.4008 19 27.4008C20.7029 27.4008 21.7516 27.012 22.1293 26.2404C22.3516 25.7865 22.351 25.1031 22.128 24.6316C21.8166 23.9732 20.9121 23.5735 19.532 23.4843C19.2081 23.4634 18.9088 23.4487 18.867 23.4517C18.8252 23.4547 18.6029 23.4699 18.373 23.4854Z" fill="#324158"/>
</svg>
