<svg width="1868" height="448" viewBox="0 0 1868 448" fill="none" xmlns="http://www.w3.org/2000/svg">
<path d="M1385.27 350.483C1385.27 350.483 1449.87 326.469 1450.27 335.754C1450.67 345.04 1432.9 345.68 1436.26 350.483C1439.62 355.286 1466.84 346.961 1466.84 346.961C1466.84 346.961 1471.72 339.116 1469.08 335.754C1466.44 332.392 1458.75 341.918 1454.67 339.116C1450.59 336.315 1436.26 287.406 1433.7 277.32C1431.14 267.234 1441.78 236.015 1445.15 233.534C1448.51 231.052 1493.82 217.044 1490.77 219.846C1487.73 222.647 1527.36 316.703 1540.48 316.703C1553.61 316.703 1508.54 335.034 1508.54 339.116C1508.54 343.199 1550.89 343.199 1517.67 321.826C1484.45 300.453 1471.72 250.024 1471.72 250.024C1471.72 250.024 1451.4 277.32 1454.67 280.202C1457.95 283.083 1470.12 325.508 1466.84 327.349C1463.56 329.19 1470.2 332.472 1463.56 329.19C1456.91 325.908 1443.31 246.181 1454.67 238.657C1466.04 231.132 1448.75 228.731 1448.43 225.769C1448.11 222.807 1459.87 202.555 1458.75 201.515C1457.63 200.474 1446.43 216.484 1445.15 216.163C1443.87 215.843 1439.62 181.263 1439.62 181.263C1439.62 181.263 1435.86 168.695 1433.7 168.695C1431.54 168.695 1436.26 146.602 1436.26 146.602L1433.7 160.29C1433.7 160.29 1419.93 156.048 1413.13 153.246C1406.32 150.444 1403.53 119.146 1402.08 114.263C1400.63 109.38 1404.72 93.6105 1405.76 93.6105C1406.8 93.6105 1405.76 107.219 1405.76 107.219C1405.76 107.219 1407.44 93.6105 1408.72 93.6105C1410.01 93.6105 1408.72 112.742 1408.72 112.742C1408.72 112.742 1417.61 141.399 1423.45 136.676C1429.3 131.953 1415.93 151.245 1416.81 153.246C1417.69 155.247 1423.45 155.487 1423.45 155.487C1423.45 155.487 1426.9 141.159 1429.3 138.918C1431.7 136.676 1436.26 141.479 1436.26 141.479L1448.43 127.871L1441.78 133.954L1439.62 131.953C1439.62 131.953 1436.26 130.272 1429.3 133.954C1422.33 137.637 1419.69 110.901 1421.21 107.219C1422.73 103.536 1432.58 103.536 1433.7 105.377C1434.82 107.219 1432.1 111.221 1433.7 112.742C1435.3 114.263 1438.82 111.621 1439.62 112.742C1440.42 113.863 1440.58 121.867 1441.78 121.227C1442.98 120.587 1443.79 112.742 1445.15 112.742C1446.51 112.742 1446.99 116.424 1448.43 116.104C1449.87 115.784 1448.43 110.1 1448.43 107.219C1448.43 104.337 1443.23 99.4539 1436.26 100.655C1429.3 101.855 1426.09 106.499 1423.45 105.377C1420.81 104.256 1421.21 103.136 1421.21 100.655C1421.21 98.1732 1423.45 92.3297 1433.7 91.049C1443.95 89.7682 1453.55 91.7694 1454.67 100.655C1455.79 109.54 1447.31 121.627 1448.43 123.468C1449.55 125.309 1471.72 141.959 1471.72 153.246C1471.72 164.533 1445.31 182.543 1441.78 184.545C1438.26 186.546 1397.04 179.502 1395.04 168.695C1393.04 157.889 1389.99 149.964 1391.03 148.443C1392.07 146.922 1395.04 155.487 1395.04 155.487C1395.04 155.487 1393.12 141.479 1395.04 141.479C1396.96 141.479 1400.64 165.013 1403.2 166.854C1405.76 168.695 1431.14 167.815 1433.7 166.854C1436.26 165.894 1449.55 141.479 1454.67 138.918C1459.79 136.356 1466.52 141.399 1466.84 148.443C1467.16 155.487 1449.55 170.456 1448.43 175.739C1447.31 181.023 1440.58 165.573 1439.62 162.852C1438.66 160.13 1448.43 129.392 1451.87 127.871C1455.32 126.35 1465.32 131.393 1471.72 138.918C1478.13 146.442 1489.41 211.441 1487.73 213.202C1486.05 214.963 1474.36 203.196 1471.72 204.396C1469.08 205.597 1480.05 214.402 1478.13 218.005C1476.2 221.607 1463.24 222.807 1461 218.005C1458.75 213.202 1505.34 264.672 1497.34 272.357C1489.33 280.041 1501.23 272.357 1508.54 277.32C1515.86 282.283 1535.76 332.392 1534.96 335.754C1534.16 339.116 1508.54 343.439 1508.54 346.961C1508.54 350.483 1581.39 346.961 1581.39 346.961C1581.39 346.961 1757 354.29 1807 339.116C1857 323.943 1866 295.411 1866 295.411M1385.27 350.483C1379.99 356.709 1305.38 357.607 1296.18 350.483C1286.97 343.359 1315.63 310.299 1309.39 295.411C1303.14 280.522 1251.91 278.12 1238.06 295.411C1224.21 312.701 1250.87 348.206 1241.66 354.29C1232.46 360.374 1159.38 349.985 1152.33 346.961M1385.27 350.483C1390.55 344.257 1354.13 285.004 1362.3 272.357C1370.46 259.709 1386.63 292.689 1413.13 285.004C1439.62 277.32 1429.3 218.005 1413.13 218.005C1396.96 218.005 1395.04 233.534 1385.27 225.769C1375.5 218.005 1416.81 84.147 1413.13 73.4206C1409.44 62.6942 1318.67 83.5066 1309.39 78.8639C1300.1 74.2211 1339.76 49.8864 1328.67 22.9903C1317.57 -3.90583 1251.5 -6.06686 1240.05 22.9903C1228.61 52.0475 1263.04 54.4492 1261.6 73.4206C1260.16 92.3921 1165.62 71.4195 1142.65 78.8639C1119.67 86.3083 1132.96 172.538 1142.65 188.467C1152.33 204.396 1169.62 163.012 1191.47 175.739C1213.33 188.467 1202.36 247.382 1191.47 257.468C1180.59 267.554 1159.86 237.37 1136.88 246.501C1113.91 255.633 1158.58 339.116 1152.33 346.961M1152.33 346.961C1146.09 354.806 1010.25 356.709 1010.25 356.709L1010.33 356.708M731.361 128.997C731.361 128.997 725.997 146.047 724.076 148.929C722.155 151.811 702.463 158.375 700.702 158.135C698.941 157.894 695.132 151.066 694.939 145.727C694.809 142.135 698.141 138.523 697.02 136.762C695.899 135.001 689.496 132.439 689.496 132.439C689.496 132.439 703.904 139.083 708.227 134.521C712.549 129.958 715.831 105.303 706.786 105.943C697.741 106.584 700.222 112.267 697.02 109.706C693.818 107.144 696.22 118.271 694.939 118.591C693.658 118.911 691.417 111.227 689.496 112.587C687.575 113.948 690.856 122.753 689.496 124.114C688.135 125.475 683.092 124.114 682.291 120.352C681.491 116.59 682.291 104.262 689.496 101.621C696.7 98.9793 705.265 100.18 710.228 105.943C715.191 111.707 713.75 101.621 711.429 100.18C709.107 98.7392 694.939 93.376 688.295 93.7762C681.651 94.1764 677.328 94.8969 674.767 105.063C672.205 115.229 683.172 132.439 679.089 132.439C675.007 132.439 671.165 140.204 676.528 143.406C681.891 146.608 672.686 142.525 668.443 145.727C664.201 148.929 649.792 207.284 652.514 233.78C655.235 260.276 599.762 326.635 595.44 340.723C591.117 354.812 615.051 346.22 615.051 346.22M731.361 128.997C734.242 128.997 729.039 143.406 729.039 143.406C729.039 143.406 731.361 128.997 733.362 128.997C735.363 128.997 733.682 151.09 731.361 153.812C729.039 156.534 720.474 161.897 718.073 164.218C715.671 166.54 703.264 161.897 700.702 161.897C698.141 161.897 701.983 188.152 703.904 189.593C705.825 191.034 715.431 191.114 718.073 189.593C720.714 188.072 727.278 164.218 729.039 161.897C730.8 159.575 736.964 156.694 735.363 159.896C733.762 163.098 731.361 172.303 731.361 172.303C731.361 172.303 736.884 161.417 737.925 164.218C738.965 167.02 731.681 181.589 732.882 189.593C734.082 197.598 718.073 188.473 713.51 194.716C708.947 200.96 691.817 212.407 682.291 213.287C672.766 214.168 668.443 175.745 668.443 175.745C668.443 175.745 673.566 193.035 676.528 189.593C679.49 186.151 689.816 182.469 691.817 185.271C693.818 188.072 693.818 191.034 693.818 191.034C693.818 191.034 683.412 188.553 679.089 193.035C674.767 197.518 676.288 199.439 682.291 199.439C688.295 199.439 697.02 193.035 697.02 191.034C697.02 189.033 687.174 151.09 676.528 145.727C665.882 140.364 682.291 148.929 682.291 148.929C682.291 148.929 685.653 148.049 683.972 145.727C682.291 143.406 679.089 140.364 679.089 136.762C679.089 133.16 682.291 134.521 682.291 134.521C682.291 134.521 692.698 144.286 693.818 145.727C694.939 147.168 688.295 153.812 688.295 153.812C688.295 153.812 697.5 186.151 698.141 189.593C698.781 193.035 700.702 216.97 700.702 216.97C700.702 216.97 669.724 224.254 668.443 226.736C667.162 229.217 689.496 225.295 693.818 226.736C698.141 228.176 718.073 268.28 718.073 288.772C718.073 309.265 675.888 331.758 679.089 340.723C682.291 349.689 695.819 349.289 693.818 355.132C691.817 360.976 654.035 363.057 652.514 355.132C650.993 347.207 686.054 308.704 689.496 293.095C692.938 277.486 679.089 254.512 679.089 261.796C679.089 269.081 620.895 337.121 615.051 346.22M731.361 128.997C729.039 128.997 724.076 128.997 724.076 128.997C724.076 128.997 703.904 57.1145 718.073 50.5504C732.241 43.9864 855.595 33.1 862.799 45.1072C870.003 57.1144 833.822 108.185 840.786 118.591C847.75 128.997 936.763 134.521 935.802 118.591C934.842 102.661 898.74 50.5504 908.346 45.1072C917.952 39.664 996.639 38.8635 1014.41 66.3198C1032.18 93.7762 982.15 185.271 994.718 195.997C1007.29 206.724 1014.41 166.62 1049.71 179.828C1085.01 193.035 1059 267.16 1041.87 267.32C1024.74 267.48 1000.64 222.333 989.995 233.78C979.348 245.227 1019.77 348.783 1010.33 356.708M615.051 346.22L618.573 347.207C618.573 347.207 634.663 355.132 636.664 360.976C638.665 366.819 587.515 360.976 587.515 360.976C587.515 360.976 584.073 350.169 587.515 347.207C590.957 344.246 598.882 351.61 595.44 355.132C591.998 358.654 529 355.132 529 355.132C240.2 348.792 57 413.402 1.5 446.5M643.308 293.095C639.226 298.298 633.943 285.811 636.664 280.207C639.386 274.604 661.079 261.796 661.799 258.675C662.52 255.553 656.196 233.78 656.196 233.78H700.702C700.702 233.78 678.449 233.78 676.528 230.178C674.607 226.575 720.874 195.197 724.076 195.997C727.278 196.798 729.6 199.439 735.363 199.439C741.126 199.439 768.103 164.939 801.242 179.828C834.382 194.716 817.172 238.743 801.242 252.191C785.313 265.639 752.369 242.425 733.362 255.633C714.355 268.841 721.835 338.402 735.363 355.132C748.891 371.862 834.382 369.861 834.382 355.132C834.382 340.403 819.893 309.745 834.382 293.095C848.871 276.445 878.648 287.332 888.174 305.022C897.7 322.713 867.682 337.682 883.211 360.976C898.74 384.269 1000.88 364.633 1010.33 356.708" stroke="#006DFD" stroke-width="3.20191"/>
</svg>
