<svg width="1788" height="715" viewBox="0 0 1788 715" fill="none" xmlns="http://www.w3.org/2000/svg">
<path d="M1119.67 127.079C1121.63 130.059 1130.46 154.531 1128.58 158.447C1126.71 162.362 1094.29 196.873 1076.76 185.004C1059.24 173.135 1049.72 137.166 1058.43 133.038C1067.13 128.91 1080.6 145.976 1085.93 147.807C1091.27 149.637 1111.99 172.619 1111.99 172.619C1111.99 172.619 1082.69 182.536 1085.93 189.175C1089.18 195.815 1194.31 270.721 1194.31 270.721L1142.19 281.957C1142.19 281.957 1106.07 281.094 1085.93 270.721C1065.8 260.348 1149.91 293.746 1148.12 300.258C1146.33 306.77 1116.73 310.898 1116.73 310.898C1116.73 310.898 1085.93 333.626 1076.76 332.774C1067.6 331.923 1106.07 313.239 1106.07 313.239C1106.07 313.239 1071.73 330.348 1066.27 329.795C1060.81 329.242 1049.21 329.795 1044.48 320.347C1039.74 310.898 1057.19 247.228 1057.19 247.228C1057.19 247.228 1053.95 233.779 1044.48 225.011C1035.01 216.244 1061.07 244.546 1061.07 244.546C1061.07 244.546 1091.27 268.338 1071.73 274.254C1052.2 280.17 1055.87 283.745 1061.07 281.957C1066.27 280.17 1043.91 278.182 1023.58 275.531C1023.58 275.531 998.289 219.308 992.958 219.308C987.626 219.308 977.433 241.184 982.295 255.953C987.157 270.721 1015.48 274.254 1015.48 274.254L1008.95 268.338C1008.95 268.338 1036.93 274.254 1043.28 268.338C1049.64 262.422 1053.65 247.058 1052.2 242.333C1050.75 237.609 1039.74 224.032 1039.74 224.032C1039.74 224.032 1043.28 219.308 1039.74 214.584C1036.2 209.86 998.289 214.584 998.289 214.584C998.289 214.584 988.266 201.943 969.287 204.54C950.308 207.136 948.858 231.097 950.308 247.058C951.758 263.018 993.043 286.681 998.289 296.726C1003.53 306.77 1026.74 317.878 1035.01 317.41C1043.28 316.942 1095.4 310.898 1091.27 306.77C1087.13 302.642 1064.14 314.009 1058.43 306.77C1052.71 299.531 1052.2 292.001 1058.43 287.277C1064.65 282.553 1123.85 280.17 1123.85 280.17C1123.85 280.17 1130.32 308.359 1133.92 303.195C1137.51 298.031 1128.58 274.254 1128.58 274.254C1128.58 274.254 1133.92 271.317 1138.05 274.254C1142.19 277.19 1148.12 303.195 1142.19 306.77C1136.26 310.345 1106.07 306.77 1106.07 306.77L1200.24 280.17L1189.57 358.183L1158.18 411.341L1211.5 376.484C1211.5 376.484 1218.79 303.195 1222.12 292.001C1225.44 280.808 1219.77 282.553 1215.63 287.277C1211.5 292.001 1207.36 337.924 1211.5 355.8C1215.63 373.675 1211.5 388.316 1205.57 388.316C1199.64 388.316 1192.6 376.484 1187.19 376.484C1181.77 376.484 1198.79 386.826 1200.24 394.359C1201.69 401.893 1184.29 448.199 1173.58 449.773C1162.88 451.348 1156.14 432.621 1158.18 421.385C1160.23 410.149 1151.91 417.087 1163.52 416.065C1175.12 415.044 1155.5 445.049 1167.05 449.773C1178.61 454.498 1142.19 463.35 1142.19 463.35C1142.19 463.35 1146.03 445.092 1146.33 438.537C1146.63 431.983 1143.81 411.341 1133.92 407.809C1124.02 404.276 1114.44 405.776 1106.07 416.065C1097.69 426.355 1095.4 432.621 1095.4 432.621C1095.4 432.621 1122.49 409.298 1138.05 424.961C1153.62 440.623 1136.09 437.346 1138.05 454.497C1140.01 471.649 1159.93 458.285 1158.18 466.925C1156.44 475.565 1125.77 493.015 1113.79 494.079C1101.8 495.143 1087.17 481.311 1083.55 471.649C1079.92 461.988 1083.55 435.218 1095.4 421.385C1107.26 407.553 1083.55 469.351 1076.76 466.925C1069.98 464.499 1054.29 457.945 1052.2 449.773C1050.11 441.602 1053.95 424.961 1058.43 421.385C1062.9 417.81 1074.25 400.105 1076.76 401.893C1079.28 403.68 1066.27 438.537 1066.27 438.537C1066.27 438.537 1101.72 382.613 1133.92 388.316C1166.12 394.019 1158.18 385.209 1142.19 369.419C1126.2 353.629 1154.56 394.36 1149.91 398.36C1145.26 402.361 1104.27 385.209 1095.4 388.316C1086.53 391.423 1081.5 398.36 1076.76 394.359C1072.03 390.359 1064.65 376.91 1058.43 382.613C1052.2 388.316 1066.27 411.341 1066.27 411.341L723.5 421.385C400.531 465.569 244.351 532.334 2 712.5M1119.67 127.079C1117.88 115.546 1116.73 115.29 1116.73 115.29L1123.85 121.802C1123.85 121.802 1131.31 115.29 1123.85 102.863C1116.39 90.435 1115.02 77.9222 1102.53 71.5807C1090.03 65.2392 1070.62 67.4523 1061.41 75.709C1052.2 83.9658 1045.97 97.5426 1052.2 115.29C1058.43 133.038 1078.47 135.294 1083.55 137.166C1088.62 139.039 1087.3 115.29 1091.27 106.438C1095.23 97.5851 1119.67 127.079 1119.67 127.079ZM1116.73 127.079C1120.91 151.977 1091.27 137.166 1091.27 137.166L1095.4 147.807C1095.4 147.807 1120.99 172.619 1123.85 172.619C1126.71 172.619 1138.05 144.189 1138.05 137.166C1138.05 130.144 1128.58 106.438 1128.58 106.438L1123.85 95.7976C1123.85 95.7976 1139.72 112.183 1142.19 121.802C1144.66 131.421 1144.88 151.254 1142.19 158.447C1139.5 165.639 1116.73 172.619 1116.73 172.619C1116.73 172.619 1133.92 188.877 1138.05 185.004C1142.19 181.131 1138.05 172.619 1133.92 169.087C1129.78 165.554 1105.77 178.961 1111.99 179.131C1118.22 179.301 1205.57 255.953 1205.57 255.953C1205.57 255.953 1214.35 281.021 1211.5 287.277C1208.64 293.534 1199.17 274.254 1200.24 270.721C1201.3 267.189 1215.63 274.254 1215.63 274.254C1215.63 274.254 1225.7 296.811 1225.7 292.001C1225.7 287.192 1222.12 274.254 1222.12 274.254C1222.12 274.254 1227.53 292.001 1228.64 287.831C1229.75 283.66 1228.64 270.721 1228.64 270.721C1228.64 270.721 1233.38 287.277 1235.17 281.957C1236.96 276.637 1231.63 260.677 1231.63 260.677C1231.63 260.677 1239.9 266.423 1238.71 260.677C1237.51 254.931 1220.03 250.633 1215.63 247.058C1211.24 243.483 1206.47 230.544 1206.47 230.544M1242.29 95.7976V62.0897C1242.29 62.0897 1249.16 102.863 1252.95 102.863C1256.75 102.863 1261.06 73.283 1260.63 62.0897C1260.2 50.8963 1250.48 15.9967 1235.17 8.93161C1219.86 1.86657 1189.57 39.0644 1189.57 39.0644C1189.57 39.0644 1189.57 43.7035 1189.57 50.8963C1189.57 58.089 1207.53 86.3492 1218.58 81.0291C1229.62 75.709 1231.63 50.8963 1231.63 50.8963V29.616C1231.63 29.616 1225.7 48.1724 1211.5 50.8963C1197.29 53.6201 1185.27 42.597 1187.19 29.616C1189.11 16.6351 1203.95 2.46241 1215.63 3.0157C1227.32 3.56898 1231.88 8.25071 1238.71 15.9967C1245.53 23.7426 1238.71 89.8817 1235.17 89.8817C1231.63 89.8817 1229.28 75.709 1225.7 75.709C1222.12 75.709 1225.7 95.7976 1222.12 102.863C1218.53 109.928 1197.85 71.5807 1197.85 71.5807C1197.85 71.5807 1204.52 75.709 1200.24 83.9658C1195.95 92.2225 1187.19 80.4333 1187.19 80.4333C1187.19 80.4333 1187.19 42.8948 1181.85 42.597C1176.52 42.2991 1154.62 67.7928 1154.05 80.4333C1153.48 93.0737 1172.68 219.308 1178.31 219.308C1183.94 219.308 1160.44 195.815 1158.18 189.175C1155.92 182.536 1143.9 102.863 1149.91 89.8817C1155.92 76.9007 1178.31 111.077 1178.31 115.29C1178.31 119.504 1178.31 129.889 1178.31 147.807C1178.31 165.724 1205.57 224.032 1205.57 224.032C1205.57 224.032 1203.14 239.993 1197.85 239.993C1192.56 239.993 1189.57 235.524 1187.19 230.544C1184.8 225.565 1196.04 217.053 1200.24 219.308C1204.43 221.564 1206.47 230.544 1206.47 230.544M1242.29 95.7976L1200.24 121.802L1181.85 102.863V130.059M1242.29 95.7976L1238.71 121.802C1238.71 121.802 1242.29 137.166 1238.71 141.295C1235.12 145.423 1211.5 130.059 1211.5 130.059M1181.85 130.059L1231.63 115.29L1222.12 130.059C1222.12 130.059 1202.16 141.295 1189.57 158.447C1176.99 175.599 1181.85 130.059 1181.85 130.059ZM1206.47 230.544C1206.47 230.544 1218.53 242.929 1222.12 242.929C1225.7 242.929 1223.14 241.525 1225.7 239.993C1228.26 238.46 1235.17 242.929 1235.17 242.929C1235.17 242.929 1230.43 241.461 1228.64 235.524C1226.85 229.587 1287.03 128.31 1298.29 121.802C1309.55 115.294 1322.34 106.225 1325.59 115.29C1328.83 124.356 1294.02 192.708 1292.4 195.815C1290.78 198.922 1288.74 217.904 1292.4 219.308C1296.07 220.713 1303.62 203.774 1303.62 203.774L1350.24 206.625C1350.24 206.625 1350.24 233.311 1345.97 235.524C1341.71 237.737 1325.59 206.625 1325.59 206.625C1325.59 206.625 1295.73 180.578 1292.4 182.791C1289.08 185.004 1286.35 189.005 1286.52 192.41C1286.69 195.815 1341.28 206.077 1345.97 203.774C1350.66 201.47 1368.45 185.004 1364.18 185.004C1359.92 185.004 1355.78 181.557 1356.12 179.344C1356.46 177.131 1402.74 158.447 1402.74 158.447C1402.74 158.447 1351.69 190.75 1342.73 195.815C1333.77 200.879 1297.91 182.791 1298.29 176.535C1298.67 170.278 1319.41 151.762 1322.39 147.807C1325.37 143.851 1313.92 131.028 1313.81 130.059C1313.81 130.059 1308.52 116.14 1309.55 112.354C1310.57 108.568 1362.56 94.4782 1350.24 99.3301C1337.91 104.182 1339.49 151.254 1342.73 147.807C1345.97 144.359 1357.79 95.7976 1357.79 95.7976L1412.38 115.29C1412.38 115.29 1420.87 124.994 1419.88 133.379C1418.9 141.763 1399.2 158.447 1399.37 154.957C1399.54 151.467 1409.61 135.081 1409.61 135.081C1409.61 135.081 1380.05 164.277 1377.58 162.916C1375.1 161.554 1381.76 143.04 1381.76 143.04C1381.76 143.04 1356.12 151.807 1350.24 147.807C1344.35 143.806 1349.65 123.888 1350.24 121.802C1350.82 119.717 1395.36 99.3301 1384.02 102.863C1372.67 106.395 1388.83 133.379 1388.83 133.379L1384.02 162.916C1384.02 162.916 1419.88 115.29 1415.32 102.863C1410.76 90.435 1409.61 75.709 1388.83 75.709C1368.06 75.709 1367.55 79.7097 1357.79 89.8817C1348.02 100.054 1343.24 91.6267 1337.91 93.0737C1332.58 94.5208 1307.59 104.723 1315.73 108.949C1323.88 113.174 1322.55 131.293 1322.39 137.166C1322.22 143.04 1277.05 195.815 1277.05 195.815C1277.05 195.815 1269.5 179.344 1264.55 189.175C1259.61 199.007 1277.05 177.599 1277.05 185.004C1277.05 192.41 1249.2 247.058 1249.2 247.058H1239.9L1238.71 255.953C1238.71 255.953 1296.58 233.311 1298.29 235.524C1300 237.737 1292.4 253.059 1295.05 255.953C1297.69 258.847 1316.12 257.102 1318.12 252.08C1320.13 247.058 1310.1 252.08 1306.86 252.08C1303.62 252.08 1301.36 238.929 1303.62 235.524C1305.88 232.119 1396.73 222.415 1393.1 219.308C1389.47 216.201 1314.67 228.047 1313.81 230.544C1312.96 233.041 1332.03 263.316 1332.03 263.316L1364.18 260.677L1402.74 230.544C1402.74 230.544 1360.43 279.409 1353.48 280.17C1346.53 280.93 1336.25 272.679 1336.33 268.338C1336.42 263.997 1363.37 261.27 1368.45 263.316C1373.52 265.361 1369.74 285.793 1360.43 295.406C1351.12 305.019 1349.68 324.773 1357.79 321.581C1365.89 318.389 1402.74 318.474 1402.74 324.773C1402.74 331.072 1394.72 328.859 1388.83 328.008C1382.95 327.156 1357.79 289.278 1357.79 284.681C1357.79 280.085 1375.83 261.358 1377.58 263.316C1379.32 265.273 1368.45 283.574 1368.45 287.831C1368.45 292.087 1387.44 310.303 1402.74 318.389C1418.04 326.476 1443.09 318.389 1446.16 318.389C1449.23 318.389 1486.84 305.663 1490.6 296.47C1494.35 287.277 1489.49 278.084 1494.35 306.77C1499.21 335.456 1424.19 343.244 1419.88 333.328C1415.58 323.411 1419.2 307.664 1412.38 311.409C1405.55 315.154 1442.92 315.154 1442.92 315.154C1442.92 315.154 1437.63 323.241 1434.9 321.581C1432.17 319.921 1431.4 313.282 1431.66 311.409C1431.91 309.536 1442.92 296.47 1442.92 296.47C1442.92 296.47 1428.41 293.874 1425.77 287.831C1423.13 281.787 1423.08 278.68 1425.77 270.721C1428.46 262.762 1465.01 248.079 1473.45 252.08C1481.9 256.08 1495.5 273.956 1490.6 284.681C1485.69 295.406 1456.05 315.514 1452.55 315.154C1449.06 314.795 1434.9 306.77 1434.9 306.77C1434.9 306.77 1413.57 294.087 1412.38 287.277C1411.18 280.468 1417.37 273.7 1423.08 268.338C1428.8 262.975 1466.24 249.696 1462.19 247.058C1458.14 244.419 1419.88 219.308 1402.74 224.032C1385.59 228.757 1386.45 235.524 1377.58 247.058C1368.7 258.591 1344.61 252.08 1339.53 252.08C1334.46 252.08 1322.94 263.316 1322.94 263.316C1322.94 263.316 1311.38 270.721 1306.86 268.338C1302.34 265.954 1301.1 265.316 1298.29 260.677C1295.47 256.038 1238.71 274.254 1238.71 274.254C1238.71 274.254 1279.69 297.407 1287.37 305.323C1295.05 313.239 1325.59 350.99 1325.59 350.99C1325.59 350.99 1322.39 350.99 1313.81 346.692C1305.24 342.393 1239.9 284.681 1239.9 284.681L1235.17 287.831L1303.62 346.692C1303.62 346.692 1312.19 354.523 1303.62 358.183C1295.05 361.843 1299.7 355.374 1295.05 358.183C1290.4 360.992 1285.11 337.839 1280.59 338.137C1276.07 338.435 1280.59 362.354 1280.59 369.419C1280.59 376.484 1336.46 367.717 1298.29 369.419C1260.12 371.121 1264.55 408.547 1255.98 401.893C1247.41 395.238 1244.17 388.316 1246.3 382.613C1248.43 376.91 1264.6 382.102 1266.13 385.209C1267.67 388.316 1263.11 394.828 1264.55 398.36C1266 401.893 1280.59 438.537 1280.59 438.537C1280.59 438.537 1261.57 422.237 1255.98 424.961C1250.39 427.684 1251.67 433.771 1255.98 445.092C1260.29 456.413 1305.97 478.927 1313.81 481.438C1321.66 483.949 1318.16 485.141 1306.86 488.376C1295.56 491.61 1273.72 473.948 1272.57 463.35C1271.42 452.753 1296.07 453.136 1286.52 449.773C1276.96 446.411 1266.17 438.537 1264.55 432.621C1262.93 426.705 1264.55 426.067 1264.55 407.809C1264.55 389.55 1309.55 369.419 1309.55 369.419L1327.76 388.316C1327.76 388.316 1309.55 358.183 1309.55 355.8C1309.55 353.416 1329.08 350.437 1332.03 353.118C1334.97 355.8 1357.79 398.36 1357.79 398.36C1357.79 398.36 1362.14 413.895 1350.24 404.957C1338.34 396.019 1324.56 386.954 1322.39 388.316C1320.21 389.678 1353.39 417.81 1353.48 421.385C1353.56 424.961 1353.48 433.898 1345.97 432.621C1338.47 431.345 1321.36 420.364 1318.12 421.385C1314.88 422.407 1313.81 445.092 1313.81 445.092C1313.81 445.092 1355.01 424.961 1357.79 454.497C1360.56 484.034 1325.71 498.122 1342.73 496.93C1359.75 495.739 1357.79 493.696 1357.79 485.694C1357.79 477.693 1342.73 477.693 1342.73 477.693C1342.73 477.693 1332.54 477.906 1336.33 488.376C1340.13 498.846 1306.86 474.373 1303.62 463.35C1300.38 452.327 1309.55 449.773 1309.55 449.773C1309.55 449.773 1290.7 442.41 1298.29 432.621C1305.88 422.832 1357.79 438.537 1357.79 438.537C1357.79 438.537 1353.48 407.013 1357.79 407.809C1362.09 408.605 1733 416.065 1733 416.065C1757.92 413.17 1772.51 411.934 1786 401.893" stroke="#006DFD" stroke-width="5"/>
</svg>
