<svg width="45" height="45" viewBox="0 0 45 45" fill="none" xmlns="http://www.w3.org/2000/svg">
<path fill-rule="evenodd" clip-rule="evenodd" d="M11.475 1.52953C10.4921 1.70274 9.39331 2.514 7.78181 4.25622C7.37168 4.69965 6.83506 5.27961 6.58931 5.54502C6.34357 5.81043 5.82859 6.35718 5.44487 6.76002C4.55311 7.69624 3.16004 9.25266 2.87996 9.62571C2.444 10.2064 2.11235 10.9821 1.98176 11.7265C1.91912 12.0832 1.91687 12.9923 1.97767 13.3727C2.11901 14.2575 2.47231 14.9595 3.28357 15.9674C4.18604 17.0887 5.58343 18.2444 6.49594 18.6243C7.11185 18.8807 7.54583 18.9615 8.30251 18.9606C8.83184 18.9601 9.06931 18.9389 9.40289 18.8624C9.63685 18.8088 9.83746 18.7649 9.84862 18.7649C9.85978 18.7649 9.85757 20.2212 9.84371 22.0011C9.81595 25.5648 9.86842 32.3857 9.94357 34.9874C10.0199 37.629 10.0602 38.252 10.1868 38.7503C10.4622 39.8338 11.1628 40.8292 12.06 41.4117C12.5195 41.71 12.7995 41.831 13.6957 42.1185C19.0527 43.8372 24.2741 43.9586 30.015 42.4979C31.3277 42.1639 32.3907 41.8334 32.7769 41.6391C33.7257 41.1616 34.4224 40.4483 34.8783 39.4874C35.1741 38.8638 35.2744 38.4245 35.3252 37.5299C35.4663 35.0459 35.5678 27.2673 35.5239 22.3023L35.4925 18.7521L35.6225 18.7852C36.2073 18.9345 36.4258 18.9605 37.08 18.9589C37.6859 18.9574 37.8361 18.9417 38.2243 18.8391C38.843 18.6756 39.4165 18.3833 40.0384 17.9144C40.9765 17.2072 41.5489 16.6495 42.2238 15.7853C43.1071 14.6541 43.4342 13.7938 43.435 12.5999C43.4358 11.5355 43.1675 10.6233 42.6144 9.80994C42.3101 9.36241 40.7138 7.56961 39.5309 6.34687C39.1587 5.96217 38.5715 5.33388 38.2259 4.95066C36.2984 2.81334 35.2775 1.96194 34.2225 1.61193L33.9075 1.50744H30.8241H27.7407L27.4402 1.65535C27.1459 1.80025 26.838 2.08803 26.7079 2.33994C26.6759 2.40181 26.5855 2.67519 26.507 2.94744C26.1658 4.12995 25.4833 5.02104 24.4715 5.60464C23.7595 6.01531 22.9982 6.19203 22.1175 6.15112C21.2084 6.10891 20.4772 5.84998 19.7775 5.32249C18.9405 4.6915 18.4703 4.00485 18.1751 2.98227C18.0981 2.7156 17.9955 2.41959 17.947 2.32441C17.8174 2.07021 17.5144 1.78819 17.2101 1.63879L16.9425 1.50744L14.31 1.50064C12.8621 1.49691 11.5864 1.50987 11.475 1.52953ZM11.6978 4.95511C11.2962 5.27358 10.5143 6.04893 9.70628 6.92994C9.33175 7.33831 8.55604 8.16856 7.98247 8.77494C6.23413 10.6234 5.51242 11.4521 5.32306 11.8285C5.16997 12.1329 5.15647 12.1909 5.1553 12.5485C5.15372 13.0464 5.25245 13.2689 5.74759 13.883C6.31742 14.5898 7.14506 15.3322 7.66675 15.6044C7.8692 15.7101 7.94993 15.7249 8.32501 15.7257C8.69621 15.7264 8.7868 15.7105 9.01279 15.605C9.15593 15.5382 9.38881 15.3938 9.53029 15.2841C9.98303 14.9331 10.3583 14.802 10.9125 14.8012C11.8431 14.7999 12.5995 15.318 12.9686 16.2097L13.067 16.4474L13.0728 24.1199C13.0783 31.3743 13.1065 33.6282 13.2305 36.7199C13.2811 37.9814 13.3234 38.1838 13.602 38.5004C13.8254 38.7542 13.9622 38.8231 14.6925 39.0504C16.6364 39.6554 18.067 39.9583 19.9575 40.1653C20.8479 40.2628 23.0411 40.3007 23.9245 40.2338C26.2551 40.0575 28.3113 39.6748 30.6 38.9914C31.3787 38.7588 31.5095 38.6927 31.7653 38.4021C32.0445 38.0849 32.0831 37.9119 32.1308 36.7649C32.2535 33.8123 32.2821 31.5363 32.2885 24.2324C32.296 15.5024 32.2598 16.3371 32.6575 15.7363C32.9108 15.3536 33.3557 15.0253 33.8067 14.8883C34.0575 14.8121 34.1963 14.7985 34.5512 14.8152C35.0884 14.8406 35.3963 14.9507 35.8045 15.2636C36.2144 15.5778 36.5176 15.7068 36.9171 15.737C37.3817 15.7721 37.6467 15.6792 38.1435 15.307C38.6839 14.9022 39.1792 14.4222 39.6131 13.883C40.0976 13.281 40.2052 13.0434 40.2043 12.5774C40.2036 12.1665 40.143 11.9523 39.9369 11.6324C39.7575 11.3539 38.4726 9.91911 37.2793 8.66473C36.7861 8.14624 36.1627 7.47799 35.894 7.17973C35.1326 6.33441 34.1231 5.32267 33.7287 5.0097L33.3699 4.72494H31.3437H29.3174L29.1209 5.13322C28.3517 6.73054 26.9803 8.05588 25.3704 8.75788C24.2069 9.26526 22.9269 9.47829 21.7203 9.36543C20.6703 9.26724 19.8673 9.04219 18.9675 8.59404C18.22 8.22171 17.6693 7.81819 17.0065 7.15701C16.3787 6.53065 15.8721 5.82307 15.5475 5.119L15.3675 4.72854L13.6778 4.72674L11.988 4.72494L11.6978 4.95511Z" fill="#45556C"/>
</svg>
