<svg width="45" height="45" viewBox="0 0 45 45" fill="none" xmlns="http://www.w3.org/2000/svg">
<path d="M20.2822 2.77588C20.9374 2.73438 25.3759 2.7933 26.3369 2.85791C28.7213 3.01826 31.9903 3.32305 32.9003 3.46729C37.132 4.13796 40.631 7.4731 41.4697 11.6255C41.7616 13.071 42.1752 18.125 42.2421 21.1499C42.3031 23.9056 42.1821 26.61 41.8212 30.4858C41.6014 32.8469 41.4943 33.4972 41.2099 34.3774C40.0329 38.0204 36.9579 40.7466 33.2597 41.4692L32.9003 41.5337C31.925 41.6882 28.4701 42.0042 25.9101 42.1704C24.7246 42.2474 20.2752 42.2474 19.0898 42.1704C16.5297 42.0042 13.0748 41.6882 12.0995 41.5337C7.87676 40.8644 4.40636 37.5667 3.53412 33.3999C3.41811 32.8457 3.34818 32.2891 3.1767 30.4849C2.65231 24.968 2.61312 21.3686 3.02045 16.3081C3.22179 13.8069 3.38978 12.2896 3.53412 11.6001C4.40659 7.43223 7.87565 4.13682 12.0995 3.46729C13.1631 3.29873 17.1021 2.94497 19.1064 2.84033C19.6128 2.81392 20.1427 2.78473 20.2822 2.77588ZM33.6318 33.5913C32.0401 33.0578 30.2421 32.8398 28.6083 32.9849C26.1584 33.2025 23.7998 34.1374 21.9003 35.647C21.44 36.0129 20.4464 36.955 19.3173 38.0894L18.3574 39.0542L17.582 39.8325L18.6786 39.9058L19.122 39.9351C21.0305 40.0613 23.0535 40.0693 25.3134 39.9614C26.6214 39.899 28.3108 39.7707 29.788 39.6323C31.2499 39.4954 32.5487 39.3452 33.0488 39.2339C34.1176 38.9961 35.1685 38.5155 36.0888 37.8511L36.4745 37.5552C36.6938 37.377 36.9786 37.1017 37.1992 36.8706C37.3099 36.7546 37.4131 36.6408 37.4882 36.5483C37.5236 36.5048 37.5651 36.4513 37.5976 36.3979C37.6113 36.3754 37.6413 36.3243 37.662 36.2583C37.6721 36.2263 37.6907 36.157 37.6855 36.0688C37.6797 35.9718 37.6404 35.8202 37.4999 35.7056C36.4086 34.8151 35.0172 34.0558 33.6318 33.5913ZM4.99017 24.1206V24.3345C4.99166 25.6844 5.4356 31.253 5.64838 32.5913C6.04783 35.1032 7.75287 37.3991 10.0654 38.5552C11.1003 39.0726 11.8878 39.2764 13.4189 39.4497L14.4062 39.561L14.6425 39.5884L14.8134 39.4204L15.5576 38.687H15.5585C15.969 38.2829 17.0733 37.1918 18.0136 36.2622C18.9606 35.326 19.8669 34.4487 20.037 34.3013C22.3313 32.313 25.2095 31.0819 28.2636 30.7827C28.8977 30.7206 30.4138 30.7199 31.0458 30.7817H31.0468C33.5531 31.0271 35.9968 31.9132 37.9775 33.2905C38.0771 33.3598 38.1749 33.4266 38.2538 33.478C38.293 33.5035 38.3304 33.5266 38.3613 33.5454C38.3741 33.5532 38.4334 33.5902 38.4921 33.6128C38.6072 33.657 38.7388 33.6614 38.8632 33.6157C38.9749 33.5747 39.0482 33.5064 39.0888 33.4595C39.1642 33.3724 39.2022 33.2748 39.2206 33.2231C39.2629 33.1049 39.2949 32.9484 39.3242 32.7739C39.3847 32.4131 39.4512 31.8461 39.5322 31.0317C39.7705 28.6326 40.0086 25.3116 40.0097 24.3345V24.1206L40.0107 23.6196H4.9892L4.99017 24.1206ZM14.5449 26.0864C14.9667 26.105 15.3311 26.1366 15.4247 26.1577C16.0862 26.3076 16.6554 26.6039 17.1064 27.0239C17.8482 27.7149 18.202 28.5151 18.2519 29.7212C18.3166 31.2877 17.8223 32.4019 16.8574 33.1157C16.1428 33.6442 15.457 33.8564 14.3115 33.853C13.5388 33.8507 13.129 33.7769 12.6201 33.5737C11.6003 33.1665 10.8195 32.2808 10.5449 31.2222C10.4619 30.9022 10.4123 30.4528 10.4072 29.9946C10.402 29.5334 10.4424 29.1098 10.5146 28.8384C10.5858 28.5704 10.6207 28.4438 10.6552 28.3462C10.6865 28.2576 10.719 28.1878 10.7958 28.0347C11.2986 27.0319 12.2331 26.3376 13.3378 26.146C13.4861 26.1203 13.6585 26.0898 13.7216 26.0786C13.7171 26.0794 13.7361 26.0769 13.7929 26.0747C13.8446 26.0727 13.9119 26.0715 13.9911 26.0718C14.1494 26.0724 14.3454 26.0777 14.5449 26.0864ZM38.8876 32.6958L38.8954 32.6997H38.8945C38.8937 32.6993 38.8919 32.6985 38.8906 32.6978C38.8897 32.6972 38.8887 32.6965 38.8876 32.6958ZM13.9833 28.3091C13.6001 28.3475 13.2113 28.4576 12.9453 28.7856C12.6926 29.0974 12.6354 29.5062 12.6328 29.9136C12.6305 30.2532 12.66 30.5669 12.7704 30.8345C12.8925 31.1301 13.0979 31.3332 13.3661 31.4653C13.4908 31.5268 13.6122 31.5719 13.7831 31.5952C13.9277 31.6148 14.1042 31.6177 14.3329 31.6177C14.6656 31.6177 14.9661 31.5998 15.2177 31.5063C15.5123 31.3968 15.6952 31.2037 15.8271 30.9702C15.9199 30.8059 15.9685 30.6124 15.9951 30.4419C16.0228 30.2636 16.0318 30.0715 16.0263 29.8862C16.0208 29.7011 15.9998 29.5104 15.9609 29.3364C15.9243 29.1727 15.8629 28.9801 15.7509 28.8228C15.559 28.5532 15.2432 28.4212 14.9677 28.3569C14.6747 28.2885 14.3343 28.2739 13.9833 28.3091ZM31.2372 5.51318C26.6929 5.03901 23.6137 4.88694 20.6367 4.99463C17.9001 5.09364 13.3177 5.4916 12.0634 5.74658C11.3927 5.88299 10.6694 6.13857 10.0283 6.4624C7.73931 7.61871 6.0453 9.91278 5.64838 12.4087C5.43563 13.7466 4.99171 19.3151 4.99017 20.6655V20.8794L4.9892 21.3804H40.0107L40.0097 20.8794V20.6655C40.0082 19.3342 39.5601 13.7129 39.3515 12.4077C38.9523 9.91111 37.2591 7.61791 34.9716 6.4624C33.8763 5.90919 33.013 5.69849 31.2372 5.51318ZM22.5449 14.7319L32.2197 14.7417L32.3769 14.8159C32.9884 15.1028 33.2054 15.8504 32.8535 16.4077C32.7206 16.618 32.5184 16.7864 32.3056 16.8726L32.1435 16.938H22.5224C17.8628 16.938 15.4332 16.937 14.1396 16.9263C13.4907 16.9209 13.1372 16.9126 12.9335 16.9019C12.8324 16.8965 12.7793 16.8914 12.7509 16.8872C12.7381 16.8853 12.7319 16.8834 12.7314 16.8833H12.7304C12.4224 16.7759 12.0981 16.4333 12.0087 16.1235C11.8598 15.607 12.1398 15.0168 12.6913 14.7896L12.8544 14.7222L22.5449 14.7319ZM17.9091 8.75049L22.7695 8.75635L22.9257 8.82959C23.1805 8.94905 23.3801 9.14565 23.5009 9.39111C23.5634 9.51801 23.5748 9.55439 23.581 9.5835C23.5888 9.62054 23.5947 9.67717 23.5947 9.85498C23.5947 10.0327 23.5888 10.0894 23.581 10.1265C23.5748 10.1556 23.5635 10.1918 23.5009 10.3188C23.3801 10.5644 23.1805 10.7609 22.9257 10.8804L22.7704 10.9526H12.8261L12.6357 10.8618C12.382 10.7405 12.182 10.5414 12.0683 10.3101C12.0231 10.218 12.0157 10.1905 12.0107 10.1626C12.0026 10.1175 11.998 10.0449 11.998 9.85498C11.998 9.68663 12.0032 9.60183 12.0117 9.54639C12.0181 9.50455 12.0266 9.47546 12.0497 9.42529C12.1134 9.28743 12.2345 9.13487 12.3935 9.00635C12.5466 8.88257 12.7054 8.80525 12.8329 8.77588C12.8503 8.77508 12.8744 8.77484 12.9052 8.77393C12.9802 8.7717 13.0872 8.76914 13.2236 8.76709C13.4961 8.76299 13.8798 8.76009 14.3466 8.75732C15.2801 8.75179 16.5428 8.7486 17.9091 8.75049Z" fill="#45556C" stroke="#45556C"/>
</svg>
