<svg width="45" height="45" viewBox="0 0 45 45" fill="none" xmlns="http://www.w3.org/2000/svg">
<path d="M28.2584 8.40629C21.1417 7.8475 14.1022 7.84765 6.98547 8.40671C6.23099 13.9073 5.81015 18.4256 5.79126 22.8627C5.80935 27.1141 6.19718 31.3991 6.8933 36.5864C14.0721 37.1553 21.1718 37.1553 28.3506 36.587C29.0466 31.3937 29.4337 27.0677 29.4519 22.8163C29.433 18.3792 29.0128 13.9045 28.2584 8.40629Z" stroke="#45556C" stroke-width="3" stroke-linejoin="round"/>
<path d="M17.6229 7.98725V3.09961" stroke="#45556C" stroke-width="3" stroke-linecap="round" stroke-linejoin="round"/>
<path d="M4.59183 8.61552C13.3275 7.7779 21.9216 7.7779 30.6572 8.61552" stroke="#45556C" stroke-width="3" stroke-linecap="round" stroke-linejoin="round"/>
<path d="M4.59183 36.3848C13.3275 37.2223 21.9216 37.2223 30.6572 36.3848" stroke="#45556C" stroke-width="3" stroke-linecap="round" stroke-linejoin="round"/>
<path d="M6.36612 16.0381C13.987 17.8788 21.5427 18.8759 29.3407 19.0621" stroke="#45556C" stroke-width="3" stroke-linecap="round" stroke-linejoin="round"/>
<path d="M5.86429 25.7241C17.292 28.0839 28.7213 29.6117 40.3658 30.3298" stroke="#45556C" stroke-width="3" stroke-linecap="round" stroke-linejoin="round"/>
<path d="M17.6229 41.9005V37.5732" stroke="#45556C" stroke-width="3" stroke-linecap="round" stroke-linejoin="round"/>
</svg>
