<svg width="45" height="45" viewBox="0 0 45 45" fill="none" xmlns="http://www.w3.org/2000/svg">
<path d="M31.7523 3.8457C32.9458 3.97436 34.1281 4.1127 35.2984 4.24831C38.1622 4.58023 40.4461 6.86299 40.7675 9.72797C40.8983 10.8927 41.0305 12.0696 41.1531 13.2577" stroke="#45556C" stroke-width="3" stroke-linecap="round" stroke-linejoin="round"/>
<path d="M31.7523 3.8457C32.9458 3.97436 34.1281 4.1127 35.2984 4.24831C38.1622 4.58023 40.4461 6.86299 40.7675 9.72797C40.8983 10.8927 41.0305 12.0696 41.1531 13.2577" stroke="#45556C" stroke-width="3" stroke-linecap="round" stroke-linejoin="round"/>
<path d="M31.7523 41.1546C32.9458 41.026 34.1281 40.8875 35.2984 40.752C38.1622 40.4201 40.4461 38.1374 40.7675 35.2724C40.8983 34.1077 41.0305 32.9306 41.1531 31.7427" stroke="#45556C" stroke-width="3" stroke-linecap="round" stroke-linejoin="round"/>
<path d="M31.7523 41.1546C32.9458 41.026 34.1281 40.8875 35.2984 40.752C38.1622 40.4201 40.4461 38.1374 40.7675 35.2724C40.8983 34.1077 41.0305 32.9306 41.1531 31.7427" stroke="#45556C" stroke-width="3" stroke-linecap="round" stroke-linejoin="round"/>
<path d="M13.2466 3.8457C12.053 3.97436 10.8706 4.1127 9.70048 4.24831C6.83669 4.58023 4.55268 6.86299 4.23125 9.72797C4.10057 10.8927 3.96826 12.0696 3.84567 13.2577" stroke="#45556C" stroke-width="3" stroke-linecap="round" stroke-linejoin="round"/>
<path d="M13.2466 3.8457C12.053 3.97436 10.8706 4.1127 9.70048 4.24831C6.83669 4.58023 4.55268 6.86299 4.23125 9.72797C4.10057 10.8927 3.96826 12.0696 3.84567 13.2577" stroke="#45556C" stroke-width="3" stroke-linecap="round" stroke-linejoin="round"/>
<path d="M13.2466 41.1546C12.053 41.026 10.8706 40.8875 9.70048 40.752C6.83669 40.4201 4.55268 38.1374 4.23125 35.2724C4.10057 34.1077 3.96826 32.9306 3.84567 31.7427" stroke="#45556C" stroke-width="3" stroke-linecap="round" stroke-linejoin="round"/>
<path d="M13.2466 41.1546C12.053 41.026 10.8706 40.8875 9.70048 40.752C6.83669 40.4201 4.55268 38.1374 4.23125 35.2724C4.10057 34.1077 3.96826 32.9306 3.84567 31.7427" stroke="#45556C" stroke-width="3" stroke-linecap="round" stroke-linejoin="round"/>
<path d="M12.3745 16.0846C15.604 13.9788 18.3658 12.5848 21.9372 11.3983C22.3015 11.2774 22.6964 11.2774 23.0606 11.3983C26.6322 12.5848 29.3953 13.9791 32.625 16.0849C33.0837 16.3839 33.3801 16.876 33.4308 17.4201C33.7699 21.044 33.7881 23.9778 33.4353 27.5878C33.3825 28.1276 33.0867 28.6148 32.6315 28.9117C29.3993 31.0196 26.6345 32.4151 23.0607 33.6021C22.6965 33.723 22.3016 33.723 21.9374 33.6021C18.3638 32.4151 15.6009 31.0196 12.369 28.9117C11.9137 28.6148 11.618 28.1276 11.5652 27.5878C11.2123 23.9777 11.2297 21.0438 11.5686 17.4198C11.6194 16.8757 11.9159 16.3836 12.3745 16.0846Z" stroke="#45556C" stroke-width="3" stroke-linecap="round" stroke-linejoin="round"/>
<path d="M12.3745 16.0846C15.604 13.9788 18.3658 12.5848 21.9372 11.3983C22.3015 11.2774 22.6964 11.2774 23.0606 11.3983C26.6322 12.5848 29.3953 13.9791 32.625 16.0849C33.0837 16.3839 33.3801 16.876 33.4308 17.4201C33.7699 21.044 33.7881 23.9778 33.4353 27.5878C33.3825 28.1276 33.0867 28.6148 32.6315 28.9117C29.3993 31.0196 26.6345 32.4151 23.0607 33.6021C22.6965 33.723 22.3016 33.723 21.9374 33.6021C18.3638 32.4151 15.6009 31.0196 12.369 28.9117C11.9137 28.6148 11.618 28.1276 11.5652 27.5878C11.2123 23.9777 11.2297 21.0438 11.5686 17.4198C11.6194 16.8757 11.9159 16.3836 12.3745 16.0846Z" stroke="#45556C" stroke-width="3" stroke-linecap="round" stroke-linejoin="round"/>
<path d="M33.0002 16.6531L22.4994 21.6977L11.996 16.6475" stroke="#45556C" stroke-width="3" stroke-linecap="round" stroke-linejoin="round"/>
<path d="M33.0002 16.6531L22.4994 21.6977L11.996 16.6475" stroke="#45556C" stroke-width="3" stroke-linecap="round" stroke-linejoin="round"/>
<path d="M22.5 21.6958V33.4902" stroke="#45556C" stroke-width="3" stroke-linecap="round" stroke-linejoin="round"/>
<path d="M22.5 21.6958V33.4902" stroke="#45556C" stroke-width="3" stroke-linecap="round" stroke-linejoin="round"/>
</svg>
