<svg width="250" height="250" viewBox="0 0 250 250" fill="none" xmlns="http://www.w3.org/2000/svg">
<path d="M181.556 68.1016V81.5449H168.114V68.1016H181.556Z" fill="#006DFD" stroke="white"/>
<path d="M181.556 46.0566V59.499H168.114V46.0566H181.556Z" fill="#006DFD" stroke="white"/>
<path d="M205.658 112.191V125.634H197.711C196.72 124.969 195.697 124.364 194.636 123.855L194.182 123.639L194.176 123.65C193.992 123.564 193.773 123.461 193.51 123.338C195.434 120.148 196.752 116.38 197.43 112.191H205.658Z" fill="#006DFD" stroke="white"/>
<path d="M205.659 90.1455V103.589H197.904C197.576 98.1089 195.824 93.5824 192.643 90.1455H205.659Z" fill="#006DFD" stroke="white"/>
<path d="M205.66 46.0566V59.499H192.217V46.0566H205.66Z" fill="#006DFD" stroke="white"/>
<path d="M205.66 68.1016V81.5449H192.217V68.1016H205.66Z" fill="#006DFD" stroke="white"/>
<path d="M159.303 0.5V15.248H222.098V200.531H198.463V190.938H212.504V171.532C214.666 167.127 216.637 162.239 217.284 158.031L217.342 157.623C217.654 155.321 217.377 152.957 216.538 150.787L216.537 150.785L216.245 150.113C215.702 148.9 214.419 146.163 212.503 142.854V24.8428H161.267V87.8291C160.497 88.3955 159.773 89.019 159.098 89.7002C156.07 92.7582 154.239 96.7367 153.604 101.534C151.734 100.009 149.754 98.6828 147.677 97.6621L147.264 95.8203V90.4111C149.306 85.6373 150.397 80.0248 150.464 73.8457C150.492 71.0729 150.054 64.7934 146.649 59.1914C143.22 53.5497 136.819 48.6602 125.077 48.6602C113.333 48.6602 106.933 53.5831 103.503 59.2412C100.311 64.5085 99.7258 70.3573 99.687 73.3037L99.686 73.8535C99.7523 79.8716 100.793 85.3533 102.736 90.0459V95.8203L102.317 97.6826C100.284 98.6824 98.3452 99.9743 96.5103 101.459C95.8663 96.6967 94.0376 92.7426 91.0239 89.6992C90.3133 88.9816 89.5482 88.3301 88.7329 87.7412V24.8428H37.4966V142.87C34.9349 147.296 33.5038 150.7 33.4604 150.812V150.812C32.6266 152.973 32.3475 155.327 32.6548 157.629L32.6558 157.63C33.2355 161.941 35.2633 167.009 37.4966 171.559V190.939H51.5366V200.533H27.9019V15.248H90.6968V0.5H159.303ZM102.736 45.9277H119.685V28.9785H102.736V45.9277ZM130.316 45.9277H147.265V28.9785H130.316V45.9277Z" fill="#006DFD" stroke="white"/>
<path d="M57.7839 68.1016V81.5449H44.3416V68.1016H57.7839Z" fill="#006DFD" stroke="white"/>
<path d="M57.7839 46.0566V59.499H44.3416V46.0566H57.7839Z" fill="#006DFD" stroke="white"/>
<path d="M52.6941 112.192C53.3701 116.365 54.6803 120.122 56.5945 123.306C55.4811 123.816 55.4105 123.85 55.363 123.872L55.3611 123.873C54.3099 124.378 53.2952 124.977 52.3123 125.635H44.3416V112.192H52.6941Z" fill="#006DFD" stroke="white"/>
<path d="M57.4827 90.1455C54.3014 93.5813 52.5495 98.106 52.2209 103.589H44.342L44.3411 90.1455H57.4827Z" fill="#006DFD" stroke="white"/>
<path d="M81.8867 46.0566V59.499H68.4443V46.0566H81.8867Z" fill="#006DFD" stroke="white"/>
<path d="M81.8867 68.1016V81.5449H68.4443V68.1016H81.8867Z" fill="#006DFD" stroke="white"/>
<path d="M103.87 124.464C101.066 128.277 98.5115 132.615 97.1174 135.521L97.0364 135.691L97.0872 135.872C98.1357 139.62 101.034 145.435 103.843 150.399L104.779 152.053L104.778 150.153L104.774 124.761V123.237L103.87 124.464ZM145.379 124.952L145.376 149.854V151.762L146.312 150.1C149.073 145.196 151.882 139.526 152.911 135.853L152.962 135.671L152.88 135.501C151.513 132.646 149.028 128.417 146.283 124.657L145.38 123.419L145.379 124.952ZM107.859 168.423L107.762 168.291C106.86 167.059 106.131 165.718 105.619 164.282L105.415 163.709L104.892 164.021C103.92 164.599 102.851 164.879 101.794 164.879C99.7815 164.879 97.8162 163.881 96.6584 162.057H96.6575C95.7611 160.642 93.0611 156.291 90.4358 151.18C87.8834 146.21 85.4354 140.584 84.7483 136.247L84.6868 135.831C84.5525 134.816 84.6749 133.785 85.0432 132.831C85.6541 131.251 88.2754 125.774 92.1223 120.033C95.9791 114.277 101.005 108.352 106.4 105.764L106.399 105.763C106.503 105.713 108.686 104.715 110.854 103.724C111.936 103.229 113.011 102.736 113.816 102.368C114.218 102.184 114.553 102.031 114.787 101.924C114.904 101.87 114.996 101.828 115.059 101.8C115.09 101.786 115.114 101.775 115.13 101.768C115.138 101.764 115.145 101.761 115.149 101.759C115.151 101.758 115.153 101.757 115.154 101.757L115.155 101.756L115.217 101.728L115.269 101.684L118.67 98.8135L123.79 103.91L118.182 141.414C118.142 141.674 118.208 141.94 118.362 142.151L118.363 142.152L124.279 150.248V150.249C124.466 150.504 124.764 150.66 125.086 150.66C125.408 150.66 125.707 150.504 125.894 150.249V150.248L131.809 142.154C131.966 141.94 132.03 141.674 131.992 141.416V141.415L126.379 103.894L131.482 98.8145L134.883 101.684L134.934 101.728L134.995 101.756H134.996C134.997 101.756 134.999 101.758 135.001 101.759C135.005 101.761 135.012 101.763 135.02 101.767C135.036 101.774 135.06 101.786 135.091 101.801C135.154 101.83 135.247 101.872 135.365 101.927C135.6 102.036 135.935 102.191 136.338 102.378C137.144 102.752 138.219 103.251 139.294 103.749C141.455 104.751 143.58 105.736 143.579 105.735L143.587 105.74L143.596 105.744C148.992 108.333 154.019 114.258 157.876 120.014C161.483 125.397 164.012 130.547 164.818 132.471L164.955 132.812C165.324 133.766 165.446 134.798 165.311 135.811C164.72 140.2 162.196 146.03 159.561 151.159C156.935 156.27 154.236 160.621 153.34 162.036C152.182 163.859 150.215 164.86 148.2 164.858H148.199C147.189 164.858 146.165 164.602 145.226 164.072L144.71 163.78L144.51 164.338C143.973 165.831 143.196 167.221 142.238 168.493L142.137 168.627V168.794L142.136 242.025C142.136 246.153 138.788 249.499 134.661 249.499C130.532 249.499 127.187 246.153 127.187 242.024L127.188 177.296V176.752L126.647 176.797C126.117 176.841 125.591 176.867 125.074 176.867C124.539 176.867 123.991 176.841 123.441 176.794L122.9 176.748L122.899 177.291L122.814 242.022V242.023C122.814 246.151 119.468 249.498 115.338 249.498C111.211 249.498 107.863 246.152 107.863 242.023L107.859 168.587V168.423Z" fill="#006DFD" stroke="white"/>
<path d="M125.077 57.7275C131.043 57.7276 135.153 59.2658 137.766 61.9961C140.382 64.7297 141.581 68.7469 141.53 73.8877C141.449 81.3254 139.632 87.2097 136.694 91.2207C133.764 95.2209 129.711 97.3739 125.077 97.374C120.441 97.374 116.388 95.221 113.458 91.2207C110.612 87.335 108.818 81.6912 108.634 74.5801L108.621 73.8867C108.571 68.7462 109.771 64.7295 112.387 61.9961C115 59.2657 119.111 57.7275 125.077 57.7275Z" fill="#006DFD" stroke="white"/>
<path d="M192.18 147.681L192.178 168.057L192.177 169.965L193.113 168.302C195.372 164.289 197.676 159.641 198.521 156.624L198.572 156.442L198.491 156.272C197.369 153.931 195.332 150.466 193.083 147.386L192.18 146.147V147.681ZM161.662 183.221L161.565 183.089C160.833 182.088 160.239 180.997 159.824 179.831L159.62 179.259L159.098 179.569C158.316 180.035 157.457 180.26 156.609 180.26H156.608C154.991 180.26 153.412 179.458 152.482 177.992H152.481C151.892 177.061 150.347 174.573 148.646 171.456V171.358C152.314 171.231 155.69 169.536 157.976 166.712L157.986 166.698L157.996 166.685L159.056 165.171L159.062 165.16C160.524 162.834 163.368 158.144 166.009 152.831C168.643 147.531 171.102 141.558 171.758 136.681C172.041 134.585 171.787 132.437 171.024 130.463L171.022 130.458C170.993 130.385 170.459 129.144 169.493 127.191L170.412 126.417L174.561 130.546L170.073 160.546V160.547C170.039 160.783 170.1 161.019 170.235 161.206L170.236 161.208L174.929 167.629V167.63C175.098 167.867 175.369 168.003 175.655 168.003C175.945 168.003 176.212 167.862 176.379 167.636L176.381 167.634L181.076 161.208L181.077 161.206C181.196 161.042 181.259 160.839 181.247 160.631L181.237 160.541L176.751 130.549L180.903 126.416L183.623 128.712L183.675 128.755L183.735 128.783H183.736C183.737 128.784 183.739 128.784 183.74 128.785C183.744 128.787 183.749 128.789 183.756 128.792C183.769 128.798 183.789 128.807 183.814 128.819C183.866 128.843 183.942 128.878 184.038 128.923C184.23 129.012 184.505 129.14 184.835 129.293C185.494 129.599 186.374 130.006 187.253 130.414C189.005 131.227 190.737 132.03 190.764 132.042L190.771 132.046C195.163 134.152 199.265 138.983 202.42 143.69C205.171 147.797 207.155 151.737 207.941 153.519L208.204 154.145C208.5 154.912 208.598 155.741 208.488 156.553L208.487 156.554C208.007 160.129 205.949 164.886 203.794 169.083C202.184 172.218 200.539 175.003 199.509 176.688L198.707 177.977C197.778 179.441 196.198 180.243 194.581 180.241H194.58C193.767 180.241 192.945 180.037 192.191 179.61L191.675 179.318L191.475 179.876C191.039 181.089 190.408 182.218 189.628 183.252L189.527 183.386V183.553L189.526 243.474C189.526 246.802 186.829 249.499 183.502 249.499C180.174 249.499 177.478 246.801 177.478 243.474L177.479 190.511V189.968L176.938 190.012C176.506 190.047 176.079 190.067 175.658 190.067C175.223 190.067 174.778 190.046 174.328 190.009L173.787 189.965L173.786 190.507L173.716 243.472V243.473C173.717 246.801 171.02 249.499 167.691 249.499C164.364 249.499 161.666 246.801 161.666 243.474L161.662 183.384V183.221Z" fill="#006DFD" stroke="white"/>
<path d="M175.659 92.7656C180.525 92.7656 183.861 94.0205 185.976 96.2305C187.961 98.3053 188.946 101.3 189.027 105.121L189.031 105.896C188.965 111.97 187.481 116.765 185.091 120.027C182.709 123.279 179.419 125.024 175.659 125.024C171.897 125.024 168.607 123.278 166.225 120.026C163.835 116.764 162.352 111.968 162.285 105.896C162.243 101.703 163.223 98.4435 165.34 96.2305C167.455 94.0205 170.791 92.7657 175.659 92.7656Z" fill="#006DFD" stroke="white"/>
<path d="M57.043 147.228C54.7451 150.352 52.6517 153.905 51.5078 156.29L51.4268 156.46L51.4775 156.641C52.3388 159.719 54.7145 164.485 57.0146 168.547L57.9502 170.198V168.3L57.9453 147.523V146.001L57.043 147.228ZM60.4717 183.222L60.375 183.09C59.6418 182.089 59.0501 180.998 58.6348 179.832L58.4307 179.259L57.9082 179.57C57.1271 180.036 56.2678 180.261 55.4199 180.261H55.4189C53.8012 180.261 52.2228 179.458 51.293 177.993C50.5602 176.837 48.3524 173.28 46.2061 169.101C44.1179 165.035 42.1212 160.442 41.5615 156.909L41.5117 156.57C41.4034 155.756 41.5014 154.927 41.7969 154.161C42.2943 152.875 44.4356 148.4 47.5801 143.707C50.7346 138.999 54.8358 134.169 59.2266 132.062H59.2275L59.2354 132.059C59.2407 132.056 59.2479 132.053 59.2568 132.049C59.2747 132.041 59.2989 132.03 59.3291 132.016C59.3895 131.988 59.4733 131.949 59.5771 131.901C59.7849 131.806 60.0729 131.674 60.4131 131.519C61.0933 131.207 61.9839 130.8 62.8691 130.395C63.7545 129.989 64.6344 129.586 65.293 129.285C65.6221 129.135 65.8963 129.01 66.0879 128.922C66.1837 128.878 66.2593 128.844 66.3105 128.82L66.3838 128.786C66.3853 128.785 66.3869 128.786 66.3877 128.785L66.3887 128.784L66.4512 128.756L66.5039 128.712L69.2227 126.417L73.3711 130.546L68.8848 160.544C68.8487 160.78 68.909 161.019 69.0479 161.208L73.7422 167.633C73.9124 167.868 74.1827 168.002 74.4668 168.002C74.7543 168.002 75.024 167.864 75.1924 167.632L75.1914 167.631L79.8857 161.207C80.0071 161.041 80.0686 160.838 80.0576 160.632L80.0488 160.544L75.5625 130.55L79.7148 126.417L80.5479 127.12C79.574 129.083 79.0256 130.358 78.9756 130.484C78.2616 132.33 77.9944 134.33 78.1934 136.303L78.2393 136.697C78.9056 141.653 81.429 147.732 84.1084 153.092C86.7942 158.464 89.6648 163.166 91.0645 165.383L91.0713 165.395L91.0791 165.405L91.9912 166.691L92 166.704L92.0098 166.716C94.2939 169.549 97.6757 171.251 101.353 171.377V171.438C100.082 173.766 98.8973 175.746 98.1338 176.985L97.5166 177.975C96.5862 179.439 95.0058 180.242 93.3896 180.242C92.5764 180.242 91.7543 180.038 91.001 179.611L90.4844 179.319L90.2842 179.877C89.8484 181.09 89.2171 182.219 88.4375 183.253L88.3369 183.387V243.475C88.3369 246.803 85.6383 249.5 82.3105 249.5C78.9826 249.5 76.2861 246.802 76.2861 243.475L76.2871 190.512V189.97L75.7471 190.014C75.3156 190.049 74.8882 190.068 74.4678 190.068C74.0311 190.068 73.5857 190.047 73.1377 190.01L72.5977 189.965L72.5967 190.508L72.5264 243.473V243.474C72.5269 246.802 69.8296 249.5 66.501 249.5C63.1739 249.5 60.4746 246.802 60.4746 243.475L60.4717 183.385V183.222Z" fill="#006DFD" stroke="white"/>
<path d="M74.4683 92.7656C79.3341 92.7657 82.669 94.0205 84.7837 96.2305C86.7691 98.3053 87.7542 101.3 87.8354 105.121L87.8394 105.896C87.7729 111.97 86.2887 116.765 83.8989 120.027C81.5171 123.279 78.2279 125.024 74.4683 125.024C70.7065 125.024 67.4165 123.278 65.0347 120.026C62.7197 116.866 61.2549 112.267 61.105 106.462L61.0942 105.896C61.0526 101.703 62.0319 98.4437 64.1499 96.2305C66.2648 94.0205 69.6007 92.7656 74.4683 92.7656Z" fill="#006DFD" stroke="white"/>
</svg>
