<svg width="362" height="362" viewBox="0 0 362 362" fill="none" xmlns="http://www.w3.org/2000/svg">
<path d="M181 33.5659C201.422 33.5659 220.505 37.4379 238.282 45.1616C256.126 52.9148 271.731 63.4863 285.123 76.8774C298.514 90.2686 309.084 105.874 316.837 123.718C324.561 141.495 328.434 160.577 328.434 181C328.434 201.165 324.564 220.188 316.834 238.101C309.08 256.071 298.51 271.735 285.123 285.123C271.731 298.514 256.126 309.084 238.282 316.837C220.505 324.561 201.423 328.434 181 328.434C160.834 328.434 141.811 324.564 123.899 316.834C105.929 309.08 90.2647 298.51 76.8774 285.123C63.4901 271.735 52.9195 256.071 45.1655 238.101C37.4361 220.188 33.5659 201.165 33.5659 181C33.566 160.577 37.438 141.495 45.1616 123.718C52.9148 105.874 63.4863 90.2686 76.8774 76.8774C90.2648 63.4901 105.929 52.9196 123.899 45.1655C141.811 37.4362 160.834 33.566 181 33.5659ZM149.062 242.227C152.132 253.482 156.101 264.115 160.975 274.12C165.839 284.103 171.597 293.698 178.245 302.903L181 306.717L183.755 302.903C190.403 293.698 196.16 284.103 201.024 274.12C205.898 264.115 209.867 253.482 212.937 242.227L214.108 237.934H147.891L149.062 242.227ZM73.9849 243.039C81.4667 255.938 90.8276 267.174 102.061 276.729C113.348 286.329 126.252 293.457 140.743 298.115L148.839 300.717L144.767 293.251C140.317 285.092 136.422 276.622 133.083 267.84C129.743 259.059 126.957 249.963 124.728 240.55L124.109 237.934H71.0239L73.9849 243.039ZM237.272 240.55C235.043 249.963 232.257 259.059 228.917 267.84C225.578 276.622 221.683 285.092 217.233 293.251L213.161 300.717L221.256 298.115C235.747 293.457 248.652 286.329 259.939 276.729C271.172 267.174 280.533 255.938 288.015 243.039L290.976 237.934H237.891L237.272 240.55ZM60.8062 150.009C59.5186 155.16 58.551 160.255 57.9048 165.295C57.2568 170.35 56.9341 175.586 56.9341 181C56.9341 186.413 57.2568 191.649 57.9048 196.704C58.551 201.744 59.5185 206.84 60.8062 211.991L61.4497 214.566H119.334L118.749 210.663C118.006 205.713 117.45 200.829 117.08 196.011C116.71 191.202 116.524 186.198 116.524 181C116.524 175.801 116.71 170.798 117.08 165.989C117.45 161.171 118.006 156.287 118.749 151.337L119.334 147.434H61.4497L60.8062 150.009ZM142.193 150.329C141.427 155.434 140.852 160.481 140.468 165.467C140.084 170.462 139.892 175.64 139.892 181C139.892 186.359 140.084 191.538 140.468 196.533C140.852 201.519 141.427 206.565 142.193 211.67L142.626 214.566H219.373L219.807 211.67C220.573 206.565 221.148 201.519 221.532 196.533C221.916 191.538 222.107 186.359 222.107 181C222.107 175.64 221.916 170.462 221.532 165.467C221.148 160.481 220.573 155.434 219.807 150.329L219.373 147.434H142.626L142.193 150.329ZM243.25 151.337C243.993 156.287 244.55 161.171 244.92 165.989C245.29 170.798 245.476 175.801 245.476 181C245.476 186.198 245.29 191.202 244.92 196.011C244.55 200.829 243.993 205.713 243.25 210.663L242.666 214.566H300.549L301.193 211.991C302.481 206.84 303.449 201.744 304.095 196.704C304.743 191.649 305.066 186.413 305.066 181C305.066 175.586 304.743 170.35 304.095 165.295C303.449 160.255 302.48 155.16 301.193 150.009L300.549 147.434H242.666L243.25 151.337ZM140.743 63.8843C126.252 68.5421 113.348 75.6709 102.061 85.271C90.8275 94.8259 81.4667 106.062 73.9849 118.961L71.0239 124.066H124.109L124.728 121.45C126.957 112.037 129.743 102.941 133.083 94.1587C136.422 85.3772 140.317 76.9075 144.767 68.7485L148.839 61.2827L140.743 63.8843ZM178.245 59.0972C171.597 68.3016 165.839 77.8967 160.975 87.8804C156.101 97.8845 152.132 108.517 149.062 119.772L147.891 124.066H214.108L212.937 119.772C209.867 108.517 205.898 97.8846 201.024 87.8804C196.16 77.8967 190.403 68.3016 183.755 59.0972L181 55.2817L178.245 59.0972ZM217.233 68.7485C221.683 76.9075 225.578 85.3772 228.917 94.1587C232.257 102.941 235.043 112.037 237.272 121.45L237.891 124.066H290.976L288.015 118.961C280.533 106.062 271.172 94.8259 259.939 85.271C248.652 75.6708 235.747 68.5421 221.256 63.8843L213.161 61.2827L217.233 68.7485Z" fill="#006DFD" stroke="white" stroke-width="6.798"/>
<path d="M247.773 61.5562C247.773 61.5562 371.757 23.5453 350.037 103.186C328.317 182.827 88.4915 342.106 31.4765 342.106C-25.5385 342.106 52.4911 237.11 52.4911 237.11" stroke="#006DFD" stroke-width="13.596"/>
<path d="M216.823 119.64C220.001 119.456 220.8 119.454 223.876 119.632C234.318 120.235 243.063 123.568 249.085 130.314C250.694 132.117 252.624 135.118 253.621 137.42L253.808 137.87C256.197 143.935 256.551 151.445 254.822 157.832C252.469 166.528 246.095 172.962 237.557 176.365C260.773 180.928 283.018 194.478 300.188 214.242C304.188 218.846 306.452 221.874 307.857 225.278C309.619 229.543 310.04 234.012 308.869 238.288C307.702 242.553 305.066 246.212 301.413 249.076C296.383 253.021 290.5 254.936 283.41 255.414C280.893 255.584 279.417 255.517 271.63 255.062C236.5 253.006 203.299 253.025 168.188 255.123C160.095 255.607 157.547 255.64 153.504 254.968C141.371 252.95 130.64 244.203 131.581 232.065C132.149 224.744 135.693 219.76 143.745 211.047C161.005 192.37 183.294 179.697 206.123 175.889C206.72 175.789 207.64 175.661 208.608 175.531C208.614 175.035 208.623 174.488 208.628 173.886L208.683 167.365L208.695 165.906L209.429 164.646L209.904 163.827C211.237 161.536 213.371 159.837 215.721 158.905L216.264 158.699C216.828 158.497 217.467 158.312 218.293 158.188C219.138 158.06 220.142 158.006 221.311 157.946C225.797 157.718 227.701 157.093 229.042 156.285C230.55 155.376 231.444 154.252 231.928 151.65L231.944 151.498C231.956 151.385 231.971 151.206 231.985 150.954C232.011 150.504 232.025 149.962 232.026 149.4C232.027 148.839 232.015 148.301 231.991 147.858C231.965 147.355 231.934 147.172 231.943 147.221C231.528 145.023 230.816 143.923 230.028 143.222C229.156 142.446 227.599 141.634 224.592 141.108C224.013 141.007 222.459 140.906 220.532 140.906C218.606 140.906 217.05 141.007 216.47 141.108C212.083 141.875 210.625 143.287 209.884 144.741C209.497 145.499 209.278 146.033 209.094 147.852L209.017 148.714C208.908 150.08 208.745 151.807 208.053 153.418C207.235 155.321 205.96 156.482 204.951 157.295L204.95 157.296C203.86 158.174 202.589 158.984 200.986 159.479C199.426 159.962 197.921 160.031 196.538 159.979C195.303 159.933 193.988 159.777 192.639 159.308C191.253 158.826 190.13 158.119 189.146 157.333C188.092 156.493 186.989 155.386 186.218 153.809C185.462 152.262 185.25 150.724 185.195 149.41V149.409C185.045 145.801 185.883 141.387 187.276 137.894C188.202 135.573 190.12 132.426 191.762 130.561L192.331 129.932C198.305 123.535 206.91 120.213 216.823 119.64ZM227.369 178.881C227.263 178.887 227.152 178.892 227.04 178.892C227.152 178.892 227.262 178.887 227.369 178.881ZM213.568 174.963C213.546 174.964 213.523 174.965 213.501 174.967C213.607 174.961 213.708 174.956 213.801 174.955L213.568 174.963ZM227.539 174.966C227.52 174.965 227.501 174.963 227.481 174.962L227.249 174.955C227.332 174.956 227.429 174.96 227.539 174.966Z" fill="white" stroke="white" stroke-width="11"/>
<path d="M216.65 116.645C219.938 116.454 220.853 116.452 224.05 116.637C235.017 117.27 244.617 120.804 251.323 128.317L251.688 128.738C253.409 130.777 255.324 133.795 256.385 136.253L256.599 136.771C259.233 143.458 259.608 151.63 257.718 158.616C255.816 165.644 251.581 171.285 245.889 175.275C266.979 181.228 286.808 194.266 302.453 212.274C306.469 216.897 309.024 220.241 310.631 224.133C312.614 228.935 313.13 234.087 311.763 239.08C310.443 243.901 307.534 247.975 303.644 251.134L303.264 251.437C297.656 255.834 291.156 257.898 283.611 258.407C280.866 258.592 279.177 258.508 271.454 258.056C237.536 256.071 205.429 256.028 171.643 257.928L168.367 258.118C160.271 258.602 157.421 258.66 153.012 257.927C140.085 255.777 127.479 246.172 128.591 231.834C129.246 223.389 133.484 217.73 141.542 209.011C159.198 189.907 182.066 176.861 205.63 172.93L205.636 172.929L205.683 167.34L205.702 165.085L206.835 163.137L207.311 162.319L207.312 162.318C208.91 159.572 211.373 157.539 214.072 156.345L214.615 156.116C215.423 155.796 216.43 155.434 217.846 155.221C218.867 155.067 220.035 155.008 221.158 154.95L221.928 154.905C225.609 154.66 226.817 154.124 227.493 153.716C228.043 153.384 228.242 153.138 228.358 152.961C228.496 152.75 228.752 152.262 228.96 151.188C228.965 151.135 228.978 151.005 228.99 150.785C229.012 150.399 229.025 149.912 229.026 149.395C229.027 148.877 229.016 148.395 228.996 148.018C228.987 147.85 228.976 147.728 228.969 147.651C228.645 146.033 228.203 145.613 228.034 145.463C227.732 145.194 226.777 144.536 224.075 144.063C224.063 144.062 223.964 144.046 223.758 144.026C223.535 144.005 223.249 143.984 222.904 143.965C222.212 143.927 221.387 143.906 220.532 143.906C219.677 143.906 218.852 143.927 218.159 143.965C217.814 143.984 217.528 144.005 217.306 144.026C217.098 144.046 216.998 144.062 216.986 144.063C214.996 144.411 213.934 144.879 213.395 145.215C212.957 145.487 212.744 145.735 212.557 146.104C212.36 146.489 212.317 146.637 212.277 146.804C212.209 147.088 212.112 147.647 212.008 148.952C211.901 150.294 211.719 152.483 210.809 154.603C209.704 157.174 207.979 158.707 206.833 159.631V159.632C205.551 160.664 203.948 161.704 201.873 162.346C200.116 162.889 198.457 163.011 197.025 162.993L196.426 162.978C195.019 162.925 193.382 162.742 191.653 162.141C189.868 161.52 188.45 160.617 187.274 159.679C186.012 158.672 184.554 157.236 183.522 155.126C182.514 153.065 182.262 151.068 182.198 149.536L182.18 148.763C182.147 144.856 183.054 140.381 184.489 136.782C185.539 134.151 187.636 130.709 189.51 128.579L190.142 127.881C196.77 120.784 206.185 117.25 216.649 116.645H216.65ZM218.637 199.081C217.597 199.079 217.272 199.101 217.397 199.089L214.899 199.307C212.98 199.469 209.304 200.062 206.925 200.614C200.632 202.075 193.193 205.04 186.988 208.617C176.914 214.425 168.11 221.874 160.41 231.146C161.571 231.112 163.691 231.007 167.805 230.764C186.085 229.681 201.175 229.249 220.622 229.251C239.935 229.253 254.996 229.685 273.184 230.764C277.337 231.01 279.472 231.115 280.645 231.148C274.094 223.264 266.522 216.503 258.472 211.297C253.487 208.073 249.127 205.821 243.777 203.699C237.735 201.302 232.598 200.005 226.715 199.344C226.714 199.344 226.71 199.343 226.703 199.343C226.695 199.342 226.684 199.341 226.669 199.34C226.639 199.337 226.598 199.333 226.547 199.329C226.443 199.321 226.309 199.31 226.146 199.3C225.817 199.279 225.408 199.257 224.936 199.235C223.99 199.192 222.861 199.155 221.732 199.127C220.603 199.099 219.51 199.083 218.637 199.081ZM213.409 171.967C213.376 171.968 213.344 171.971 213.312 171.973C213.47 171.964 213.625 171.958 213.769 171.956L213.409 171.967Z" fill="#006DFD" stroke="white" stroke-width="17"/>
</svg>
