<svg width="38" height="38" viewBox="0 0 38 38" fill="none" xmlns="http://www.w3.org/2000/svg">
<path fill-rule="evenodd" clip-rule="evenodd" d="M7.31486 1.27708C6.77533 1.35422 6.52263 1.49474 5.63024 2.21401C4.44396 3.17009 3.78211 3.78895 3.06026 4.61701C2.45371 5.31283 1.67212 6.28578 1.54798 6.49957C1.19093 7.11437 1.17326 7.95896 1.5042 8.58915C1.64199 8.85158 2.41065 9.83016 3.1222 10.649C3.81479 11.446 4.54488 12.116 5.78342 13.0911L6.26598 13.471L6.26792 16.6951L6.26986 19.9192L6.13135 19.7541C5.96931 19.561 5.73227 19.2036 5.51772 18.829C5.3145 18.4742 5.12883 18.2913 4.82996 18.1515C4.61948 18.053 4.5355 18.0351 4.27634 18.0337C4.01102 18.0323 3.93764 18.0477 3.71812 18.1513C3.40853 18.2973 3.19968 18.5 3.05483 18.795C2.95679 18.9947 2.94486 19.0585 2.94486 19.3827C2.94486 19.7337 2.95044 19.7576 3.10544 20.0706C3.46181 20.7902 4.04351 21.5672 4.76631 22.2888C5.30637 22.828 5.64069 23.1036 6.22057 23.4873C7.13196 24.0904 7.26755 24.1474 7.73411 24.1239C7.97697 24.1116 8.05867 24.0862 8.38532 23.9212C9.32236 23.4479 10.474 22.5025 11.2093 21.603C11.8335 20.8395 12.36 19.9394 12.4082 19.5533C12.4802 18.9772 12.1813 18.4353 11.6401 18.1606C11.4098 18.0437 11.3549 18.0313 11.0788 18.0341C10.5074 18.0397 10.1379 18.2701 9.81944 18.8192C9.58353 19.226 9.3743 19.5394 9.17002 19.792L9.00586 19.995L9.0076 16.714L9.00935 13.433L9.30119 13.205C10.8587 11.9883 11.7303 11.1318 12.9806 9.58931C13.7666 8.61963 13.9046 8.3531 13.9374 7.7413C13.9756 7.02884 13.8241 6.67084 13.1033 5.77043C11.7561 4.08764 11.1782 3.50631 9.5705 2.21705C8.83873 1.63021 8.52907 1.43406 8.19387 1.34487C7.98164 1.28844 7.49688 1.25105 7.31486 1.27708ZM30.1529 1.29684C28.7413 1.43128 27.5087 1.99425 26.6554 2.89428C25.8621 3.73097 25.4377 4.68724 25.2416 6.08001L25.2121 6.28901L22.182 6.29874C20.5154 6.3041 19.1528 6.29555 19.154 6.27974C19.1592 6.2091 19.787 5.7659 20.3179 5.45803C20.6769 5.24983 20.8674 5.05584 21.0087 4.75457C21.094 4.57259 21.1087 4.49044 21.1078 4.19901C21.107 3.9041 21.0928 3.82954 21.0048 3.65732C20.7944 3.2454 20.5895 3.06502 20.1712 2.92335C19.792 2.79491 19.5019 2.83082 19.042 3.06308C17.5583 3.81248 15.9664 5.40616 15.2177 6.89162C15.0346 7.25478 15.0289 7.27625 15.029 7.59462C15.0292 7.77523 15.0502 7.99202 15.0758 8.07642C15.1319 8.2611 15.7901 9.27243 16.1348 9.70354C16.4773 10.132 17.1623 10.821 17.5952 11.1724C18.0477 11.5397 18.6498 11.9376 19.0903 12.1604C19.4125 12.3233 19.4426 12.331 19.7553 12.331C20.0298 12.331 20.1174 12.3148 20.2964 12.2309C20.9696 11.9152 21.2729 11.2355 21.0473 10.5483C20.9322 10.1975 20.6998 9.95115 20.2374 9.68944C20.0348 9.57483 19.7312 9.37841 19.5627 9.25301L19.2565 9.02501L22.3106 9.01521C23.9905 9.00981 25.3847 9.01293 25.4089 9.02216C25.4331 9.03144 25.4914 9.16079 25.5384 9.30963C25.5853 9.45848 25.7134 9.75735 25.8228 9.97376C26.5479 11.4072 27.866 12.3588 29.5597 12.6716C30.4232 12.831 31.5833 12.8242 32.4587 12.6545C34.1355 12.3295 35.4282 11.3614 36.1382 9.89901C36.488 9.17853 36.641 8.56996 36.714 7.60917C36.8129 6.30699 36.5985 5.04706 36.1149 4.08809C35.4247 2.71952 34.1555 1.76025 32.5849 1.41985C31.9137 1.27438 30.9176 1.22403 30.1529 1.29684ZM30.1273 4.04686C29.0557 4.22721 28.3899 4.77886 28.0862 5.73801C27.9681 6.11098 27.9259 6.4575 27.9263 7.05228C27.9276 9.09064 28.9147 10.0693 30.9699 10.0695C32.605 10.0697 33.5764 9.42633 33.8965 8.1311C34.0012 7.70755 34.039 6.82303 33.9731 6.33723C33.7911 4.9945 33.0605 4.24062 31.7489 4.04226C31.3284 3.97869 30.5188 3.98097 30.1273 4.04686ZM7.0899 4.53926C6.34415 5.14871 5.79911 5.64472 5.43359 6.04653C5.0556 6.46206 4.14186 7.55191 4.14186 7.58724C4.14186 7.61818 4.4823 8.04218 4.9682 8.61636C5.63404 9.40323 6.11911 9.86405 7.21207 10.7481C7.5839 11.0489 7.60742 11.0617 7.68707 11.008C7.85218 10.8966 8.84192 10.0588 9.20562 9.72254C9.57969 9.3767 10.147 8.75073 10.7431 8.02584C11.0284 7.67905 11.0624 7.62194 11.0272 7.5494C10.9698 7.4316 10.1673 6.47308 9.74013 6.01226C9.54093 5.79733 9.18734 5.45408 8.9544 5.24949C8.47754 4.83065 7.63493 4.14201 7.59932 4.14201C7.58648 4.14201 7.35723 4.32077 7.0899 4.53926ZM6.44086 25.1978C5.08426 25.2985 4.50533 25.4092 3.99791 25.6651C3.04814 26.1441 2.31083 27.0911 2.10832 28.0921C1.9252 28.9972 1.84962 31.114 1.95404 32.414C2.05098 33.6213 2.14735 34.0959 2.39397 34.5807C2.72164 35.225 3.36229 35.8613 4.00886 36.1845C4.44662 36.4033 4.81195 36.4885 5.69439 36.5776C7.36186 36.7459 9.53858 36.6835 10.6095 36.4367C11.9069 36.1378 13.0007 34.9856 13.2381 33.668C13.2701 33.4904 13.3169 33.1185 13.3421 32.8415L13.3879 32.338H16.6322H19.8765L19.7517 32.4444C19.5499 32.6163 19.2707 32.8031 18.8964 33.0167C18.4394 33.2773 18.2043 33.5341 18.0861 33.9013C17.7691 34.8873 18.6872 35.8833 19.679 35.6292C20.261 35.4801 21.3629 34.723 22.2238 33.8807C22.8827 33.2361 23.3407 32.6482 23.8413 31.8051C24.0845 31.3956 24.1465 31.1738 24.1203 30.8076C24.1042 30.5831 24.072 30.4835 23.9215 30.1943C23.1456 28.7026 21.6048 27.1636 20.108 26.3855C19.7553 26.2021 19.7512 26.201 19.386 26.201C19.0572 26.201 18.9952 26.2126 18.7929 26.3119C18.1803 26.6127 17.8857 27.2774 18.0819 27.916C18.1939 28.2804 18.3865 28.5186 18.7352 28.7242C19.1129 28.9467 19.7087 29.3457 19.8739 29.4865L20.0069 29.6L16.6966 29.601L13.3863 29.602L13.3598 29.2315C13.2568 27.7877 13.003 27.1116 12.2929 26.3895C12.1048 26.1982 11.8687 25.9863 11.7683 25.9187C11.4668 25.7153 11.006 25.5011 10.7042 25.4239C9.88662 25.2148 7.74285 25.1011 6.44086 25.1978ZM30.2673 25.2367C28.2356 25.3923 26.6381 26.3986 25.8184 28.039C25.3943 28.8876 25.1939 29.8282 25.1939 30.97C25.1939 32.1078 25.4043 33.0967 25.8208 33.9165C26.4228 35.1015 27.443 35.9783 28.7121 36.4014C29.1726 36.5549 29.5217 36.627 30.1149 36.6915C31.8317 36.8779 33.41 36.5357 34.5579 35.728C36.1119 34.6347 36.8901 32.7086 36.714 30.3909C36.641 29.4301 36.488 28.8215 36.1382 28.101C35.3009 26.3763 33.7437 25.3986 31.5704 25.2328C31.0091 25.1899 30.8723 25.1904 30.2673 25.2367ZM6.15586 27.9492C5.37511 28.0239 5.24412 28.0577 5.04075 28.2367C4.82741 28.4245 4.76456 28.592 4.71387 29.108C4.58319 30.4374 4.5876 31.5963 4.72793 32.8191C4.81267 33.5574 5.00392 33.7523 5.7301 33.8408C6.49086 33.9336 7.49042 33.9823 8.09386 33.9561C8.83809 33.9238 9.81347 33.8316 9.99925 33.7759C10.1888 33.7191 10.3967 33.5428 10.4902 33.3594C10.747 32.856 10.7651 29.1313 10.5137 28.5295C10.4451 28.3653 10.2403 28.1618 10.0735 28.0922C9.68875 27.9314 7.26515 27.843 6.15586 27.9492ZM30.1687 27.9882C28.6567 28.2239 27.9274 29.1864 27.9263 30.9477C27.9259 31.5425 27.9681 31.889 28.0862 32.262C28.4618 33.4483 29.3859 34.0107 30.9582 34.0097C33.1136 34.0085 34.087 32.965 33.9985 30.7508C33.9406 29.3028 33.4287 28.5043 32.3095 28.1162C31.8 27.9395 30.8467 27.8825 30.1687 27.9882Z" fill="#006DFD"/>
</svg>
