<svg width="36" height="36" viewBox="0 0 36 36" fill="none" xmlns="http://www.w3.org/2000/svg">
<circle cx="18" cy="18" r="16" fill="#006DFD"/>
<path d="M17.9865 28C16.6134 28 15.439 27.5187 14.4634 26.5562C13.4878 25.5936 13 24.4349 13 23.0802V22.1979H16.4146V23.0802C16.4146 23.508 16.5682 23.8734 16.8753 24.1765C17.1825 24.4795 17.5528 24.631 17.9865 24.631C18.4381 24.631 18.8175 24.4795 19.1247 24.1765C19.4318 23.8734 19.5854 23.508 19.5854 23.0802V22.7594C19.5854 21.9572 19.2873 21.3066 18.6911 20.8075L15.0867 17.7594C13.6956 16.5472 13 15.041 13 13.2406V12.9198C13 11.5651 13.4878 10.4064 14.4634 9.44385C15.439 8.48128 16.6134 8 17.9865 8C19.3776 8 20.561 8.48128 21.5366 9.44385C22.5122 10.4064 23 11.5651 23 12.9198V13.8021H19.5854V12.9198C19.5854 12.492 19.4318 12.1266 19.1247 11.8235C18.8175 11.5205 18.4381 11.369 17.9865 11.369C17.5528 11.369 17.1825 11.5205 16.8753 11.8235C16.5682 12.1266 16.4146 12.492 16.4146 12.9198V13.2406C16.4146 14.0428 16.7127 14.6934 17.3089 15.1925L20.9133 18.2406C22.3044 19.4528 23 20.959 23 22.7594V23.0802C23 24.4349 22.5122 25.5936 21.5366 26.5562C20.561 27.5187 19.3776 28 17.9865 28Z" fill="white"/>
</svg>
