<svg width="261" height="50" viewBox="0 0 261 50" fill="none" xmlns="http://www.w3.org/2000/svg">
<path d="M12.4439 50C9.01733 50 6.0867 48.7968 3.65202 46.3904C1.21734 43.984 0 41.0873 0 37.7005V35.4946H8.52138V37.7005C8.52138 38.7701 8.90462 39.6836 9.67109 40.4412C10.4376 41.1987 11.3618 41.5775 12.4439 41.5775C13.5711 41.5775 14.5179 41.1987 15.2844 40.4412C16.0509 39.6836 16.4341 38.7701 16.4341 37.7005V36.8984C16.4341 34.893 15.6902 33.2665 14.2023 32.0187L5.20751 24.3984C1.73584 21.3681 0 17.6025 0 13.1016V12.2995C0 8.91265 1.21734 6.01604 3.65202 3.60963C6.0867 1.20321 9.01733 0 12.4439 0C15.9156 0 18.8688 1.20321 21.3034 3.60963C23.7381 6.01604 24.9555 8.91265 24.9555 12.2995V14.5053H16.4341V12.2995C16.4341 11.2299 16.0509 10.3164 15.2844 9.55882C14.5179 8.80125 13.5711 8.42246 12.4439 8.42246C11.3618 8.42246 10.4376 8.80125 9.67109 9.55882C8.90462 10.3164 8.52138 11.2299 8.52138 12.2995V13.1016C8.52138 15.107 9.26531 16.7335 10.7532 17.9813L19.748 25.6016C23.2196 28.6319 24.9555 32.3975 24.9555 36.8984V37.7005C24.9555 41.0873 23.7381 43.984 21.3034 46.3904C18.8688 48.7968 15.9156 50 12.4439 50Z" fill="#006DFD"/>
<path d="M55.8032 0.668449V9.09091H47.3494V49.3316H38.8281V9.09091H30.3743V0.668449H55.8032Z" fill="#006DFD"/>
<path d="M86.9864 0.668449L77.2477 28.4091V49.3316H68.7263V28.4091L58.9876 0.668449H68.1853L72.987 19.1176L77.7888 0.668449H86.9864Z" fill="#006DFD"/>
<path d="M101.369 40.9091H112.934V49.3316H92.8475V0.668449H101.369V40.9091Z" fill="#006DFD"/>
<path d="M136.675 46.9251C134.601 48.975 132.099 50 129.168 50C126.237 50 123.735 48.975 121.661 46.9251C119.632 44.8752 118.618 42.402 118.618 39.5053V36.8316H123.081V39.5053C123.081 41.1987 123.667 42.6471 124.84 43.8503C126.057 45.0089 127.5 45.5882 129.168 45.5882C130.881 45.5882 132.324 44.9866 133.496 43.7834C134.714 42.5802 135.322 41.1542 135.322 39.5053V37.2995C135.322 34.8039 134.421 32.7317 132.617 31.0829L122.743 22.1925C119.993 19.697 118.618 16.533 118.618 12.7005V10.4947C118.618 7.59804 119.632 5.12478 121.661 3.07487C123.735 1.02496 126.237 0 129.168 0C132.099 0 134.601 1.02496 136.675 3.07487C138.749 5.12478 139.786 7.59804 139.786 10.4947V13.1685H135.322V10.4947C135.322 8.84581 134.714 7.41979 133.496 6.21658C132.324 5.01337 130.881 4.41176 129.168 4.41176C127.5 4.41176 126.057 5.01337 124.84 6.21658C123.667 7.37522 123.081 8.80125 123.081 10.4947V12.7005C123.081 15.1961 123.96 17.2683 125.719 18.9171L135.593 27.8075C138.388 30.3476 139.786 33.5116 139.786 37.2995V39.5053C139.786 42.402 138.749 44.8752 136.675 46.9251Z" fill="#006DFD"/>
<path d="M175.244 0.668449H179.775V49.3316H175.312V12.5668L165.776 41.7781H162.462L152.926 12.5668V49.3316H148.463V0.668449H152.994L164.153 34.0241L175.244 0.668449Z" fill="#006DFD"/>
<path d="M207.486 0.668449L197.95 27.2727V49.3316H193.486V27.2727L183.883 0.668449H188.685L195.718 21.992L202.684 0.668449H207.486Z" fill="#006DFD"/>
<path d="M232.842 0.668449V5.08021H224.253V49.3316H219.79V5.08021H211.133V0.668449H232.842Z" fill="#006DFD"/>
<path d="M256.536 0.668449H261V49.3316H256.536V26.3369H244.295V49.3316H239.832V0.668449H244.295V21.9251H256.536V0.668449Z" fill="#006DFD"/>
</svg>
