<svg width="1536" height="434" viewBox="0 0 1536 434" fill="none" xmlns="http://www.w3.org/2000/svg">
<path d="M128.306 353.142C109.854 353.142 94.0727 346.587 80.962 333.476C67.8512 320.365 61.2959 304.584 61.2959 286.131V274.113H107.183V286.131C107.183 291.958 109.247 296.936 113.375 301.063C117.502 305.191 122.479 307.254 128.306 307.254C134.376 307.254 139.475 305.191 143.602 301.063C147.73 296.936 149.793 291.958 149.793 286.131V281.761C149.793 270.836 145.787 261.974 137.775 255.175L89.3383 213.658C70.6433 197.148 61.2959 176.632 61.2959 152.11V147.74C61.2959 129.288 67.8512 113.507 80.962 100.396C94.0727 87.2852 109.854 80.7298 128.306 80.7298C147.001 80.7298 162.904 87.2852 176.015 100.396C189.126 113.507 195.681 129.288 195.681 147.74V159.758H149.793V147.74C149.793 141.913 147.73 136.936 143.602 132.809C139.475 128.681 134.376 126.617 128.306 126.617C122.479 126.617 117.502 128.681 113.375 132.809C109.247 136.936 107.183 141.913 107.183 147.74V152.11C107.183 163.036 111.19 171.898 119.202 178.696L167.639 220.214C186.333 236.723 195.681 257.239 195.681 281.761V286.131C195.681 304.584 189.126 320.365 176.015 333.476C162.904 346.587 147.001 353.142 128.306 353.142ZM361.796 84.3717V130.259H316.272V349.5H270.385V130.259H224.861V84.3717H361.796ZM529.718 84.3717L477.275 235.509V349.5H431.387V235.509L378.944 84.3717H428.473L454.331 184.887L480.188 84.3717H529.718ZM607.167 303.612H669.443V349.5H561.279V84.3717H607.167V303.612ZM797.29 336.389C786.121 347.558 772.647 353.142 756.865 353.142C741.084 353.142 727.609 347.558 716.44 336.389C705.515 325.221 700.052 311.746 700.052 295.964V281.397H724.088V295.964C724.088 305.191 727.245 313.081 733.557 319.637C740.112 325.949 747.882 329.106 756.865 329.106C766.091 329.106 773.86 325.828 780.173 319.272C786.728 312.717 790.006 304.948 790.006 295.964V283.946C790.006 270.35 785.15 259.06 775.439 250.077L722.267 201.64C707.457 188.044 700.052 170.805 700.052 149.925V137.907C700.052 122.126 705.515 108.651 716.44 97.4824C727.609 86.314 741.084 80.7298 756.865 80.7298C772.647 80.7298 786.121 86.314 797.29 97.4824C808.458 108.651 814.042 122.126 814.042 137.907V152.475H790.006V137.907C790.006 128.924 786.728 121.155 780.173 114.599C773.86 108.044 766.091 104.766 756.865 104.766C747.882 104.766 740.112 108.044 733.557 114.599C727.245 120.912 724.088 128.681 724.088 137.907V149.925C724.088 163.522 728.823 174.812 738.292 183.795L791.463 232.232C806.516 246.071 814.042 263.309 814.042 283.946V295.964C814.042 311.746 808.458 325.221 797.29 336.389ZM1004.98 84.3717H1029.39V349.5H1005.35V149.197L953.998 308.347H936.153L884.803 149.197V349.5H860.767V84.3717H885.167L945.258 266.101L1004.98 84.3717ZM1178.61 84.3717L1127.25 229.318V349.5H1103.22V229.318L1051.5 84.3717H1077.36L1115.24 200.547L1152.75 84.3717H1178.61ZM1315.15 84.3717V108.408H1268.9V349.5H1244.86V108.408H1198.25V84.3717H1315.15ZM1442.74 84.3717H1466.78V349.5H1442.74V224.22H1376.83V349.5H1352.79V84.3717H1376.83V200.183H1442.74V84.3717Z" fill="#006dfd"/>
</svg>
