<svg width="1406" height="274" viewBox="0 0 1406 274" fill="none" xmlns="http://www.w3.org/2000/svg">
<path d="M67.3063 273.142C48.8542 273.142 33.0727 266.586 19.962 253.476C6.85124 240.365 0.295866 224.584 0.295866 206.131V194.113H46.1835V206.131C46.1835 211.958 48.2472 216.936 52.3746 221.063C56.5021 225.19 61.4793 227.254 67.3063 227.254C73.3761 227.254 78.4747 225.19 82.6022 221.063C86.7296 216.936 88.7934 211.958 88.7934 206.131V201.761C88.7934 190.835 84.7873 181.974 76.7752 175.175L28.3383 133.658C9.64334 117.148 0.295866 96.6324 0.295866 72.1104V67.7402C0.295866 49.288 6.85124 33.5066 19.962 20.3959C33.0727 7.2851 48.8542 0.729731 67.3063 0.729731C86.0013 0.729731 101.904 7.2851 115.015 20.3959C128.126 33.5066 134.681 49.288 134.681 67.7402V79.7584H88.7934V67.7402C88.7934 61.9132 86.7296 56.936 82.6022 52.8085C78.4747 48.6811 73.3761 46.6173 67.3063 46.6173C61.4793 46.6173 56.5021 48.6811 52.3746 52.8085C48.2472 56.936 46.1835 61.9132 46.1835 67.7402V72.1104C46.1835 83.0361 50.1895 91.898 58.2016 98.6961L106.639 140.213C125.333 156.723 134.681 177.239 134.681 201.761V206.131C134.681 224.584 128.126 240.365 115.015 253.476C101.904 266.586 86.0013 273.142 67.3063 273.142ZM300.796 4.3716V50.2592H255.272V269.5H209.385V50.2592H163.861V4.3716H300.796ZM468.718 4.3716L416.275 155.509V269.5H370.387V155.509L317.944 4.3716H367.473L393.331 104.887L419.188 4.3716H468.718ZM546.167 223.612H608.443V269.5H500.279V4.3716H546.167V223.612ZM736.29 256.389C725.121 267.558 711.647 273.142 695.865 273.142C680.084 273.142 666.609 267.558 655.44 256.389C644.515 245.221 639.052 231.746 639.052 215.964V201.397H663.088V215.964C663.088 225.19 666.245 233.081 672.557 239.637C679.112 245.949 686.882 249.105 695.865 249.105C705.091 249.105 712.86 245.828 719.173 239.272C725.728 232.717 729.006 224.948 729.006 215.964V203.946C729.006 190.35 724.15 179.06 714.439 170.077L661.267 121.64C646.457 108.044 639.052 90.8054 639.052 69.9253V57.9071C639.052 42.1257 644.515 28.6508 655.44 17.4823C666.609 6.31394 680.084 0.729731 695.865 0.729731C711.647 0.729731 725.121 6.31394 736.29 17.4823C747.458 28.6508 753.042 42.1257 753.042 57.9071V72.4746H729.006V57.9071C729.006 48.9238 725.728 41.1545 719.173 34.5991C712.86 28.0438 705.091 24.7661 695.865 24.7661C686.882 24.7661 679.112 28.0438 672.557 34.5991C666.245 40.9117 663.088 48.6811 663.088 57.9071V69.9253C663.088 83.5216 667.823 94.8114 677.292 103.795L730.463 152.232C745.516 166.071 753.042 183.309 753.042 203.946V215.964C753.042 231.746 747.458 245.221 736.29 256.389ZM943.985 4.3716H968.385V269.5H944.349V69.1969L892.998 228.347H875.153L823.803 69.1969V269.5H799.767V4.3716H824.167L884.258 186.101L943.985 4.3716ZM1117.61 4.3716L1066.25 149.318V269.5H1042.22V149.318L990.504 4.3716H1016.36L1054.24 120.547L1091.75 4.3716H1117.61ZM1254.15 4.3716V28.408H1207.9V269.5H1183.86V28.408H1137.25V4.3716H1254.15ZM1381.74 4.3716H1405.78V269.5H1381.74V144.22H1315.83V269.5H1291.79V4.3716H1315.83V120.183H1381.74V4.3716Z" fill="white"/>
</svg>
