<svg width="211" height="78" viewBox="0 0 211 78" fill="none" xmlns="http://www.w3.org/2000/svg">
<path d="M20.848 56.48C18.416 56.48 16.336 55.616 14.608 53.888C12.88 52.16 12.016 50.08 12.016 47.648V46.064H18.064V47.648C18.064 48.416 18.336 49.072 18.88 49.616C19.424 50.16 20.08 50.432 20.848 50.432C21.648 50.432 22.32 50.16 22.864 49.616C23.408 49.072 23.68 48.416 23.68 47.648V47.072C23.68 45.632 23.152 44.464 22.096 43.568L15.712 38.096C13.248 35.92 12.016 33.216 12.016 29.984V29.408C12.016 26.976 12.88 24.896 14.608 23.168C16.336 21.44 18.416 20.576 20.848 20.576C23.312 20.576 25.408 21.44 27.136 23.168C28.864 24.896 29.728 26.976 29.728 29.408V30.992H23.68V29.408C23.68 28.64 23.408 27.984 22.864 27.44C22.32 26.896 21.648 26.624 20.848 26.624C20.08 26.624 19.424 26.896 18.88 27.44C18.336 27.984 18.064 28.64 18.064 29.408V29.984C18.064 31.424 18.592 32.592 19.648 33.488L26.032 38.96C28.496 41.136 29.728 43.84 29.728 47.072V47.648C29.728 50.08 28.864 52.16 27.136 53.888C25.408 55.616 23.312 56.48 20.848 56.48ZM51.622 21.056V27.104H45.622V56H39.574V27.104H33.574V21.056H51.622ZM73.7541 21.056L66.8421 40.976V56H60.7941V40.976L53.8821 21.056H60.4101L63.8181 34.304L67.2261 21.056H73.7541ZM83.962 49.952H92.17V56H77.914V21.056H83.962V49.952ZM109.02 54.272C107.548 55.744 105.772 56.48 103.692 56.48C101.612 56.48 99.8362 55.744 98.3642 54.272C96.9242 52.8 96.2042 51.024 96.2042 48.944V47.024H99.3722V48.944C99.3722 50.16 99.7882 51.2 100.62 52.064C101.484 52.896 102.508 53.312 103.692 53.312C104.908 53.312 105.932 52.88 106.764 52.016C107.628 51.152 108.06 50.128 108.06 48.944V47.36C108.06 45.568 107.42 44.08 106.14 42.896L99.1322 36.512C97.1802 34.72 96.2042 32.448 96.2042 29.696V28.112C96.2042 26.032 96.9242 24.256 98.3642 22.784C99.8362 21.312 101.612 20.576 103.692 20.576C105.772 20.576 107.548 21.312 109.02 22.784C110.492 24.256 111.228 26.032 111.228 28.112V30.032H108.06V28.112C108.06 26.928 107.628 25.904 106.764 25.04C105.932 24.176 104.908 23.744 103.692 23.744C102.508 23.744 101.484 24.176 100.62 25.04C99.7882 25.872 99.3722 26.896 99.3722 28.112V29.696C99.3722 31.488 99.9962 32.976 101.244 34.16L108.252 40.544C110.236 42.368 111.228 44.64 111.228 47.36V48.944C111.228 51.024 110.492 52.8 109.02 54.272ZM136.395 21.056H139.611V56H136.443V29.6L129.675 50.576H127.323L120.555 29.6V56H117.387V21.056H120.603L128.523 45.008L136.395 21.056ZM159.278 21.056L152.51 40.16V56H149.342V40.16L142.526 21.056H145.934L150.926 36.368L155.87 21.056H159.278ZM177.274 21.056V24.224H171.178V56H168.01V24.224H161.866V21.056H177.274ZM194.091 21.056H197.259V56H194.091V39.488H185.403V56H182.235V21.056H185.403V36.32H194.091V21.056Z" fill="#0A0A0A"/>
</svg>
